SplineFontDB: 3.2
FontName: Cantata
FullName: Cantata
FamilyName: Cantata
Weight: Book
Copyright: Copyright (c) Klaus Rettinghaus
Version: 1.0.0
ItalicAngle: 0
UnderlinePosition: -100
UnderlineWidth: 50
Ascent: 800
Descent: 200
InvalidEm: 0
sfntRevision: 0x00010000
LayerCount: 2
Layer: 0 1 "Hinten" 1
Layer: 1 1 "Vorne" 0
XUID: [1021 157 736890902 11766980]
StyleMap: 0x0040
FSType: 0
OS2Version: 3
OS2_WeightWidthSlopeOnly: 0
OS2_UseTypoMetrics: 0
CreationTime: 1426178999
ModificationTime: 1752931953
PfmFamily: 17
TTFWeight: 400
TTFWidth: 5
LineGap: 0
VLineGap: 0
Panose: 2 0 5 0 0 0 0 0 0 0
OS2TypoAscent: 2012
OS2TypoAOffset: 0
OS2TypoDescent: -2012
OS2TypoDOffset: 0
OS2TypoLinegap: 0
OS2WinAscent: 2012
OS2WinAOffset: 0
OS2WinDescent: 2012
OS2WinDOffset: 0
HheadAscent: 2012
HheadAOffset: 0
HheadDescent: -2012
HheadDOffset: 0
OS2SubXSize: 650
OS2SubYSize: 600
OS2SubXOff: 0
OS2SubYOff: 75
OS2SupXSize: 650
OS2SupYSize: 600
OS2SupXOff: 0
OS2SupYOff: 350
OS2StrikeYSize: 50
OS2StrikeYPos: 165
OS2CapHeight: 475
OS2XHeight: 275
OS2Vendor: 'HL  '
OS2CodePages: 00000001.00000000
OS2UnicodeRanges: 00000000.10000000.01000000.00000000
MarkAttachClasses: 1
DEI: 91125
TtTable: prep
PUSHW_1
 511
SCANCTRL
PUSHB_1
 1
SCANTYPE
SVTCA[y-axis]
MPPEM
PUSHB_1
 8
LT
IF
PUSHB_2
 1
 1
INSTCTRL
EIF
PUSHB_2
 70
 6
CALL
IF
POP
PUSHB_1
 16
EIF
MPPEM
PUSHB_1
 20
GT
IF
POP
PUSHB_1
 128
EIF
SCVTCI
PUSHB_1
 6
CALL
NOT
IF
EIF
PUSHB_1
 20
CALL
EndTTInstrs
TtTable: fpgm
PUSHB_1
 0
FDEF
PUSHB_1
 0
SZP0
MPPEM
PUSHB_1
 42
LT
IF
PUSHB_1
 74
SROUND
EIF
PUSHB_1
 0
SWAP
MIAP[rnd]
RTG
PUSHB_1
 6
CALL
IF
RTDG
EIF
MPPEM
PUSHB_1
 42
LT
IF
RDTG
EIF
DUP
MDRP[rp0,rnd,grey]
PUSHB_1
 1
SZP0
MDAP[no-rnd]
RTG
ENDF
PUSHB_1
 1
FDEF
DUP
MDRP[rp0,min,white]
PUSHB_1
 12
CALL
ENDF
PUSHB_1
 2
FDEF
MPPEM
GT
IF
RCVT
SWAP
EIF
POP
ENDF
PUSHB_1
 3
FDEF
ROUND[Black]
RTG
DUP
PUSHB_1
 64
LT
IF
POP
PUSHB_1
 64
EIF
ENDF
PUSHB_1
 4
FDEF
PUSHB_1
 6
CALL
IF
POP
SWAP
POP
ROFF
IF
MDRP[rp0,min,rnd,black]
ELSE
MDRP[min,rnd,black]
EIF
ELSE
MPPEM

StartChar: uni2600
Encoding: 9728 9728 2
Width: 465
GlyphClass: 1
Flags: W
LayerCount: 2
Fore
SplineSet
469 30 m 1,0,-1
 277 -2 l 1,1,-1
 467 -338 l 1,2,-1
 395 -377 l 1,3,-1
 205 -41 l 1,4,-1
 82 -177 l 1,5,-1
 1 381 l 1,6,-1
 469 30 l 1,0,-1
EndSplineSet
EndChar

StartChar: uni2601
Encoding: 9729 9729 3
Width: 777
GlyphClass: 1
Flags: W
LayerCount: 2
Fore
SplineSet
636 390 m 1,0,-1
 777 248 l 1,1,-1
 674 145 l 1,2,-1
 532 286 l 1,3,-1
 636 390 l 1,0,-1
0 -246 m 1,4,-1
 470 223 l 1,5,-1
 611 82 l 1,6,-1
 140 -390 l 1,7,-1
 0 -390 l 1,8,-1
 0 -246 l 1,4,-1
152 -329 m 1,9,-1
 152 -281 l 1,10,-1
 104 -281 l 1,11,-1
 104 -233 l 1,12,-1
 56 -233 l 1,13,-1
 56 -329 l 1,14,-1
 152 -329 l 1,9,-1
EndSplineSet
EndChar

StartChar: uni2602
Encoding: 9730 9730 4
Width: 800
GlyphClass: 1
Flags: W
LayerCount: 2
Fore
SplineSet
0 1 m 1,0,1
 5 171 5 171 117.5 283.5 c 128,-1,2
 230 396 230 396 400 401 c 1,3,4
 570 396 570 396 682.5 283.5 c 128,-1,5
 795 171 795 171 800 1 c 1,6,7
 795 -170 795 -170 682.5 -282.5 c 128,-1,8
 570 -395 570 -395 400 -399 c 1,9,10
 230 -395 230 -395 117.5 -282.5 c 128,-1,11
 5 -170 5 -170 0 1 c 1,0,1
348 -2 m 1,12,-1
 184 161 l 1,13,-1
 238 215 l 1,14,-1
 401 51 l 1,15,-1
 562 212 l 1,16,-1
 615 158 l 1,17,-1
 455 -2 l 1,18,-1
 615 -163 l 1,19,-1
 562 -216 l 1,20,-1
 401 -56 l 1,21,-1
 242 -215 l 1,22,-1
 189 -161 l 1,23,-1
 348 -2 l 1,12,-1
400 338 m 0,24,25
 260 338 260 338 161 239 c 128,-1,26
 62 140 62 140 62 -1 c 0,27,28
 62 -141 62 -141 161 -240.5 c 128,-1,29
 260 -340 260 -340 400 -340 c 0,30,31
 541 -340 541 -340 640 -240.5 c 128,-1,32
 739 -141 739 -141 739 -1 c 0,33,34
 739 140 739 140 640 239 c 128,-1,35
 541 338 541 338 400 338 c 0,24,25
EndSplineSet
EndChar

StartChar: uni2603
Encoding: 9731 9731 5
Width: 740
GlyphClass: 1
Flags: W
LayerCount: 2
Fore
SplineSet
509 385 m 2,1,-1
 509 -386 l 2,2,3
 509 -394 509 -394 502 -398 c 0,4,5
 499 -400 499 -400 495 -400 c 256,6,7
 491 -400 491 -400 487 -398 c 2,8,-1
 185 -206 l 1,9,-1
 183 -207 l 1,10,-1
 21 -207 l 2,11,12
 0 -207 0 -207 0 -186 c 2,13,-1
 0 185 l 2,14,15
 0 206 0 206 21 206 c 2,16,-1
 185 206 l 1,17,-1
 487 397 l 2,18,19
 492 399 492 399 494 399 c 0,20,21
 497 399 497 399 502 397 c 0,22,0
 509 394 509 394 509 385 c 2,1,-1
28 -179 m 1,23,-1
 176 -179 l 1,24,-1
 176 178 l 1,25,-1
 28 178 l 1,26,-1
 28 -179 l 1,23,-1
481 360 m 1,27,-1
 204 185 l 1,28,-1
 204 -186 l 1,29,-1
 481 -361 l 1,30,-1
 481 360 l 1,27,-1
740 -6 m 0,32,33
 740 -126 740 -126 662 -216 c 0,34,35
 659 -221 659 -221 651 -221 c 0,36,37
 646 -221 646 -221 643 -217 c 0,38,39
 637 -213 637 -213 637 -206 c 0,40,41
 637 -202 637 -202 641 -198 c 0,42,43
 712 -116 712 -116 712 -6 c 0,44,45
 712 57 712 57 695 106 c 0,46,47
 678 158 678 158 641 197 c 0,48,49
 638 200 638 200 638 206 c 0,50,51
 638 213 638 213 642 217 c 0,52,53
 645 220 645 220 651 220 c 0,54,55
 658 220 658 220 662 216 c 0,56,57
 702 173 702 173 721 115 c 0,58,31
 740 61 740 61 740 -6 c 0,32,33
645 -88 m 0,60,61
 630 -128 630 -128 607 -156 c 0,62,63
 602 -162 602 -162 596 -162 c 0,64,65
 591 -162 591 -162 588 -159 c 0,66,67
 582 -156 582 -156 582 -148 c 0,68,69
 582 -142 582 -142 585 -139 c 0,70,71
 630 -82 630 -82 630 -8 c 0,72,73
 630 91 630 91 586 138 c 0,74,75
 582 141 582 141 582 148 c 0,76,77
 582 154 582 154 586 158 c 0,78,79
 592 161 592 161 596 161 c 0,80,81
 602 161 602 161 606 157 c 0,82,83
 636 125 636 125 648 81 c 0,84,85
 658 44 658 44 658 -8 c 0,86,59
 658 -51 658 -51 645 -88 c 0,60,61
EndSplineSet
EndChar

StartChar: uni2604
Encoding: 9732 9732 6
Width: 758
GlyphClass: 1
Flags: W
LayerCount: 2
Fore
SplineSet
238 299 m 1,0,-1
 759 401 l 1,1,-1
 759 -150 l 2,2,3
 758 -204 758 -204 700 -252 c 0,4,5
 643 -297 643 -297 583 -297 c 0,6,7
 497 -297 497 -297 497 -223 c 0,8,9
 497 -165 497 -165 548 -121 c 0,10,11
 600 -75 600 -75 672 -75 c 0,12,13
 710 -75 710 -75 735 -95 c 1,14,-1
 735 303 l 1,15,-1
 261 200 l 1,16,-1
 262 -252 l 2,17,18
 261 -306 261 -306 203 -353 c 0,19,20
 147 -399 147 -399 86 -399 c 0,21,22
 0 -399 0 -399 0 -325 c 0,23,24
 0 -266 0 -266 51 -222 c 0,25,26
 103 -177 103 -177 175 -177 c 0,27,28
 214 -177 214 -177 238 -197 c 1,29,-1
 238 299 l 1,0,-1
EndSplineSet
EndChar

StartChar: uni2605
Encoding: 9733 9733 7
Width: 802
GlyphClass: 1
Flags: W
LayerCount: 2
Fore
SplineSet
226 35 m 1,0,1
 181 20 181 20 134.5 30.5 c 128,-1,2
 88 41 88 41 52 78 c 0,3,4
 18 113 18 113 7.5 158.5 c 128,-1,5
 -3 204 -3 204 8 249 c 1,6,7
 8 249 8 249 104 149 c 1,8,-1
 200 175 l 1,9,-1
 225 273 l 1,10,-1
 128 373 l 1,11,12
 172 384 172 384 215.5 373 c 128,-1,13
 259 362 259 362 293 326.5 c 128,-1,14
 327 291 327 291 338 246 c 128,-1,15
 349 201 349 201 335 156 c 1,16,17
 335 156 335 156 358 133 c 1,18,-1
 274 43 l 1,19,-1
 318 -2 l 1,20,-1
 293 -31 l 1,21,-1
 226 35 l 1,0,1
548 -62 m 1,22,-1
 737 -259 l 2,23,24
 761 -284 761 -284 761 -317.5 c 128,-1,25
 761 -351 761 -351 737 -376 c 0,26,27
 725 -388 725 -388 710.5 -394.5 c 128,-1,28
 696 -401 696 -401 680.5 -401 c 128,-1,29
 665 -401 665 -401 650.5 -394.5 c 128,-1,30
 636 -388 636 -388 624 -376 c 2,31,32
 624 -376 624 -376 432 -177 c 1,33,-1
 548 -62 l 1,22,-1
802 272 m 1,34,-1
 441 -101 l 1,35,-1
 397 -55 l 1,36,-1
 181 -278 l 1,37,-1
 156 -330 l 1,38,-1
 46 -401 l 1,39,-1
 28 -383 l 1,40,-1
 97 -269 l 1,41,-1
 147 -243 l 1,42,-1
 363 -20 l 1,43,-1
 318 26 l 1,44,-1
 679 399 l 1,45,-1
 802 272 l 1,34,-1
EndSplineSet
EndChar

StartChar: uni2606
Encoding: 9734 9734 8
Width: 798
GlyphClass: 1
Flags: W
LayerCount: 2
Fore
SplineSet
57 -400 m 1,0,-1
 57 -201 l 1,1,-1
 171 -201 l 1,2,-1
 171 -400 l 1,3,-1
 57 -400 l 1,0,-1
171 399 m 1,4,-1
 171 66 l 1,5,-1
 57 66 l 1,6,-1
 57 399 l 1,7,-1
 171 399 l 1,4,-1
457 399 m 1,8,-1
 457 265 l 1,9,-1
 343 265 l 1,10,-1
 343 399 l 1,11,-1
 457 399 l 1,8,-1
0 -134 m 1,12,-1
 0 -1 l 1,13,-1
 229 -1 l 1,14,-1
 229 -134 l 1,15,-1
 0 -134 l 1,12,-1
343 -400 m 1,16,-1
 343 -1 l 1,17,-1
 457 -1 l 1,18,-1
 457 -400 l 1,19,-1
 343 -400 l 1,16,-1
286 66 m 1,20,-1
 286 199 l 1,21,-1
 514 199 l 1,22,-1
 514 66 l 1,23,-1
 286 66 l 1,20,-1
743 399 m 1,24,-1
 743 -1 l 1,25,-1
 629 -1 l 1,26,-1
 629 399 l 1,27,-1
 743 399 l 1,24,-1
571 -67 m 1,28,-1
 800 -67 l 1,29,-1
 800 -201 l 1,30,-1
 571 -201 l 1,31,-1
 571 -67 l 1,28,-1
629 -400 m 1,32,-1
 629 -267 l 1,33,-1
 743 -267 l 1,34,-1
 743 -400 l 1,35,-1
 629 -400 l 1,32,-1
EndSplineSet
EndChar

StartChar: uni2607
Encoding: 9735 9735 9
Width: 799
GlyphClass: 1
Flags: W
LayerCount: 2
Fore
SplineSet
1 -261 m 1,0,-1
 300 -261 l 1,1,-1
 300 -400 l 1,2,-1
 1 -400 l 1,3,-1
 1 -261 l 1,0,-1
300 44 m 1,4,-1
 2 44 l 1,5,-1
 2 183 l 1,6,-1
 300 183 l 1,7,-1
 300 44 l 1,4,-1
0 400 m 1,8,-1
 302 400 l 1,9,-1
 302 261 l 1,10,-1
 0 261 l 1,11,-1
 0 400 l 1,8,-1
800 44 m 1,12,-1
 500 44 l 1,13,-1
 500 183 l 1,14,-1
 800 183 l 1,15,-1
 800 44 l 1,12,-1
800 -175 m 1,16,-1
 500 -175 l 1,17,-1
 500 -36 l 1,18,-1
 800 -36 l 1,19,-1
 800 -175 l 1,16,-1
EndSplineSet
EndChar

StartChar: uni2608
Encoding: 9736 9736 10
Width: 799
GlyphClass: 1
Flags: W
LayerCount: 2
Fore
SplineSet
396 255 m 1,0,-1
 97 255 l 1,1,-1
 97 282 l 1,2,-1
 396 282 l 1,3,-1
 396 255 l 1,0,-1
709 -290 m 1,4,-1
 410 -290 l 1,5,-1
 410 -262 l 1,6,-1
 709 -262 l 1,7,-1
 709 -290 l 1,4,-1
310 -90 m 1,8,-1
 97 -90 l 1,9,-1
 97 -62 l 1,10,-1
 310 -62 l 1,11,-1
 310 -90 l 1,8,-1
310 22 m 1,12,-1
 97 22 l 1,13,-1
 97 50 l 1,14,-1
 310 50 l 1,15,-1
 310 22 l 1,12,-1
310 143 m 1,16,-1
 97 143 l 1,17,-1
 97 170 l 1,18,-1
 310 170 l 1,19,-1
 310 167 l 1,20,21
 310 199 310 199 338 199 c 2,22,-1
 449 199 l 1,23,-1
 449 358 l 1,24,-1
 41 358 l 1,25,-1
 41 -163 l 1,26,-1
 310 -163 l 1,27,-1
 310 143 l 1,16,-1
410 55 m 1,28,-1
 410 82 l 1,29,-1
 709 82 l 1,30,-1
 709 55 l 1,31,-1
 410 55 l 1,28,-1
351 -363 m 1,32,-1
 759 -363 l 1,33,-1
 759 158 l 1,34,-1
 351 158 l 1,35,-1
 351 -363 l 1,32,-1
410 -178 m 1,36,-1
 410 -150 l 1,37,-1
 709 -150 l 1,38,-1
 709 -178 l 1,39,-1
 410 -178 l 1,36,-1
410 -57 m 1,40,-1
 410 -30 l 1,41,-1
 709 -30 l 1,42,-1
 709 -57 l 1,43,-1
 410 -57 l 1,40,-1
310 -204 m 1,44,-1
 28 -204 l 2,45,46
 0 -204 0 -204 0 -177 c 2,47,-1
 0 367 l 2,48,49
 0 399 0 399 28 399 c 2,50,-1
 466 399 l 2,51,52
 490 399 490 399 490 373 c 2,53,-1
 490 199 l 1,54,-1
 776 199 l 2,55,56
 800 199 800 199 800 173 c 2,57,-1
 800 -374 l 2,58,59
 800 -404 800 -404 769 -404 c 2,60,-1
 338 -404 l 2,61,62
 310 -404 310 -404 310 -377 c 2,63,-1
 310 -204 l 1,44,-1
EndSplineSet
EndChar

StartChar: uni2609
Encoding: 9737 9737 11
Width: 800
GlyphClass: 1
Flags: W
LayerCount: 2
Fore
SplineSet
0 0 m 1,0,1
 5 170 5 170 117.5 282.5 c 128,-1,2
 230 395 230 395 400 400 c 1,3,4
 570 395 570 395 682.5 282.5 c 128,-1,5
 795 170 795 170 800 0 c 1,6,7
 795 -171 795 -171 682.5 -283.5 c 128,-1,8
 570 -396 570 -396 400 -400 c 1,9,10
 230 -396 230 -396 117.5 -283.5 c 128,-1,11
 5 -171 5 -171 0 0 c 1,0,1
339 145 m 1,12,-1
 339 -339 l 1,13,-1
 452 -339 l 1,14,-1
 452 145 l 1,15,-1
 339 145 l 1,12,-1
398 339 m 256,16,17
 373 339 373 339 355.5 321.5 c 128,-1,18
 338 304 338 304 338 279 c 256,19,20
 338 254 338 254 355.5 236 c 128,-1,21
 373 218 373 218 398 218 c 256,22,23
 423 218 423 218 441 236 c 128,-1,24
 459 254 459 254 459 279 c 256,25,26
 459 304 459 304 441 321.5 c 128,-1,27
 423 339 423 339 398 339 c 256,16,17
EndSplineSet
EndChar

StartChar: uni260A
Encoding: 9738 9738 12
Width: 998
GlyphClass: 1
Flags: W
LayerCount: 2
Fore
SplineSet
413 93 m 1,0,-1
 727 154 l 1,1,-1
 727 -176 l 2,2,3
 727 -209 727 -209 692 -237 c 0,4,5
 658 -265 658 -265 622 -265 c 0,6,7
 570 -265 570 -265 570 -220 c 0,8,9
 570 -185 570 -185 601 -159 c 0,10,11
 632 -131 632 -131 675 -131 c 0,12,13
 698 -131 698 -131 711 -144 c 1,14,-1
 711 95 l 1,15,-1
 429 34 l 1,16,-1
 429 -237 l 2,17,18
 429 -270 429 -270 394 -298 c 0,19,20
 360 -326 360 -326 324 -326 c 0,21,22
 272 -326 272 -326 272 -281 c 0,23,24
 272 -246 272 -246 303 -220 c 0,25,26
 334 -192 334 -192 377 -192 c 0,27,28
 400 -192 400 -192 413 -205 c 1,29,-1
 413 93 l 1,0,-1
161 278 m 1,30,-1
 598 278 l 1,31,-1
 526 386 l 1,32,-1
 234 386 l 1,33,-1
 161 278 l 1,30,-1
966 278 m 2,34,35
 1000 278 1000 278 1000 244 c 2,36,-1
 1000 -401 l 2,37,38
 1000 -435 1000 -435 966 -435 c 2,39,-1
 34 -435 l 2,40,41
 0 -435 0 -435 0 -401 c 2,42,-1
 0 244 l 2,43,44
 0 278 0 278 34 278 c 2,45,-1
 102 278 l 1,46,-1
 198 422 l 2,47,48
 205 434 205 434 219 434 c 2,49,-1
 540 434 l 2,50,51
 554 434 554 434 561 422 c 2,52,-1
 658 278 l 1,53,-1
 966 278 l 2,34,35
48 230 m 1,54,-1
 48 -387 l 1,55,-1
 952 -387 l 1,56,-1
 952 230 l 1,57,-1
 48 230 l 1,54,-1
EndSplineSet
EndChar

StartChar: uni260B
Encoding: 9739 9739 13
Width: 661
GlyphClass: 1
Flags: W
LayerCount: 2
Fore
SplineSet
565 -378 m 1,0,-1
 565 -212 l 1,1,2
 526 -254 526 -254 479 -279 c 0,3,4
 413 -315 413 -315 333 -315 c 0,5,6
 230 -315 230 -315 149 -254 c 0,7,8
 111 -226 111 -226 81 -187 c 0,9,10
 55 -150 55 -150 28 -84 c 1,11,-1
 131 -84 l 1,12,13
 165 -147 165 -147 217 -181 c 0,14,15
 270 -217 270 -217 333 -217 c 0,16,17
 435 -217 435 -217 499 -137 c 1,18,-1
 324 -137 l 1,19,-1
 324 -41 l 1,20,-1
 660 -41 l 1,21,-1
 661 -378 l 1,22,-1
 565 -378 l 1,0,-1
0 41 m 1,23,-1
 0 378 l 1,24,-1
 96 378 l 1,25,-1
 96 212 l 1,26,27
 135 254 135 254 182 279 c 0,28,29
 248 315 248 315 328 315 c 0,30,31
 431 315 431 315 512 254 c 0,32,33
 553 224 553 224 580 186 c 0,34,35
 606 151 606 151 630 84 c 1,36,-1
 523 84 l 1,37,38
 496 147 496 147 444 181 c 0,39,40
 391 217 391 217 328 217 c 0,41,42
 228 217 228 217 162 137 c 1,43,-1
 337 137 l 1,44,-1
 337 41 l 1,45,-1
 0 41 l 1,23,-1
EndSplineSet
EndChar

StartChar: uni260C
Encoding: 9740 9740 14
Width: 650
GlyphClass: 1
Flags: W
LayerCount: 2
Fore
SplineSet
221 400 m 1,0,-1
 286 400 l 1,1,-1
 319 381 l 1,2,-1
 421 10 l 1,3,-1
 463 59 l 1,4,-1
 442 78 l 1,5,-1
 508 206 l 1,6,-1
 553 169 l 1,7,-1
 592 219 l 1,8,-1
 646 179 l 1,9,-1
 604 127 l 1,10,-1
 649 90 l 1,11,-1
 538 2 l 1,12,-1
 517 18 l 1,13,-1
 436 -81 l 1,14,-1
 504 -400 l 1,15,-1
 0 -400 l 1,16,-1
 176 380 l 1,17,-1
 221 400 l 1,0,-1
111 -238 m 1,18,-1
 224 -238 l 1,19,-1
 356 -67 l 1,20,-1
 270 302 l 1,21,-1
 234 302 l 1,22,-1
 111 -238 l 1,18,-1
312 -238 m 1,23,-1
 398 -238 l 1,24,-1
 379 -148 l 1,25,-1
 312 -238 l 1,23,-1
EndSplineSet
EndChar

StartChar: uni260D
Encoding: 9741 9741 15
Width: 543
GlyphClass: 1
Flags: W
LayerCount: 2
Fore
SplineSet
235 -179 m 1,0,-1
 365 -49 l 1,1,-1
 0 -49 l 1,2,-1
 0 45 l 1,3,-1
 365 45 l 1,4,-1
 234 175 l 1,5,-1
 301 242 l 1,6,-1
 545 -2 l 1,7,-1
 301 -245 l 1,8,-1
 235 -179 l 1,0,-1
EndSplineSet
EndChar

StartChar: uni260E
Encoding: 9742 9742 16
Width: 501
GlyphClass: 1
Flags: W
LayerCount: 2
Fore
SplineSet
176 -54 m 1,0,-1
 44 -54 l 1,1,-1
 44 -91 l 1,2,-1
 176 -91 l 1,3,-1
 176 -54 l 1,0,-1
0 192 m 2,4,5
 0 210 0 210 12 210 c 2,6,-1
 205 210 l 2,7,8
 216 210 216 210 216 194 c 2,9,-1
 216 -193 l 2,10,11
 216 -212 216 -212 202 -212 c 2,12,-1
 12 -212 l 2,13,14
 0 -212 0 -212 0 -195 c 2,15,-1
 0 192 l 2,4,5
176 121 m 1,16,-1
 176 158 l 1,17,-1
 44 158 l 1,18,-1
 44 121 l 1,19,-1
 176 121 l 1,16,-1
176 -22 m 1,20,-1
 176 15 l 1,21,-1
 44 15 l 1,22,-1
 44 -22 l 1,23,-1
 176 -22 l 1,20,-1
176 52 m 1,24,-1
 176 89 l 1,25,-1
 44 89 l 1,26,-1
 44 52 l 1,27,-1
 176 52 l 1,24,-1
176 -124 m 1,28,-1
 44 -124 l 1,29,-1
 44 -161 l 1,30,-1
 176 -161 l 1,31,-1
 176 -124 l 1,28,-1
461 -54 m 1,32,-1
 329 -54 l 1,33,-1
 329 -91 l 1,34,-1
 461 -91 l 1,35,-1
 461 -54 l 1,32,-1
285 52 m 2,36,37
 285 70 285 70 298 70 c 2,38,-1
 490 70 l 2,39,40
 501 70 501 70 501 54 c 2,41,-1
 501 -193 l 2,42,43
 501 -212 501 -212 487 -212 c 2,44,-1
 298 -212 l 2,45,46
 285 -212 285 -212 285 -195 c 2,47,-1
 285 52 l 2,36,37
461 -22 m 1,48,-1
 461 15 l 1,49,-1
 329 15 l 1,50,-1
 329 -22 l 1,51,-1
 461 -22 l 1,48,-1
461 -124 m 1,52,-1
 329 -124 l 1,53,-1
 329 -161 l 1,54,-1
 461 -161 l 1,55,-1
 461 -124 l 1,52,-1
EndSplineSet
EndChar

StartChar: uni260F
Encoding: 9743 9743 17
Width: 800
GlyphClass: 1
Flags: W
LayerCount: 2
Fore
SplineSet
800 -390 m 1,0,-1
 0 -390 l 1,1,-1
 0 -217 l 1,2,-1
 105 387 l 1,3,-1
 705 387 l 1,4,-1
 800 -216 l 1,5,-1
 800 -390 l 1,0,-1
725 -52 m 1,6,-1
 717 57 l 1,7,-1
 92 57 l 1,8,-1
 81 -52 l 1,9,-1
 725 -52 l 1,6,-1
63 -106 m 1,10,-1
 53 -215 l 1,11,-1
 752 -215 l 1,12,-1
 742 -106 l 1,13,-1
 63 -106 l 1,10,-1
699 111 m 1,14,-1
 688 220 l 1,15,-1
 119 220 l 1,16,-1
 109 111 l 1,17,-1
 699 111 l 1,14,-1
143 361 m 1,18,-1
 136 273 l 1,19,-1
 671 273 l 1,20,-1
 665 361 l 1,21,-1
 143 361 l 1,18,-1
320 -272 m 1,22,-1
 320 -332 l 1,23,-1
 479 -332 l 1,24,-1
 479 -272 l 1,25,-1
 320 -272 l 1,22,-1
EndSplineSet
EndChar

StartChar: uni2610
Encoding: 9744 9744 18
Width: 639
GlyphClass: 1
Flags: W
LayerCount: 2
Fore
SplineSet
638 -263 m 1,0,-1
 537 -263 l 1,1,-1
 537 260 l 1,2,-1
 638 260 l 1,3,-1
 638 -263 l 1,0,-1
468 261 m 1,4,-1
 468 -261 l 1,5,-1
 0 -1 l 1,6,-1
 468 261 l 1,4,-1
EndSplineSet
EndChar

StartChar: uni2611
Encoding: 9745 9745 19
Width: 639
GlyphClass: 1
Flags: W
LayerCount: 2
Fore
SplineSet
0 261 m 1,0,-1
 101 261 l 1,1,-1
 101 -262 l 1,2,-1
 0 -262 l 1,3,-1
 0 261 l 1,0,-1
170 -263 m 1,4,-1
 170 259 l 1,5,-1
 638 -1 l 1,6,-1
 170 -263 l 1,4,-1
EndSplineSet
EndChar

StartChar: uni2612
Encoding: 9746 9746 20
Width: 468
GlyphClass: 1
Flags: W
LayerCount: 2
Fore
SplineSet
0 -262 m 1,0,-1
 0 260 l 1,1,-1
 468 0 l 1,2,-1
 0 -262 l 1,0,-1
EndSplineSet
EndChar

StartChar: uni2613
Encoding: 9747 9747 21
Width: 506
GlyphClass: 1
Flags: W
LayerCount: 2
Fore
SplineSet
0 -256 m 1,0,-1
 0 253 l 1,1,-1
 506 253 l 1,2,-1
 506 -256 l 1,3,-1
 0 -256 l 1,0,-1
EndSplineSet
EndChar

StartChar: uni2614
Encoding: 9748 9748 22
Width: 534
GlyphClass: 1
Flags: W
LayerCount: 2
Fore
SplineSet
0 -3 m 1,0,1
 4 111 4 111 78.5 185.5 c 128,-1,2
 153 260 153 260 267 264 c 1,3,4
 380 260 380 260 454.5 185.5 c 128,-1,5
 529 111 529 111 533 -3 c 1,6,7
 529 -116 529 -116 454.5 -191 c 128,-1,8
 380 -266 380 -266 267 -269 c 1,9,10
 153 -266 153 -266 78.5 -191 c 128,-1,11
 4 -116 4 -116 0 -3 c 1,0,1
EndSplineSet
EndChar

StartChar: uni2615
Encoding: 9749 9749 23
Width: 810
GlyphClass: 1
Flags: W
LayerCount: 2
Fore
SplineSet
810 -1 m 256,1,2
 810 -169 810 -169 692 -287 c 0,3,4
 573 -406 573 -406 405 -406 c 256,5,6
 237 -406 237 -406 119 -287 c 0,7,8
 0 -169 0 -169 0 -1 c 256,9,10
 0 167 0 167 119 286 c 0,11,12
 237 404 237 404 405 404 c 256,13,14
 573 404 573 404 692 286 c 0,15,0
 810 167 810 167 810 -1 c 256,1,2
756 -1 m 0,17,18
 756 145 756 145 654 247 c 0,19,20
 581 322 581 322 483 341 c 1,21,-1
 483 290 l 2,22,23
 483 277 483 277 470 277 c 2,24,-1
 341 277 l 2,25,26
 327 277 327 277 327 290 c 2,27,-1
 327 341 l 1,28,29
 230 320 230 320 158 248 c 0,30,31
 54 145 54 145 54 -1 c 0,32,33
 54 -146 54 -146 156 -248 c 0,34,35
 260 -352 260 -352 405 -352 c 0,36,37
 552 -352 552 -352 653 -248 c 1,38,16
 756 -148 756 -148 756 -1 c 0,17,18
114 34 m 0,40,41
 114 92 114 92 171 92 c 0,42,43
 230 92 230 92 230 34 c 0,44,45
 230 -23 230 -23 171 -23 c 0,46,39
 114 -23 114 -23 114 34 c 0,40,41
240 -194 m 0,48,49
 183 -194 183 -194 183 -136 c 0,50,51
 183 -79 183 -79 240 -79 c 0,52,53
 299 -79 299 -79 299 -136 c 0,54,47
 299 -194 299 -194 240 -194 c 0,48,49
410 -308 m 0,56,57
 353 -308 353 -308 353 -250 c 0,58,59
 353 -193 353 -193 410 -193 c 0,60,61
 468 -193 468 -193 468 -250 c 0,62,55
 468 -308 468 -308 410 -308 c 0,56,57
570 -194 m 0,64,65
 513 -194 513 -194 513 -136 c 0,66,67
 513 -79 513 -79 570 -79 c 0,68,69
 629 -79 629 -79 629 -136 c 0,70,63
 629 -194 629 -194 570 -194 c 0,64,65
632 -23 m 0,72,73
 575 -23 575 -23 575 34 c 0,74,75
 575 92 575 92 632 92 c 0,76,77
 690 92 690 92 690 34 c 0,78,71
 690 -23 690 -23 632 -23 c 0,72,73
EndSplineSet
EndChar

StartChar: uni2616
Encoding: 9750 9750 24
Width: 518
GlyphClass: 1
Flags: W
LayerCount: 2
Fore
SplineSet
0 85 m 1,0,-1
 238 323 l 1,1,-1
 306 255 l 1,2,-1
 189 138 l 1,3,4
 246 140 246 140 297 125 c 0,5,6
 369 103 369 103 426 47 c 0,7,8
 499 -26 499 -26 513 -126 c 0,9,10
 520 -177 520 -177 513 -223 c 0,11,12
 506 -266 506 -266 476 -330 c 1,13,-1
 400 -254 l 1,14,15
 426 -191 426 -191 413 -130 c 0,16,17
 401 -67 401 -67 356 -22 c 0,18,19
 286 48 286 48 182 38 c 1,20,-1
 306 -85 l 1,21,-1
 238 -153 l 1,22,-1
 0 85 l 1,0,-1
EndSplineSet
EndChar

StartChar: uni2617
Encoding: 9751 9751 25
Width: 511
GlyphClass: 1
Flags: W
LayerCount: 2
Fore
SplineSet
278 -152 m 1,0,-1
 210 -84 l 1,1,-1
 334 39 l 1,2,3
 231 49 231 49 160 -21 c 0,4,5
 116 -66 116 -66 104 -129 c 0,6,7
 91 -190 91 -190 116 -253 c 1,8,-1
 41 -329 l 1,9,10
 10 -265 10 -265 4 -222 c 0,11,12
 -4 -176 -4 -176 4 -125 c 0,13,14
 18 -25 18 -25 91 48 c 0,15,16
 147 104 147 104 220 126 c 0,17,18
 270 141 270 141 328 139 c 1,19,-1
 210 256 l 1,20,-1
 278 324 l 1,21,-1
 517 86 l 1,22,-1
 278 -152 l 1,0,-1
EndSplineSet
EndChar

StartChar: uni2669
Encoding: 9833 9833 28
Width: 300
GlyphClass: 1
Flags: W
LayerCount: 2
Fore
SplineSet
300 39 m 2,0,1
 300 -26 300 -26 232 -77 c 0,2,3
 169 -125 169 -125 102 -125 c 0,4,5
 61 -125 61 -125 32 -102 c 0,6,7
 0 -77 0 -77 0 -38 c 0,8,9
 0 25 0 25 66 76 c 0,10,11
 127 125 127 125 192 125 c 0,12,13
 252 125 252 125 275 103 c 1,14,-1
 275 874 l 1,15,-1
 300 874 l 1,16,-1
 300 39 l 2,0,1
EndSplineSet
EndChar

StartChar: musicalnote
Encoding: 9834 9834 29
Width: 546
GlyphClass: 1
Flags: W
LayerCount: 2
Fore
SplineSet
546 388 m 0,0,1
 546 265 546 265 462 124 c 1,2,-1
 446 124 l 1,3,-1
 490 228 l 2,4,5
 514 285 514 285 514 362 c 0,6,7
 514 444 514 444 458 514 c 0,8,9
 394 595 394 595 300 606 c 1,10,-1
 300 39 l 2,11,12
 300 -26 300 -26 232 -77 c 0,13,14
 169 -125 169 -125 102 -125 c 0,15,16
 61 -125 61 -125 32 -102 c 0,17,18
 0 -77 0 -77 0 -38 c 0,19,20
 0 25 0 25 66 76 c 0,21,22
 127 125 127 125 192 125 c 0,23,24
 252 125 252 125 275 103 c 1,25,-1
 275 874 l 1,26,-1
 300 874 l 1,27,28
 309 803 309 803 313 791 c 0,29,30
 325 737 325 737 360 698 c 2,31,-1
 476 568 l 2,32,33
 546 490 546 490 546 388 c 0,0,1
EndSplineSet
EndChar

StartChar: musicalnotedbl
Encoding: 9835 9835 30
Width: 962
GlyphClass: 1
Flags: W
LayerCount: 2
Fore
SplineSet
302 762 m 1,0,-1
 332 762 l 1,1,-1
 332 63 l 2,2,3
 331 -6 331 -6 258 -66 c 0,4,5
 186 -124 186 -124 109 -124 c 0,6,7
 0 -124 0 -124 0 -30 c 0,8,9
 0 44 0 44 65 100 c 0,10,11
 131 158 131 158 222 158 c 0,12,13
 271 158 271 158 302 132 c 1,14,-1
 302 762 l 1,0,-1
659 637 m 1,15,-1
 659 762 l 1,16,-1
 317 762 l 1,17,-1
 317 637 l 1,18,-1
 659 637 l 1,15,-1
962 761 m 1,19,-1
 962 62 l 2,20,21
 961 -7 961 -7 888 -67 c 0,22,23
 816 -125 816 -125 739 -125 c 0,24,25
 630 -125 630 -125 630 -31 c 0,26,27
 630 43 630 43 695 99 c 0,28,29
 761 157 761 157 852 157 c 0,30,31
 900 157 900 157 932 131 c 1,32,-1
 932 636 l 1,33,-1
 620 636 l 1,34,-1
 620 761 l 1,35,-1
 962 761 l 1,19,-1
EndSplineSet
EndChar

StartChar: uni266C
Encoding: 9836 9836 31
Width: 963
GlyphClass: 1
Flags: W
LayerCount: 2
Fore
SplineSet
302 762 m 1,0,-1
 332 762 l 1,1,-1
 332 63 l 2,2,3
 331 -6 331 -6 258 -66 c 0,4,5
 186 -124 186 -124 109 -124 c 0,6,7
 0 -124 0 -124 0 -30 c 0,8,9
 0 44 0 44 65 100 c 0,10,11
 131 158 131 158 222 158 c 0,12,13
 271 158 271 158 302 132 c 1,14,-1
 302 762 l 1,0,-1
963 762 m 1,15,-1
 963 63 l 2,16,17
 962 -6 962 -6 889 -66 c 0,18,19
 817 -124 817 -124 740 -124 c 0,20,21
 631 -124 631 -124 631 -30 c 0,22,23
 631 44 631 44 696 100 c 0,24,25
 762 158 762 158 853 158 c 0,26,27
 901 158 901 158 933 132 c 1,28,-1
 933 450 l 1,29,-1
 621 450 l 1,30,-1
 621 575 l 1,31,-1
 933 575 l 1,32,-1
 933 637 l 1,33,-1
 621 637 l 1,34,-1
 621 762 l 1,35,-1
 963 762 l 1,15,-1
652 450 m 1,36,-1
 652 575 l 1,37,-1
 310 575 l 1,38,-1
 310 450 l 1,39,-1
 652 450 l 1,36,-1
652 637 m 1,40,-1
 652 762 l 1,41,-1
 310 762 l 1,42,-1
 310 637 l 1,43,-1
 652 637 l 1,40,-1
EndSplineSet
EndChar

StartChar: uni266D
Encoding: 9837 9837 32
Width: 209
GlyphClass: 1
Flags: W
LayerCount: 2
Fore
SplineSet
0 -178 m 1,0,-1
 0 475 l 1,1,-1
 31 475 l 1,2,-1
 31 93 l 1,3,4
 83 130 83 130 124 130 c 0,5,6
 158 130 158 130 182.5 105 c 128,-1,7
 207 80 207 80 207 48 c 0,8,9
 207 9 207 9 170 -30 c 0,10,11
 153 -48 153 -48 102 -85 c 0,12,13
 69 -110 69 -110 0 -178 c 1,0,-1
31 49 m 2,14,-1
 31 -114 l 1,15,-1
 93 -43 l 2,16,17
 130 -1 130 -1 130 40 c 0,18,19
 130 86 130 86 89 92 c 0,20,21
 73 91 73 91 52 77.5 c 128,-1,22
 31 64 31 64 31 49 c 2,14,-1
EndSplineSet
EndChar

StartChar: uni266E
Encoding: 9838 9838 33
Width: 184
GlyphClass: 1
Flags: W
LayerCount: 2
Fore
SplineSet
0 -181 m 1,0,-1
 0 350 l 1,1,-1
 32 350 l 1,2,-1
 32 144 l 1,3,-1
 186 181 l 1,4,-1
 186 -350 l 1,5,-1
 154 -350 l 1,6,-1
 154 -144 l 1,7,-1
 0 -181 l 1,0,-1
32 49 m 1,8,-1
 32 -78 l 1,9,-1
 154 -49 l 1,10,-1
 154 78 l 1,11,-1
 32 49 l 1,8,-1
EndSplineSet
EndChar

StartChar: uni266F
Encoding: 9839 9839 34
Width: 256
GlyphClass: 1
Flags: W
LayerCount: 2
Fore
SplineSet
168 -301 m 1,0,-1
 168 -159 l 1,1,-1
 90 -175 l 1,2,-1
 90 -331 l 1,3,-1
 55 -331 l 1,4,-1
 55 -183 l 1,5,-1
 0 -194 l 1,6,-1
 0 -95 l 1,7,-1
 55 -84 l 1,8,-1
 55 52 l 1,9,-1
 0 41 l 1,10,-1
 0 137 l 1,11,-1
 55 148 l 1,12,-1
 55 304 l 1,13,-1
 90 304 l 1,14,-1
 90 156 l 1,15,-1
 168 172 l 1,16,-1
 168 327 l 1,17,-1
 203 327 l 1,18,-1
 203 179 l 1,19,-1
 258 190 l 1,20,-1
 258 94 l 1,21,-1
 203 83 l 1,22,-1
 203 -53 l 1,23,-1
 258 -42 l 1,24,-1
 258 -141 l 1,25,-1
 203 -152 l 1,26,-1
 203 -301 l 1,27,-1
 168 -301 l 1,0,-1
95 60 m 1,28,-1
 95 -76 l 1,29,-1
 179 -60 l 1,30,-1
 179 76 l 1,31,-1
 95 60 l 1,28,-1
EndSplineSet
EndChar

StartChar: uniE000
Encoding: 57344 57344 35
Width: 101
GlyphClass: 1
Flags: W
LayerCount: 2
Fore
SplineSet
99 1000 m 1,0,-1
 99 993 l 1,1,2
 61 943 61 943 61 859 c 1,3,4
 78 693 78 693 78 661 c 2,5,-1
 78 623 l 2,6,7
 78 539 78 539 15 500 c 1,8,9
 78 461 78 461 78 378 c 2,10,-1
 78 339 l 1,11,12
 61 148 61 148 61 126 c 0,13,14
 61 63 61 63 99 6 c 1,15,-1
 99 -1 l 1,16,17
 22 65 22 65 22 189 c 1,18,19
 47 336 47 336 47 363 c 2,20,-1
 47 394 l 2,21,22
 47 449 47 449 0 496 c 1,23,-1
 0 504 l 1,24,25
 47 551 47 551 47 606 c 2,26,-1
 47 638 l 2,27,28
 47 664 47 664 22 811 c 1,29,30
 22 935 22 935 99 1000 c 1,0,-1
99 1000 m 1,31,32
 22 935 22 935 22 811 c 1,33,34
 47 664 47 664 47 638 c 2,35,36
 47 638 47 638 47 606 c 2,37,38
 47 551 47 551 0 504 c 1,39,40
 0 504 0 504 0 496 c 1,41,42
 47 449 47 449 47 394 c 2,43,44
 47 394 47 394 47 363 c 2,45,46
 47 336 47 336 22 189 c 1,47,48
 22 65 22 65 99 -1 c 1,49,50
 99 -1 99 -1 99 6 c 1,51,52
 61 63 61 63 61 126 c 0,53,54
 61 148 61 148 78 339 c 1,55,56
 78 339 78 339 78 378 c 2,57,58
 78 461 78 461 15 500 c 1,59,60
 78 539 78 539 78 623 c 2,61,62
 78 623 78 623 78 661 c 2,63,64
 78 693 78 693 61 859 c 1,65,66
 61 943 61 943 99 993 c 1,67,68
 99 993 99 993 99 1000 c 1,31,32
EndSplineSet
EndChar

StartChar: uniE001
Encoding: 57345 57345 36
Width: 101
GlyphClass: 1
Flags: W
LayerCount: 2
Fore
SplineSet
77 811 m 1,1,2
 52 664 52 664 52 638 c 2,3,-1
 52 606 l 2,4,5
 52 551 52 551 99 504 c 1,6,-1
 99 496 l 1,7,8
 52 449 52 449 52 394 c 2,9,-1
 52 363 l 2,10,11
 52 336 52 336 77 189 c 1,12,13
 77 65 77 65 0 -1 c 1,14,-1
 0 6 l 1,15,16
 38 63 38 63 38 126 c 0,17,18
 38 148 38 148 21 339 c 1,19,-1
 21 378 l 2,20,21
 21 461 21 461 84 500 c 1,22,23
 21 539 21 539 21 623 c 2,24,-1
 21 661 l 2,25,26
 21 693 21 693 38 859 c 1,27,28
 38 943 38 943 0 993 c 1,29,-1
 0 1000 l 1,30,0
 77 935 77 935 77 811 c 1,1,2
77 811 m 1,31,32
 77 935 77 935 0 1000 c 1,33,34
 0 1000 0 1000 0 993 c 1,35,36
 38 943 38 943 38 859 c 1,37,38
 21 693 21 693 21 661 c 2,39,40
 21 661 21 661 21 623 c 2,41,42
 21 539 21 539 84 500 c 1,43,44
 21 461 21 461 21 378 c 2,45,46
 21 378 21 378 21 339 c 1,47,48
 38 148 38 148 38 126 c 0,49,50
 38 63 38 63 0 6 c 1,51,52
 0 6 0 6 0 -1 c 1,53,54
 77 65 77 65 77 189 c 1,55,56
 52 336 52 336 52 363 c 2,57,58
 52 363 52 363 52 394 c 2,59,60
 52 449 52 449 99 496 c 1,61,62
 99 496 99 496 99 504 c 1,63,64
 52 551 52 551 52 606 c 2,65,66
 52 606 52 606 52 638 c 2,67,68
 52 664 52 664 77 811 c 1,31,32
EndSplineSet
EndChar

StartChar: uniE002
Encoding: 57346 57346 37
Width: 558
GlyphClass: 1
Flags: W
LayerCount: 2
Fore
SplineSet
229 1150 m 1,0,-1
 281 1155 l 2,1,2
 383 1167 383 1167 452 1207 c 0,3,4
 516 1244 516 1244 559 1303 c 1,5,-1
 581 1295 l 1,6,7
 559 1240 559 1240 498 1179 c 0,8,9
 462 1143 462 1143 422 1119 c 0,10,11
 402 1107 402 1107 365 1088 c 128,-1,12
 328 1069 328 1069 306 1065 c 2,13,-1
 278 1059 l 1,14,-1
 246 1056 l 1,15,-1
 212 1055 l 1,16,-1
 125 1055 l 1,17,-1
 125 -54 l 1,18,-1
 211 -54 l 1,19,-1
 245 -55 l 1,20,-1
 277 -58 l 1,21,-1
 305 -64 l 2,22,23
 327 -68 327 -68 364 -87 c 128,-1,24
 401 -106 401 -106 421 -118 c 0,25,26
 461 -142 461 -142 497 -178 c 0,27,28
 558 -239 558 -239 580 -294 c 1,29,-1
 558 -302 l 1,30,31
 515 -243 515 -243 451 -206 c 0,32,33
 382 -166 382 -166 280 -154 c 2,34,-1
 228 -147 l 1,35,-1
 125 -147 l 1,36,-1
 7 -147 l 2,37,38
 0 -147 0 -147 0 -140 c 2,39,-1
 0 1143 l 2,40,41
 0 1150 0 1150 7 1150 c 2,42,-1
 229 1150 l 1,0,-1
EndSplineSet
EndChar

StartChar: uniE003
Encoding: 57347 57347 38
Width: 453
GlyphClass: 1
Flags: W
LayerCount: 2
Fore
SplineSet
453 238 m 1,0,1
 431 183 431 183 370 122 c 0,2,3
 334 86 334 86 294 62 c 0,4,5
 274 50 274 50 237 31 c 128,-1,6
 200 12 200 12 178 8 c 2,7,-1
 150 2 l 1,8,-1
 118 -1 l 1,9,-1
 84 -2 l 1,10,-1
 0 -2 l 1,11,-1
 0 92 l 1,12,-1
 101 92 l 1,13,-1
 153 98 l 2,14,15
 255 110 255 110 324 150 c 0,16,17
 388 187 388 187 431 246 c 1,18,-1
 453 238 l 1,0,1
EndSplineSet
EndChar

StartChar: uniE004
Encoding: 57348 57348 39
Width: 402
GlyphClass: 1
Flags: W
LayerCount: 2
Fore
SplineSet
0 -77 m 1,0,-1
 0 1 l 1,1,-1
 150 1 l 1,2,-1
 150 1 l 1,3,4
 341 -84 341 -84 402 -203 c 1,5,-1
 362 -212 l 1,6,7
 296 -124 296 -124 114.340820312 -92.98828125 c 0,8,9
 85 -88 85 -88 57.5 -84.5 c 128,-1,10
 30 -81 30 -81 16.5 -79 c 128,-1,11
 3 -77 3 -77 2 -77 c 2,12,13
 2 -77 2 -77 0 -77 c 1,0,-1
EndSplineSet
EndChar

StartChar: uniE005
Encoding: 57349 57349 40
Width: 455
GlyphClass: 1
Flags: W
LayerCount: 2
Fore
SplineSet
22 248 m 1,0,1
 65 189 65 189 129 152 c 0,2,3
 198 112 198 112 300 100 c 2,4,5
 300 100 300 100 352 94 c 1,6,-1
 453 94 l 1,7,-1
 453 0 l 1,8,-1
 369 0 l 1,9,-1
 335 1 l 1,10,-1
 303 4 l 1,11,-1
 275 10 l 2,12,13
 253 14 253 14 216 33 c 256,14,15
 179 52 179 52 159 64 c 0,16,17
 119 88 119 88 83 124 c 0,18,19
 22 185 22 185 0 240 c 1,20,21
 0 240 0 240 22 248 c 1,0,1
EndSplineSet
EndChar

StartChar: uniE006
Encoding: 57350 57350 41
Width: 454
GlyphClass: 1
Flags: W
LayerCount: 2
Fore
SplineSet
0 -242 m 1,0,1
 22 -187 22 -187 83 -126 c 0,2,3
 119 -90 119 -90 159 -66 c 0,4,5
 179 -54 179 -54 216 -35 c 256,6,7
 253 -16 253 -16 275 -12 c 2,8,9
 275 -12 275 -12 303 -6 c 1,10,-1
 335 -3 l 1,11,-1
 369 -2 l 1,12,-1
 453 -2 l 1,13,-1
 453 -96 l 1,14,-1
 352 -96 l 1,15,-1
 300 -102 l 2,16,17
 198 -114 198 -114 129 -154 c 0,18,19
 65 -191 65 -191 22 -250 c 1,20,21
 22 -250 22 -250 0 -242 c 1,0,1
EndSplineSet
EndChar

StartChar: uniE007
Encoding: 57351 57351 42
Width: 1058
GlyphClass: 1
Flags: W
LayerCount: 2
Fore
SplineSet
1058 448 m 2,0,1
 1058 442 1058 442 1043 433 c 2,2,-1
 12 -68 l 2,3,4
 7 -68 7 -68 3 -63 c 0,5,6
 0 -58 0 -58 0 -52 c 2,7,-1
 0 160 l 2,8,9
 0 175 0 175 15 183 c 2,10,-1
 1043 683 l 2,11,12
 1044 684 1044 684 1047 684 c 0,13,14
 1052 684 1052 684 1055 679 c 256,15,16
 1058 674 1058 674 1058 668 c 2,17,-1
 1058 448 l 2,0,1
1058 824 m 2,18,19
 1058 815 1058 815 1043 809 c 2,20,-1
 15 309 l 2,21,22
 14 308 14 308 11 308 c 0,23,24
 7 308 7 308 3 313 c 0,25,26
 0 318 0 318 0 324 c 2,27,-1
 0 536 l 2,28,29
 0 551 0 551 15 559 c 2,30,-1
 1043 1059 l 2,31,32
 1044 1060 1044 1060 1047 1060 c 0,33,34
 1052 1060 1052 1060 1055 1055 c 256,35,36
 1058 1050 1058 1050 1058 1044 c 2,37,-1
 1058 824 l 2,18,19
EndSplineSet
EndChar

StartChar: uniE008
Encoding: 57352 57352 43
Width: 1561
GlyphClass: 1
Flags: W
LayerCount: 2
Fore
SplineSet
1563 456 m 2,0,1
 1563 439 1563 439 1544 431 c 2,2,-1
 34 -59 l 2,3,4
 31 -60 31 -60 26 -60 c 0,5,6
 1 -60 1 -60 1 -36 c 2,7,-1
 1 138 l 2,8,9
 1 157 1 157 20 163 c 2,10,-1
 1530 653 l 2,11,12
 1533 654 1533 654 1538 654 c 0,13,14
 1563 654 1563 654 1563 630 c 2,15,-1
 1563 456 l 2,0,1
1563 850 m 2,16,17
 1563 831 1563 831 1544 826 c 2,18,-1
 33 336 l 2,19,20
 30 335 30 335 25 335 c 0,21,22
 0 335 0 335 0 359 c 2,23,-1
 0 533 l 2,24,25
 0 552 0 552 20 559 c 2,26,-1
 1530 1049 l 2,27,28
 1533 1050 1533 1050 1538 1050 c 0,29,30
 1563 1050 1563 1050 1563 1026 c 2,31,-1
 1563 850 l 2,16,17
EndSplineSet
EndChar

StartChar: uniE009
Encoding: 57353 57353 44
Width: 2319
GlyphClass: 1
Flags: W
LayerCount: 2
Fore
SplineSet
1 139 m 2,0,1
 1 149 1 149 6 159 c 0,2,3
 13 173 13 173 24 176 c 2,4,-1
 2288 665 l 2,5,6
 2291 666 2291 666 2295 666 c 0,7,8
 2319 666 2319 666 2319 630 c 2,9,-1
 2319 446 l 2,10,11
 2319 426 2319 426 2296 420 c 2,12,-1
 26 -70 l 1,13,14
 2 -70 2 -70 2 -44 c 2,15,-1
 1 139 l 2,0,1
2318 850 m 2,16,17
 2318 820 2318 820 2296 815 c 2,18,-1
 27 325 l 1,19,20
 0 325 0 325 0 360 c 2,21,-1
 0 544 l 2,22,23
 0 564 0 564 23 571 c 2,24,-1
 2288 1061 l 1,25,-1
 2293 1061 l 2,26,27
 2308 1061 2308 1061 2319 1041 c 1,28,-1
 2318 850 l 2,16,17
EndSplineSet
EndChar

StartChar: uniE00A
Encoding: 57354 57354 45
Width: 300
GlyphClass: 1
Flags: W
LayerCount: 2
Fore
SplineSet
-151 314 m 1,0,-1
 -151 439 l 1,1,-1
 149 501 l 1,2,-1
 149 376 l 1,3,-1
 -151 314 l 1,0,-1
149 190 m 1,4,-1
 -151 127 l 1,5,-1
 -151 252 l 1,6,-1
 149 315 l 1,7,-1
 149 190 l 1,4,-1
EndSplineSet
EndChar

StartChar: uniE00B
Encoding: 57355 57355 46
Width: 526
GlyphClass: 1
Flags: W
LayerCount: 2
Fore
SplineSet
526 0 m 1,0,-1
 283 65 l 1,1,-1
 359 141 l 1,2,-1
 5 495 l 2,3,4
 0 500 0 500 0 508 c 0,5,6
 0 517 0 517 5 521 c 0,7,8
 12 526 12 526 18 526 c 256,9,10
 24 526 24 526 31 521 c 2,11,-1
 385 167 l 1,12,-1
 461 243 l 1,13,-1
 526 0 l 1,0,-1
EndSplineSet
EndChar

StartChar: uniE00C
Encoding: 57356 57356 47
Width: 526
GlyphClass: 1
Flags: W
LayerCount: 2
Fore
SplineSet
461 757 m 1,0,-1
 385 833 l 1,1,-1
 31 479 l 2,2,3
 24 474 24 474 18 474 c 256,4,5
 12 474 12 474 5 479 c 0,6,7
 0 483 0 483 0 492 c 0,8,9
 0 500 0 500 5 505 c 2,10,-1
 359 859 l 1,11,-1
 283 935 l 1,12,-1
 526 1000 l 1,13,-1
 461 757 l 1,0,-1
EndSplineSet
EndChar

StartChar: uniE00D
Encoding: 57357 57357 48
Width: 526
GlyphClass: 1
Flags: W
LayerCount: 2
Fore
SplineSet
461 243 m 1,0,-1
 526 0 l 1,1,-1
 283 65 l 1,2,-1
 359 141 l 1,3,-1
 5 495 l 2,4,5
 0 500 0 500 0 509 c 256,6,7
 0 518 0 518 5 523 c 2,8,-1
 359 877 l 1,9,-1
 283 953 l 1,10,-1
 526 1018 l 1,11,-1
 461 775 l 1,12,-1
 385 851 l 1,13,-1
 42 509 l 1,14,-1
 385 167 l 1,15,-1
 461 243 l 1,0,-1
EndSplineSet
EndChar

StartChar: uniE010
Encoding: 57360 57360 49
Width: 500
GlyphClass: 1
Flags: W
LayerCount: 2
Fore
SplineSet
0 488 m 5,0,-1
 0 512 l 1,1,-1
 500 512 l 1,2,-1
 500 488 l 1,3,-1
 0 488 l 5,0,-1
EndSplineSet
EndChar

StartChar: uniE011
Encoding: 57361 57361 50
Width: 500
GlyphClass: 1
Flags: W
LayerCount: 2
Fore
SplineSet
0 363 m 5,0,-1
 0 387 l 5,1,-1
 500 387 l 5,2,-1
 500 363 l 5,3,-1
 0 363 l 5,0,-1
0 613 m 5,4,-1
 0 637 l 5,5,-1
 500 637 l 5,6,-1
 500 613 l 5,7,-1
 0 613 l 5,4,-1
0 113 m 5,8,-1
 0 137 l 5,9,-1
 500 137 l 5,10,-1
 500 113 l 5,11,-1
 0 113 l 5,8,-1
0 863 m 5,12,-1
 0 887 l 5,13,-1
 500 887 l 5,14,-1
 500 863 l 5,15,-1
 0 863 l 5,12,-1
EndSplineSet
EndChar

StartChar: uniE012
Encoding: 57362 57362 51
Width: 500
GlyphClass: 1
Flags: W
LayerCount: 2
Fore
SplineSet
0 488 m 1,0,-1
 0 512 l 1,1,-1
 500 512 l 1,2,-1
 500 488 l 1,3,-1
 0 488 l 1,0,-1
0 738 m 1,4,-1
 0 762 l 1,5,-1
 500 762 l 1,6,-1
 500 738 l 1,7,-1
 0 738 l 1,4,-1
0 238 m 1,8,-1
 0 262 l 1,9,-1
 500 262 l 1,10,-1
 500 238 l 1,11,-1
 0 238 l 1,8,-1
EndSplineSet
EndChar

StartChar: uniE013
Encoding: 57363 57363 52
Width: 500
GlyphClass: 1
Flags: W
LayerCount: 2
Fore
SplineSet
0 363 m 5,0,-1
 0 387 l 5,1,-1
 500 387 l 5,2,-1
 500 363 l 5,3,-1
 0 363 l 5,0,-1
0 613 m 5,4,-1
 0 637 l 5,5,-1
 500 637 l 5,6,-1
 500 613 l 5,7,-1
 0 613 l 5,4,-1
0 113 m 5,8,-1
 0 137 l 5,9,-1
 500 137 l 5,10,-1
 500 113 l 5,11,-1
 0 113 l 5,8,-1
0 863 m 5,12,-1
 0 887 l 5,13,-1
 500 887 l 5,14,-1
 500 863 l 5,15,-1
 0 863 l 5,12,-1
EndSplineSet
EndChar

StartChar: uniE014
Encoding: 57364 57364 53
Width: 500
GlyphClass: 1
Flags: W
LayerCount: 2
Fore
SplineSet
0 488 m 1,0,-1
 0 512 l 1,1,-1
 500 512 l 1,2,-1
 500 488 l 1,3,-1
 0 488 l 1,0,-1
0 738 m 1,4,-1
 0 762 l 1,5,-1
 500 762 l 1,6,-1
 500 738 l 1,7,-1
 0 738 l 1,4,-1
0 238 m 1,8,-1
 0 262 l 1,9,-1
 500 262 l 1,10,-1
 500 238 l 1,11,-1
 0 238 l 1,8,-1
0 988 m 1,12,-1
 0 1012 l 1,13,-1
 500 1012 l 1,14,-1
 500 988 l 1,15,-1
 0 988 l 1,12,-1
0 -12 m 1,16,-1
 0 12 l 1,17,-1
 500 12 l 1,18,-1
 500 -12 l 1,19,-1
 0 -12 l 1,16,-1
EndSplineSet
EndChar

StartChar: uniE015
Encoding: 57365 57365 54
Width: 500
GlyphClass: 1
Flags: W
LayerCount: 2
Fore
SplineSet
500 609 m 1,0,-1
 0 609 l 1,1,-1
 0 641 l 1,2,-1
 500 641 l 1,3,-1
 500 609 l 1,0,-1
500 859 m 1,4,-1
 0 859 l 1,5,-1
 0 891 l 1,6,-1
 500 891 l 1,7,-1
 500 859 l 1,4,-1
500 359 m 1,8,-1
 0 359 l 1,9,-1
 0 391 l 1,10,-1
 500 391 l 1,11,-1
 500 359 l 1,8,-1
500 1109 m 1,12,-1
 0 1109 l 1,13,-1
 0 1141 l 1,14,-1
 500 1141 l 1,15,-1
 500 1109 l 1,12,-1
500 109 m 1,16,-1
 0 109 l 1,17,-1
 0 141 l 1,18,-1
 500 141 l 1,19,-1
 500 109 l 1,16,-1
500 -141 m 1,20,-1
 0 -141 l 1,21,-1
 0 -109 l 1,22,-1
 500 -109 l 1,23,-1
 500 -141 l 1,20,-1
EndSplineSet
EndChar

StartChar: uniE016
Encoding: 57366 57366 55
Width: 750
GlyphClass: 1
Flags: W
LayerCount: 2
Fore
SplineSet
0 484 m 1,0,-1
 0 516 l 1,1,-1
 750 516 l 1,2,-1
 750 484 l 1,3,-1
 0 484 l 1,0,-1
EndSplineSet
EndChar

StartChar: uniE017
Encoding: 57367 57367 56
Width: 750
GlyphClass: 1
Flags: W
LayerCount: 2
Fore
SplineSet
750 359 m 1,0,-1
 0 359 l 1,1,-1
 0 391 l 1,2,-1
 750 391 l 1,3,-1
 750 359 l 1,0,-1
750 609 m 1,4,-1
 0 609 l 1,5,-1
 0 641 l 1,6,-1
 750 641 l 1,7,-1
 750 609 l 1,4,-1
EndSplineSet
EndChar

StartChar: uniE018
Encoding: 57368 57368 57
Width: 750
GlyphClass: 1
Flags: W
LayerCount: 2
Fore
SplineSet
750 484 m 1,0,-1
 0 484 l 1,1,-1
 0 516 l 1,2,-1
 750 516 l 1,3,-1
 750 484 l 1,0,-1
750 734 m 1,4,-1
 0 734 l 1,5,-1
 0 766 l 1,6,-1
 750 766 l 1,7,-1
 750 734 l 1,4,-1
750 234 m 1,8,-1
 0 234 l 1,9,-1
 0 266 l 1,10,-1
 750 266 l 1,11,-1
 750 234 l 1,8,-1
EndSplineSet
EndChar

StartChar: uniE019
Encoding: 57369 57369 58
Width: 750
GlyphClass: 1
Flags: W
LayerCount: 2
Fore
SplineSet
750 359 m 1,0,-1
 0 359 l 1,1,-1
 0 391 l 1,2,-1
 750 391 l 1,3,-1
 750 359 l 1,0,-1
750 609 m 1,4,-1
 0 609 l 1,5,-1
 0 641 l 1,6,-1
 750 641 l 1,7,-1
 750 609 l 1,4,-1
750 109 m 1,8,-1
 0 109 l 1,9,-1
 0 141 l 1,10,-1
 750 141 l 1,11,-1
 750 109 l 1,8,-1
750 859 m 1,12,-1
 0 859 l 1,13,-1
 0 891 l 1,14,-1
 750 891 l 1,15,-1
 750 859 l 1,12,-1
EndSplineSet
EndChar

StartChar: uniE01A
Encoding: 57370 57370 59
Width: 750
GlyphClass: 1
Flags: W
LayerCount: 2
Fore
SplineSet
750 484 m 1,0,-1
 0 484 l 1,1,-1
 0 516 l 1,2,-1
 750 516 l 1,3,-1
 750 484 l 1,0,-1
750 734 m 1,4,-1
 0 734 l 1,5,-1
 0 766 l 1,6,-1
 750 766 l 1,7,-1
 750 734 l 1,4,-1
750 234 m 1,8,-1
 0 234 l 1,9,-1
 0 266 l 1,10,-1
 750 266 l 1,11,-1
 750 234 l 1,8,-1
750 984 m 1,12,-1
 0 984 l 1,13,-1
 0 1016 l 1,14,-1
 750 1016 l 1,15,-1
 750 984 l 1,12,-1
750 -16 m 1,16,-1
 0 -16 l 1,17,-1
 0 16 l 1,18,-1
 750 16 l 1,19,-1
 750 -16 l 1,16,-1
EndSplineSet
EndChar

StartChar: uniE01B
Encoding: 57371 57371 60
Width: 750
GlyphClass: 1
Flags: W
LayerCount: 2
Fore
SplineSet
750 609 m 1,0,-1
 0 609 l 1,1,-1
 0 641 l 1,2,-1
 750 641 l 1,3,-1
 750 609 l 1,0,-1
750 859 m 1,4,-1
 0 859 l 1,5,-1
 0 891 l 1,6,-1
 750 891 l 1,7,-1
 750 859 l 1,4,-1
750 359 m 1,8,-1
 0 359 l 1,9,-1
 0 391 l 1,10,-1
 750 391 l 1,11,-1
 750 359 l 1,8,-1
750 1109 m 1,12,-1
 0 1109 l 1,13,-1
 0 1141 l 1,14,-1
 750 1141 l 1,15,-1
 750 1109 l 1,12,-1
750 109 m 1,16,-1
 0 109 l 1,17,-1
 0 141 l 1,18,-1
 750 141 l 1,19,-1
 750 109 l 1,16,-1
750 -141 m 1,20,-1
 0 -141 l 1,21,-1
 0 -109 l 1,22,-1
 750 -109 l 1,23,-1
 750 -141 l 1,20,-1
EndSplineSet
EndChar

StartChar: uniE01C
Encoding: 57372 57372 61
Width: 250
GlyphClass: 1
Flags: W
LayerCount: 2
Fore
SplineSet
0 484 m 1,0,-1
 0 516 l 1,1,-1
 250 516 l 1,2,-1
 250 484 l 1,3,-1
 0 484 l 1,0,-1
EndSplineSet
EndChar

StartChar: uniE01D
Encoding: 57373 57373 62
Width: 250
GlyphClass: 1
Flags: W
LayerCount: 2
Fore
SplineSet
250 359 m 1,0,-1
 0 359 l 1,1,-1
 0 391 l 1,2,-1
 250 391 l 1,3,-1
 250 359 l 1,0,-1
250 609 m 1,4,-1
 0 609 l 1,5,-1
 0 641 l 1,6,-1
 250 641 l 1,7,-1
 250 609 l 1,4,-1
EndSplineSet
EndChar

StartChar: uniE01E
Encoding: 57374 57374 63
Width: 250
GlyphClass: 1
Flags: W
LayerCount: 2
Fore
SplineSet
250 484 m 1,0,-1
 0 484 l 1,1,-1
 0 516 l 1,2,-1
 250 516 l 1,3,-1
 250 484 l 1,0,-1
250 734 m 1,4,-1
 0 734 l 1,5,-1
 0 766 l 1,6,-1
 250 766 l 1,7,-1
 250 734 l 1,4,-1
250 234 m 1,8,-1
 0 234 l 1,9,-1
 0 266 l 1,10,-1
 250 266 l 1,11,-1
 250 234 l 1,8,-1
EndSplineSet
EndChar

StartChar: uniE01F
Encoding: 57375 57375 64
Width: 250
GlyphClass: 1
Flags: W
LayerCount: 2
Fore
SplineSet
250 359 m 1,0,-1
 0 359 l 1,1,-1
 0 391 l 1,2,-1
 250 391 l 1,3,-1
 250 359 l 1,0,-1
250 609 m 1,4,-1
 0 609 l 1,5,-1
 0 641 l 1,6,-1
 250 641 l 1,7,-1
 250 609 l 1,4,-1
250 109 m 1,8,-1
 0 109 l 1,9,-1
 0 141 l 1,10,-1
 250 141 l 1,11,-1
 250 109 l 1,8,-1
250 859 m 1,12,-1
 0 859 l 1,13,-1
 0 891 l 1,14,-1
 250 891 l 1,15,-1
 250 859 l 1,12,-1
EndSplineSet
EndChar

StartChar: uniE020
Encoding: 57376 57376 65
Width: 250
GlyphClass: 1
Flags: W
LayerCount: 2
Fore
SplineSet
250 484 m 1,0,-1
 0 484 l 1,1,-1
 0 516 l 1,2,-1
 250 516 l 1,3,-1
 250 484 l 1,0,-1
250 734 m 1,4,-1
 0 734 l 1,5,-1
 0 766 l 1,6,-1
 250 766 l 1,7,-1
 250 734 l 1,4,-1
250 234 m 1,8,-1
 0 234 l 1,9,-1
 0 266 l 1,10,-1
 250 266 l 1,11,-1
 250 234 l 1,8,-1
250 984 m 1,12,-1
 0 984 l 1,13,-1
 0 1016 l 1,14,-1
 250 1016 l 1,15,-1
 250 984 l 1,12,-1
250 -16 m 1,16,-1
 0 -16 l 1,17,-1
 0 16 l 1,18,-1
 250 16 l 1,19,-1
 250 -16 l 1,16,-1
EndSplineSet
EndChar

StartChar: uniE021
Encoding: 57377 57377 66
Width: 250
GlyphClass: 1
Flags: W
LayerCount: 2
Fore
SplineSet
250 609 m 1,0,-1
 0 609 l 1,1,-1
 0 641 l 1,2,-1
 250 641 l 1,3,-1
 250 609 l 1,0,-1
250 859 m 1,4,-1
 0 859 l 1,5,-1
 0 891 l 1,6,-1
 250 891 l 1,7,-1
 250 859 l 1,4,-1
250 359 m 1,8,-1
 0 359 l 1,9,-1
 0 391 l 1,10,-1
 250 391 l 1,11,-1
 250 359 l 1,8,-1
250 1109 m 1,12,-1
 0 1109 l 1,13,-1
 0 1141 l 1,14,-1
 250 1141 l 1,15,-1
 250 1109 l 1,12,-1
250 109 m 1,16,-1
 0 109 l 1,17,-1
 0 141 l 1,18,-1
 250 141 l 1,19,-1
 250 109 l 1,16,-1
250 -141 m 1,20,-1
 0 -141 l 1,21,-1
 0 -109 l 1,22,-1
 250 -109 l 1,23,-1
 250 -141 l 1,20,-1
EndSplineSet
EndChar

StartChar: uniE022
Encoding: 57378 57378 67
Width: 332
GlyphClass: 1
Flags: W
LayerCount: 2
Fore
SplineSet
-80 -20 m 1,0,-1
 -80 20 l 1,1,-1
 412 20 l 1,2,-1
 412 -20 l 1,3,-1
 -80 -20 l 1,0,-1
EndSplineSet
EndChar

StartChar: uniE023
Encoding: 57379 57379 68
Width: 532
GlyphClass: 1
Flags: W
LayerCount: 2
Fore
SplineSet
-80 -20 m 1,0,-1
 -80 20 l 1,1,-1
 612 20 l 1,2,-1
 612 -20 l 1,3,-1
 -80 -20 l 1,0,-1
EndSplineSet
EndChar

StartChar: uniE024
Encoding: 57380 57380 69
Width: 132
GlyphClass: 1
Flags: W
LayerCount: 2
Fore
SplineSet
-80 -20 m 1,0,-1
 -80 20 l 1,1,-1
 212 20 l 1,2,-1
 212 -20 l 1,3,-1
 -80 -20 l 1,0,-1
EndSplineSet
EndChar

StartChar: uniE030
Encoding: 57392 57392 70
Width: 37
GlyphClass: 1
Flags: W
LayerCount: 2
Fore
SplineSet
37 -8 m 1,0,-1
 0 -8 l 1,1,-1
 0 1000 l 1,2,-1
 37 1000 l 1,3,-1
 37 -8 l 1,0,-1
EndSplineSet
EndChar

StartChar: uniE031
Encoding: 57393 57393 71
Width: 144
GlyphClass: 1
Flags: W
LayerCount: 2
Fore
SplineSet
0 0 m 1,0,-1
 0 1000 l 1,1,-1
 36 1000 l 1,2,-1
 36 0 l 1,3,-1
 0 0 l 1,0,-1
144 0 m 1,4,-1
 108 0 l 1,5,-1
 108 1000 l 1,6,-1
 144 1000 l 1,7,-1
 144 0 l 1,4,-1
EndSplineSet
EndChar

StartChar: uniE032
Encoding: 57394 57394 72
Width: 229
GlyphClass: 1
Flags: W
LayerCount: 2
Fore
SplineSet
0 0 m 1,0,-1
 0 1000 l 1,1,-1
 36 1000 l 1,2,-1
 36 0 l 1,3,-1
 0 0 l 1,0,-1
228 0 m 1,4,-1
 103 0 l 1,5,-1
 103 1000 l 1,6,-1
 228 1000 l 1,7,-1
 228 0 l 1,4,-1
EndSplineSet
EndChar

StartChar: uniE033
Encoding: 57395 57395 73
Width: 228
GlyphClass: 1
Flags: W
LayerCount: 2
Fore
SplineSet
192 1000 m 1,0,-1
 228 1000 l 1,1,-1
 228 0 l 1,2,-1
 192 0 l 1,3,-1
 192 1000 l 1,0,-1
0 1000 m 1,4,-1
 125 1000 l 1,5,-1
 125 0 l 1,6,-1
 0 0 l 1,7,-1
 0 1000 l 1,4,-1
EndSplineSet
EndChar

StartChar: uniE034
Encoding: 57396 57396 74
Width: 131
GlyphClass: 1
Flags: W
LayerCount: 2
Fore
SplineSet
131 -10 m 1,0,-1
 0 -10 l 1,1,-1
 0 1000 l 1,2,-1
 131 1000 l 1,3,-1
 131 -10 l 1,0,-1
EndSplineSet
EndChar

StartChar: uniE035
Encoding: 57397 57397 75
Width: 343
GlyphClass: 1
Flags: W
LayerCount: 2
Fore
SplineSet
125 0 m 1,0,-1
 0 0 l 1,1,-1
 0 1000 l 1,2,-1
 125 1000 l 1,3,-1
 125 0 l 1,0,-1
343 0 m 1,4,-1
 218 0 l 1,5,-1
 218 1000 l 1,6,-1
 343 1000 l 1,7,-1
 343 0 l 1,4,-1
EndSplineSet
EndChar

StartChar: uniE036
Encoding: 57398 57398 76
Width: 36
GlyphClass: 1
Flags: W
LayerCount: 2
Fore
SplineSet
0 875 m 1,0,-1
 0 1000 l 1,1,-1
 36 1000 l 1,2,-1
 36 875 l 1,3,-1
 0 875 l 1,0,-1
36 182 m 1,4,-1
 0 182 l 1,5,-1
 0 471 l 1,6,-1
 36 471 l 1,7,-1
 36 182 l 1,4,-1
36 528 m 1,8,-1
 0 528 l 1,9,-1
 0 817 l 1,10,-1
 36 817 l 1,11,-1
 36 528 l 1,8,-1
36 0 m 1,12,-1
 0 0 l 1,13,-1
 0 125 l 1,14,-1
 36 125 l 1,15,-1
 36 0 l 1,12,-1
EndSplineSet
EndChar

StartChar: uniE037
Encoding: 57399 57399 77
Width: 49
GlyphClass: 1
Flags: W
LayerCount: 2
Fore
SplineSet
49 23 m 256,0,1
 49 13 49 13 41.5 6 c 128,-1,2
 34 -1 34 -1 25 -1 c 0,3,4
 15 -1 15 -1 7.5 6 c 128,-1,5
 0 13 0 13 0 23 c 256,6,7
 0 33 0 33 7 40.5 c 128,-1,8
 14 48 14 48 25 48 c 0,9,10
 35 48 35 48 42 40.5 c 128,-1,11
 49 33 49 33 49 23 c 256,0,1
49 109 m 256,12,13
 49 99 49 99 41.5 92 c 128,-1,14
 34 85 34 85 25 85 c 0,15,16
 15 85 15 85 7.5 92 c 128,-1,17
 0 99 0 99 0 109 c 256,18,19
 0 119 0 119 7 126.5 c 128,-1,20
 14 134 14 134 25 134 c 0,21,22
 35 134 35 134 42 126.5 c 128,-1,23
 49 119 49 119 49 109 c 256,12,13
49 196 m 256,24,25
 49 186 49 186 41.5 179 c 128,-1,26
 34 172 34 172 25 172 c 0,27,28
 15 172 15 172 7.5 179 c 128,-1,29
 0 186 0 186 0 196 c 256,30,31
 0 206 0 206 7 213.5 c 128,-1,32
 14 221 14 221 25 221 c 0,33,34
 35 221 35 221 42 213.5 c 128,-1,35
 49 206 49 206 49 196 c 256,24,25
49 282 m 256,36,37
 49 272 49 272 41.5 265 c 128,-1,38
 34 258 34 258 25 258 c 0,39,40
 15 258 15 258 7.5 265 c 128,-1,41
 0 272 0 272 0 282 c 256,42,43
 0 292 0 292 7 299.5 c 128,-1,44
 14 307 14 307 25 307 c 0,45,46
 35 307 35 307 42 299.5 c 128,-1,47
 49 292 49 292 49 282 c 256,36,37
49 368 m 256,48,49
 49 358 49 358 41.5 351 c 128,-1,50
 34 344 34 344 25 344 c 0,51,52
 15 344 15 344 7.5 351 c 128,-1,53
 0 358 0 358 0 368 c 256,54,55
 0 378 0 378 7 385.5 c 128,-1,56
 14 393 14 393 25 393 c 0,57,58
 35 393 35 393 42 385.5 c 128,-1,59
 49 378 49 378 49 368 c 256,48,49
49 453 m 256,60,61
 49 443 49 443 41.5 436 c 128,-1,62
 34 429 34 429 25 429 c 0,63,64
 15 429 15 429 7.5 436 c 128,-1,65
 0 443 0 443 0 453 c 256,66,67
 0 463 0 463 7 470.5 c 128,-1,68
 14 478 14 478 25 478 c 0,69,70
 35 478 35 478 42 470.5 c 128,-1,71
 49 463 49 463 49 453 c 256,60,61
49 540 m 256,72,73
 49 530 49 530 41.5 523 c 128,-1,74
 34 516 34 516 25 516 c 0,75,76
 15 516 15 516 7.5 523 c 128,-1,77
 0 530 0 530 0 540 c 256,78,79
 0 550 0 550 7 557.5 c 128,-1,80
 14 565 14 565 25 565 c 0,81,82
 35 565 35 565 42 557.5 c 128,-1,83
 49 550 49 550 49 540 c 256,72,73
49 626 m 256,84,85
 49 616 49 616 41.5 609 c 128,-1,86
 34 602 34 602 25 602 c 0,87,88
 15 602 15 602 7.5 609 c 128,-1,89
 0 616 0 616 0 626 c 256,90,91
 0 636 0 636 7 643.5 c 128,-1,92
 14 651 14 651 25 651 c 0,93,94
 35 651 35 651 42 643.5 c 128,-1,95
 49 636 49 636 49 626 c 256,84,85
49 713 m 256,96,97
 49 703 49 703 41.5 696 c 128,-1,98
 34 689 34 689 25 689 c 0,99,100
 15 689 15 689 7.5 696 c 128,-1,101
 0 703 0 703 0 713 c 256,102,103
 0 723 0 723 7 730.5 c 128,-1,104
 14 738 14 738 25 738 c 0,105,106
 35 738 35 738 42 730.5 c 128,-1,107
 49 723 49 723 49 713 c 256,96,97
49 798 m 256,108,109
 49 788 49 788 41.5 781 c 128,-1,110
 34 774 34 774 25 774 c 0,111,112
 15 774 15 774 7.5 781 c 128,-1,113
 0 788 0 788 0 798 c 256,114,115
 0 808 0 808 7 815.5 c 128,-1,116
 14 823 14 823 25 823 c 0,117,118
 35 823 35 823 42 815.5 c 128,-1,119
 49 808 49 808 49 798 c 256,108,109
49 885 m 256,120,121
 49 875 49 875 41.5 868 c 128,-1,122
 34 861 34 861 25 861 c 0,123,124
 15 861 15 861 7.5 868 c 128,-1,125
 0 875 0 875 0 885 c 256,126,127
 0 895 0 895 7 902.5 c 128,-1,128
 14 910 14 910 25 910 c 0,129,130
 35 910 35 910 42 902.5 c 128,-1,131
 49 895 49 895 49 885 c 256,120,121
49 971 m 256,132,133
 49 961 49 961 41.5 954 c 128,-1,134
 34 947 34 947 25 947 c 0,135,136
 15 947 15 947 7.5 954 c 128,-1,137
 0 961 0 961 0 971 c 256,138,139
 0 981 0 981 7 988.5 c 128,-1,140
 14 996 14 996 25 996 c 0,141,142
 35 996 35 996 42 988.5 c 128,-1,143
 49 981 49 981 49 971 c 256,132,133
EndSplineSet
EndChar

StartChar: uniE038
Encoding: 57400 57400 78
Width: 37
GlyphClass: 1
Flags: W
LayerCount: 2
Fore
SplineSet
1 500 m 1,0,-1
 1 1000 l 1,1,-1
 37 1000 l 1,2,-1
 37 500 l 1,3,-1
 1 500 l 1,0,-1
EndSplineSet
EndChar

StartChar: uniE039
Encoding: 57401 57401 79
Width: 36
GlyphClass: 1
Flags: W
LayerCount: 2
Fore
SplineSet
0 868 m 1,0,-1
 0 1120 l 1,1,-1
 36 1120 l 1,2,-1
 36 868 l 1,3,-1
 0 868 l 1,0,-1
EndSplineSet
EndChar

StartChar: uniE040
Encoding: 57408 57408 80
Width: 450
GlyphClass: 1
Flags: W
HStem: 0 21G<0 150 213 252> 310 130<343.564 430.92> 560 130<343.564 430.92>
VStem: 0 150<0 1000> 213 39<0 1000> 324 126<329.596 420.404 579.596 670.404>
LayerCount: 2
Fore
SplineSet
324 625 m 0,0,1
 325 652 325 652 343 671 c 128,-1,2
 361 690 361 690 387 690 c 128,-1,3
 413 690 413 690 431 671 c 0,4,5
 450 652 450 652 450 625 c 128,-1,6
 450 598 450 598 431.5 579 c 128,-1,7
 413 560 413 560 387 560 c 128,-1,8
 361 560 361 560 343 579 c 128,-1,9
 325 598 325 598 324 625 c 0,0,1
324 375 m 0,10,11
 325 402 325 402 343 421 c 128,-1,12
 361 440 361 440 387 440 c 128,-1,13
 413 440 413 440 431 421 c 0,14,15
 450 402 450 402 450 375 c 128,-1,16
 450 348 450 348 431.5 329 c 128,-1,17
 413 310 413 310 387 310 c 128,-1,18
 361 310 361 310 343 329 c 128,-1,19
 325 348 325 348 324 375 c 0,10,11
0 0 m 1,20,-1
 0 1000 l 1,21,-1
 150 1000 l 1,22,-1
 150 0 l 1,23,-1
 0 0 l 1,20,-1
213 0 m 1,24,-1
 213 1000 l 1,25,-1
 252 1000 l 1,26,-1
 252 0 l 1,27,-1
 213 0 l 1,24,-1
EndSplineSet
EndChar

StartChar: uniE042
Encoding: 57410 57410 81
Width: 608
GlyphClass: 1
Flags: W
LayerCount: 2
Fore
SplineSet
508 622 m 256,1,2
 508 672 508 672 558 672 c 256,3,4
 608 672 608 672 608 622 c 256,5,6
 608 572 608 572 558 572 c 256,7,0
 508 572 508 572 508 622 c 256,1,2
508 370 m 256,9,10
 508 420 508 420 558 420 c 256,11,12
 608 420 608 420 608 370 c 256,13,14
 608 320 608 320 558 320 c 256,15,8
 508 320 508 320 508 370 c 256,9,10
434 1000 m 1,16,-1
 470 1000 l 1,17,-1
 470 0 l 1,18,-1
 434 0 l 1,19,-1
 434 1000 l 1,16,-1
101 378 m 256,21,22
 101 328 101 328 51 328 c 256,23,24
 1 328 1 328 1 378 c 256,25,26
 1 428 1 428 51 428 c 256,27,20
 101 428 101 428 101 378 c 256,21,22
101 630 m 256,29,30
 101 580 101 580 51 580 c 256,31,32
 1 580 1 580 1 630 c 256,33,34
 1 680 1 680 51 680 c 256,35,28
 101 680 101 680 101 630 c 256,29,30
367 0 m 1,36,-1
 242 0 l 1,37,-1
 242 1000 l 5,38,-1
 367 1000 l 1,39,-1
 367 0 l 1,36,-1
139 0 m 1,40,-1
 139 1000 l 1,41,-1
 175 1000 l 1,42,-1
 175 0 l 1,43,-1
 139 0 l 1,40,-1
EndSplineSet
EndChar

StartChar: uniE043
Encoding: 57411 57411 82
Width: 126
GlyphClass: 1
Flags: W
LayerCount: 2
Fore
SplineSet
126 624 m 0,0,1
 126 599 126 599 107 580 c 128,-1,2
 88 561 88 561 63 561 c 256,3,4
 38 561 38 561 19 580 c 128,-1,5
 0 599 0 599 0 624 c 0,6,7
 0 650 0 650 18.5 669 c 128,-1,8
 37 688 37 688 63 688 c 256,9,10
 89 688 89 688 107.5 669 c 128,-1,11
 126 650 126 650 126 624 c 0,0,1
126 362 m 0,12,13
 126 337 126 337 107 318 c 128,-1,14
 88 299 88 299 63 299 c 256,15,16
 38 299 38 299 19 318 c 128,-1,17
 0 337 0 337 0 362 c 4,18,19
 0 388 0 388 18.5 407 c 128,-1,20
 37 426 37 426 63 426 c 256,21,22
 89 426 89 426 107.5 407 c 128,-1,23
 126 388 126 388 126 362 c 0,12,13
EndSplineSet
EndChar

StartChar: uniE044
Encoding: 57412 57412 83
Width: 126
GlyphClass: 1
Flags: W
HStem: -65 130<19.5645 106.92>
VStem: 0 126<-45.4043 45.4043>
LayerCount: 2
Fore
SplineSet
0 0 m 4,0,1
 1 27 1 27 19 46 c 132,-1,2
 37 65 37 65 63 65 c 132,-1,3
 89 65 89 65 107 46 c 4,4,5
 126 27 126 27 126 0 c 132,-1,6
 126 -27 126 -27 107.5 -46 c 132,-1,7
 89 -65 89 -65 63 -65 c 132,-1,8
 37 -65 37 -65 19 -46 c 132,-1,9
 1 -27 1 -27 0 0 c 4,0,1
EndSplineSet
EndChar

StartChar: uniE045
Encoding: 57413 57413 84
Width: 963
GlyphClass: 1
Flags: W
LayerCount: 2
Fore
SplineSet
355 32 m 0,1,2
 307 -1 307 -1 210 -1 c 2,3,-1
 11 -1 l 1,4,-1
 11 28 l 1,5,-1
 19 28 l 2,6,7
 56 28 56 28 64 36 c 0,8,9
 67 40 67 40 68 46 c 2,10,-1
 68 343 l 2,11,12
 67 348 67 348 64 352 c 0,13,14
 56 360 56 360 19 360 c 2,15,-1
 11 360 l 1,16,-1
 11 389 l 1,17,-1
 204 389 l 2,18,19
 309 389 309 389 352 360 c 0,20,21
 430 309 430 309 430 198 c 0,22,0
 430 85 430 85 355 32 c 0,1,2
211 360 m 2,24,-1
 197 360 l 2,25,26
 165 360 165 360 165 328 c 2,27,-1
 165 63 l 2,28,29
 165 28 165 28 197 28 c 2,30,-1
 208 28 l 2,31,32
 322 28 322 28 322 200 c 0,33,23
 322 360 322 360 211 360 c 2,24,-1
816 27 m 0,35,36
 775 -9 775 -9 712 -9 c 0,37,38
 651 -9 651 -9 602 27 c 1,39,-1
 568 -4 l 1,40,-1
 540 -4 l 1,41,-1
 540 149 l 1,42,-1
 568 149 l 1,43,44
 616 19 616 19 712 19 c 0,45,46
 791 19 791 19 791 82 c 0,47,48
 791 113 791 113 766 125 c 0,49,50
 754 131 754 131 728 137 c 0,51,52
 725 137 725 137 723 138 c 0,53,54
 722 139 722 139 719 139 c 2,55,-1
 716 140 l 2,56,57
 715 140 715 140 712 140 c 2,58,-1
 674 149 l 1,59,60
 541 173 541 173 541 276 c 0,61,62
 541 330 541 330 580 364 c 0,63,64
 619 397 619 397 681 397 c 0,65,66
 737 397 737 397 778 368 c 1,67,-1
 807 392 l 1,68,-1
 837 392 l 1,69,-1
 837 253 l 1,70,-1
 809 253 l 1,71,72
 760 369 760 369 676 369 c 0,73,74
 603 369 603 369 603 312 c 0,75,76
 603 279 603 279 640 266 c 0,77,78
 647 263 647 263 657 261 c 2,79,-1
 682 257 l 1,80,-1
 721 247 l 1,81,82
 855 218 855 218 855 120 c 0,83,34
 855 63 855 63 816 27 c 0,35,36
419 45 m 256,84,85
 419 65 419 65 432.5 77.5 c 128,-1,86
 446 90 446 90 466 90 c 0,87,88
 485 90 485 90 498.5 77 c 128,-1,89
 512 64 512 64 512 45 c 256,90,91
 512 26 512 26 498.5 12.5 c 128,-1,92
 485 -1 485 -1 466 -1 c 0,93,94
 446 -1 446 -1 432.5 12 c 128,-1,95
 419 25 419 25 419 45 c 256,84,85
869 45 m 256,96,97
 869 65 869 65 882.5 77.5 c 128,-1,98
 896 90 896 90 916 90 c 0,99,100
 935 90 935 90 949 77 c 128,-1,101
 963 64 963 64 963 45 c 256,102,103
 963 26 963 26 949 12.5 c 128,-1,104
 935 -1 935 -1 916 -1 c 0,105,106
 896 -1 896 -1 882.5 12 c 128,-1,107
 869 25 869 25 869 45 c 256,96,97
EndSplineSet
EndChar

StartChar: uniE046
Encoding: 57414 57414 85
Width: 976
GlyphClass: 1
Flags: W
LayerCount: 2
Fore
SplineSet
357 33 m 0,1,2
 309 -1 309 -1 211 -1 c 2,3,-1
 11 -1 l 1,4,-1
 11 28 l 1,5,-1
 19 28 l 2,6,7
 56 28 56 28 64 36 c 0,8,9
 67 40 67 40 68 46 c 2,10,-1
 68 345 l 2,11,12
 67 350 67 350 64 354 c 0,13,14
 56 362 56 362 19 362 c 2,15,-1
 11 362 l 1,16,-1
 11 391 l 1,17,-1
 205 391 l 2,18,19
 310 391 310 391 354 362 c 0,20,21
 432 310 432 310 432 199 c 0,22,0
 432 85 432 85 357 33 c 0,1,2
212 362 m 2,24,-1
 198 362 l 2,25,26
 166 362 166 362 166 329 c 2,27,-1
 166 63 l 2,28,29
 166 28 166 28 198 28 c 2,30,-1
 209 28 l 2,31,32
 323 28 323 28 323 201 c 0,33,23
 323 362 323 362 212 362 c 2,24,-1
882 135 m 1,34,35
 851 -9 851 -9 710 -9 c 0,36,37
 616 -9 616 -9 563 51 c 0,38,39
 511 110 511 110 511 190 c 0,40,41
 511 281 511 281 569 340 c 256,42,43
 627 399 627 399 717 399 c 0,44,45
 768 399 768 399 816 370 c 1,46,-1
 845 397 l 1,47,-1
 874 397 l 1,48,-1
 874 242 l 1,49,-1
 845 239 l 1,50,51
 810 371 810 371 721 371 c 0,52,53
 619 371 619 371 619 200 c 0,54,55
 619 24 619 24 727 24 c 0,56,57
 824 24 824 24 849 143 c 1,58,-1
 882 135 l 1,34,35
421 45 m 256,59,60
 421 65 421 65 434.5 78 c 128,-1,61
 448 91 448 91 468 91 c 0,62,63
 487 91 487 91 501 77.5 c 128,-1,64
 515 64 515 64 515 45 c 256,65,66
 515 26 515 26 501 12.5 c 128,-1,67
 487 -1 487 -1 468 -1 c 0,68,69
 448 -1 448 -1 434.5 12 c 128,-1,70
 421 25 421 25 421 45 c 256,59,60
882 45 m 256,71,72
 882 65 882 65 895.5 78 c 128,-1,73
 909 91 909 91 929 91 c 0,74,75
 948 91 948 91 962 77.5 c 128,-1,76
 976 64 976 64 976 45 c 256,77,78
 976 26 976 26 962 12.5 c 128,-1,79
 948 -1 948 -1 929 -1 c 0,80,81
 909 -1 909 -1 895.5 12 c 128,-1,82
 882 25 882 25 882 45 c 256,71,72
EndSplineSet
EndChar

StartChar: uniE047
Encoding: 57415 57415 86
Width: 553
GlyphClass: 1
Flags: W
LayerCount: 2
Fore
SplineSet
511 427 m 256,0,1
 511 407 511 407 496.5 393 c 128,-1,2
 482 379 482 379 462 379 c 0,3,4
 441 379 441 379 427 392.5 c 128,-1,5
 413 406 413 406 413 427 c 256,6,7
 413 448 413 448 427 462 c 128,-1,8
 441 476 441 476 462 476 c 0,9,10
 482 476 482 476 496.5 461.5 c 128,-1,11
 511 447 511 447 511 427 c 256,0,1
554 694 m 1,12,-1
 334 392 l 1,13,14
 429 342 429 342 471 303 c 0,15,16
 537 241 537 241 537 168 c 0,17,18
 537 105 537 105 491 55 c 0,19,20
 444 0 444 0 375 0 c 0,21,22
 325 0 325 0 287 22 c 0,23,24
 243 45 243 45 237 88 c 1,25,26
 237 143 237 143 301 153 c 1,27,28
 339 153 339 153 354 127 c 1,29,30
 362 103 362 103 370 80 c 0,31,32
 383 55 383 55 411 55 c 0,33,34
 438 55 438 55 455 79 c 0,35,36
 470 100 470 100 470 127 c 0,37,38
 470 179 470 179 394 227 c 1,39,-1
 263 291 l 1,40,-1
 61 0 l 1,41,-1
 1 0 l 1,42,-1
 215 310 l 1,43,44
 115 361 115 361 72 398 c 0,45,46
 0 460 0 460 0 533 c 0,47,48
 0 597 0 597 46 646 c 0,49,50
 93 700 93 700 163 700 c 0,51,52
 212 700 212 700 250 678 c 0,53,54
 293 654 293 654 300 612 c 1,55,56
 296 548 296 548 237 547 c 0,57,58
 183 547 183 547 174 601 c 0,59,60
 166 645 166 645 127 645 c 0,61,62
 100 645 100 645 83.5 622 c 128,-1,63
 67 599 67 599 67 573 c 0,64,65
 67 521 67 521 149 474 c 1,66,-1
 286 411 l 1,67,-1
 491 694 l 1,68,-1
 554 694 l 1,12,-1
99 252 m 0,69,70
 99 233 99 233 84 218 c 128,-1,71
 69 203 69 203 50 203 c 0,72,73
 30 203 30 203 15.5 217.5 c 128,-1,74
 1 232 1 232 1 252 c 0,75,76
 1 273 1 273 14.5 286.5 c 128,-1,77
 28 300 28 300 49 300 c 0,78,79
 69 300 69 300 84 286 c 128,-1,80
 99 272 99 272 99 252 c 0,69,70
EndSplineSet
EndChar

StartChar: uniE048
Encoding: 57416 57416 87
Width: 499
GlyphClass: 1
Flags: W
LayerCount: 2
Fore
SplineSet
500 201 m 1,0,-1
 435 201 l 1,1,2
 435 178 435 178 420.5 138.5 c 128,-1,3
 406 99 406 99 392 79 c 0,4,5
 345 16 345 16 269 1 c 1,6,-1
 269 -62 l 1,7,-1
 231 -62 l 1,8,-1
 231 1 l 1,9,10
 159 14 159 14 108 79 c 0,11,12
 91 101 91 101 78 138 c 128,-1,13
 65 175 65 175 65 201 c 1,14,-1
 0 201 l 1,15,-1
 0 236 l 1,16,-1
 65 236 l 1,17,18
 65 261 65 261 79 299 c 128,-1,19
 93 337 93 337 108 358 c 0,20,21
 157 421 157 421 231 436 c 1,22,-1
 231 499 l 1,23,-1
 269 499 l 1,24,-1
 269 436 l 1,25,26
 343 423 343 423 392 358 c 0,27,28
 405 340 405 340 420 299 c 128,-1,29
 435 258 435 258 435 236 c 1,30,-1
 500 236 l 1,31,-1
 500 201 l 1,0,-1
344 237 m 1,32,33
 344 264 344 264 334 336 c 1,34,35
 316 403 316 403 269 403 c 1,36,-1
 269 237 l 1,37,-1
 344 237 l 1,32,33
231 237 m 1,38,-1
 231 403 l 1,39,40
 209 403 209 403 191 383.5 c 128,-1,41
 173 364 173 364 167 341 c 0,42,43
 156 297 156 297 156 237 c 1,44,-1
 231 237 l 1,38,-1
344 203 m 1,45,-1
 269 203 l 1,46,-1
 269 37 l 1,47,48
 291 37 291 37 309 56.5 c 128,-1,49
 327 76 327 76 333 99 c 0,50,51
 344 144 344 144 344 203 c 1,45,-1
231 37 m 1,52,-1
 231 203 l 1,53,-1
 156 203 l 1,54,55
 156 163 156 163 166 104 c 0,56,57
 170 79 170 79 187 59 c 0,58,59
 207 37 207 37 231 37 c 1,52,-1
EndSplineSet
EndChar

StartChar: uniE049
Encoding: 57417 57417 88
Width: 819
GlyphClass: 1
Flags: W
LayerCount: 2
Fore
SplineSet
607 302 m 1,0,-1
 607 265 l 1,1,-1
 514 265 l 1,2,-1
 514 -2 l 1,3,-1
 329 -2 l 1,4,-1
 329 -96 l 1,5,-1
 293 -96 l 1,6,-1
 293 -2 l 1,7,-1
 108 -2 l 1,8,-1
 108 265 l 1,9,-1
 16 265 l 1,10,-1
 16 302 l 1,11,-1
 108 302 l 1,12,-1
 108 555 l 1,13,-1
 293 555 l 1,14,-1
 293 662 l 1,15,-1
 329 662 l 1,16,-1
 329 555 l 1,17,-1
 514 555 l 1,18,-1
 514 302 l 1,19,-1
 607 302 l 1,0,-1
329 517 m 1,20,-1
 329 302 l 1,21,-1
 416 302 l 1,22,-1
 416 517 l 1,23,-1
 329 517 l 1,20,-1
206 302 m 1,24,-1
 293 302 l 1,25,-1
 293 517 l 1,26,-1
 206 517 l 1,27,-1
 206 302 l 1,24,-1
293 35 m 1,28,-1
 293 265 l 1,29,-1
 206 265 l 1,30,-1
 206 35 l 1,31,-1
 293 35 l 1,28,-1
416 265 m 1,32,-1
 329 265 l 1,33,-1
 329 35 l 1,34,-1
 409 35 l 2,35,36
 416 35 416 35 416 47 c 2,37,-1
 416 265 l 1,32,-1
EndSplineSet
EndChar

StartChar: uniE04A
Encoding: 57418 57418 89
Width: 402
GlyphClass: 1
Flags: W
LayerCount: 2
Fore
SplineSet
207 1031 m 2,0,1
 256 1030 256 1030 305 1008 c 0,2,3
 370 980 370 980 370 935 c 0,4,5
 370 899 370 899 352 884 c 0,6,7
 338 873 338 873 314 873 c 0,8,9
 268 873 268 873 246 926 c 0,10,11
 236 950 236 950 205 967 c 0,12,13
 193 973 193 973 181 977 c 0,14,15
 170 980 170 980 164 980 c 0,16,17
 154 980 154 980 143 978 c 0,18,19
 129 975 129 975 118 969 c 0,20,21
 88 954 88 954 88 921 c 0,22,23
 88 890 88 890 145 849 c 0,24,25
 165 833 165 833 194 816 c 2,26,-1
 228 796 l 1,27,-1
 271 773 l 2,28,29
 277 770 277 770 281 767 c 2,30,-1
 303 754 l 2,31,32
 330 737 330 737 350 720 c 0,33,34
 403 675 403 675 403 631 c 0,35,36
 403 583 403 583 385 550 c 0,37,38
 378 539 378 539 368 527 c 0,39,40
 366 524 366 524 361 519 c 2,41,-1
 354 511 l 2,42,43
 346 500 346 500 346 494 c 0,44,45
 346 490 346 490 349 486 c 2,46,-1
 361 471 l 1,47,-1
 380 439 l 2,48,49
 396 405 396 405 396 371 c 0,50,51
 396 336 396 336 371 300 c 0,52,53
 363 288 363 288 352 276 c 2,54,-1
 338 261 l 2,55,56
 332 254 332 254 332 245 c 0,57,58
 332 238 332 238 339 229 c 2,59,-1
 352 213 l 2,60,61
 360 204 360 204 367 193 c 0,62,63
 384 162 384 162 384 127 c 2,64,-1
 384 118 l 1,65,66
 380 59 380 59 344 19 c 0,67,68
 297 -33 297 -33 207 -33 c 0,69,70
 161 -33 161 -33 125 -20 c 0,71,72
 94 -9 94 -9 72 11 c 0,73,74
 54 28 54 28 43 48 c 0,75,76
 35 66 35 66 35 79 c 0,77,78
 35 133 35 133 84 133 c 0,79,80
 118 133 118 133 145 94 c 1,81,-1
 154 77 l 2,82,83
 156 73 156 73 158 71 c 0,84,85
 167 52 167 52 176 40 c 0,86,87
 203 3 203 3 237 3 c 0,88,89
 274 3 274 3 295 27 c 0,90,91
 312 47 312 47 313 76 c 0,92,93
 313 98 313 98 273 137 c 0,94,95
 240 170 240 170 202 194 c 0,96,97
 198 197 198 197 192 200 c 2,98,-1
 174 210 l 2,99,100
 169 213 169 213 166 214 c 0,101,102
 158 219 158 219 151 222 c 0,103,104
 111 245 111 245 85 266 c 0,105,106
 47 294 47 294 27 325 c 0,107,108
 2 362 2 362 2 403 c 0,109,110
 2 431 2 431 21 470 c 0,111,112
 27 483 27 483 36 496 c 2,113,-1
 49 518 l 2,114,115
 51 521 51 521 51 524 c 0,116,117
 51 530 51 530 42 540 c 0,118,119
 29 555 29 555 20 576 c 0,120,121
 6 606 6 606 6 636 c 0,122,123
 6 667 6 667 27 702 c 0,124,125
 44 729 44 729 60 740 c 0,126,127
 69 746 69 746 69 755 c 0,128,129
 69 762 69 762 63 769 c 2,130,-1
 55 778 l 2,131,132
 51 782 51 782 49 786 c 0,133,134
 41 797 41 797 35 809 c 0,135,136
 19 842 19 842 19 883 c 0,137,138
 19 940 19 940 65 983 c 0,139,140
 117 1031 117 1031 202 1031 c 2,141,-1
 207 1031 l 2,0,1
303 532 m 0,143,144
 322 532 322 532 335 556 c 0,145,146
 338 560 338 560 339 566 c 0,147,148
 340 570 340 570 340 575 c 0,149,150
 340 598 340 598 321 611 c 0,151,152
 317 615 317 615 288 630 c 2,153,-1
 134 708 l 2,154,155
 130 711 130 711 121 711 c 0,156,157
 96 711 96 711 78 684 c 0,158,159
 73 674 73 674 73 668 c 0,160,161
 73 651 73 651 93 634 c 2,162,-1
 117 617 l 1,163,-1
 147 600 l 1,164,-1
 249 549 l 2,165,166
 276 537 276 537 285 535 c 0,167,142
 296 532 296 532 303 532 c 0,143,144
293 286 m 2,168,169
 315 286 315 286 327 312 c 0,170,171
 332 321 332 321 332 331 c 0,172,173
 332 355 332 355 312 371 c 0,174,175
 307 375 307 375 277 391 c 2,176,-1
 118 475 l 2,177,178
 112 479 112 479 102 479 c 0,179,180
 76 479 76 479 58 449 c 0,181,182
 53 441 53 441 53 433 c 0,183,184
 53 416 53 416 74 397 c 2,185,-1
 83 389 l 1,186,-1
 109 371 l 1,187,-1
 182 332 l 2,188,189
 215 315 215 315 238 304 c 2,190,-1
 261 294 l 2,191,192
 271 289 271 289 276 288 c 2,193,-1
 293 286 l 2,168,169
EndSplineSet
EndChar

StartChar: uniE04B
Encoding: 57419 57419 90
Width: 402
GlyphClass: 1
Flags: W
LayerCount: 2
Fore
SplineSet
370 301 m 0,1,2
 362 290 362 290 350 276 c 2,3,-1
 337 261 l 2,4,5
 331 252 331 252 331 245 c 256,6,7
 331 238 331 238 338 229 c 2,8,-1
 355 208 l 2,9,10
 359 202 359 202 362 196 c 0,11,12
 382 163 382 163 382 126 c 2,13,-1
 382 119 l 2,14,15
 379 60 379 60 343 19 c 0,16,17
 296 -33 296 -33 206 -33 c 0,18,19
 160 -33 160 -33 123 -20 c 0,20,21
 93 -8 93 -8 71 12 c 0,22,23
 52 29 52 29 42 49 c 0,24,25
 34 66 34 66 34 80 c 0,26,27
 34 134 34 134 83 134 c 0,28,29
 117 134 117 134 143 95 c 1,30,-1
 156 71 l 2,31,32
 166 52 166 52 174 40 c 0,33,34
 201 3 201 3 235 3 c 0,35,36
 273 3 273 3 294 27 c 0,37,38
 311 47 311 47 312 75 c 1,39,-1
 297 112 l 2,40,41
 288 128 288 128 280 137 c 0,42,43
 270 149 270 149 260 149 c 0,44,45
 255 149 255 149 255 145 c 0,46,47
 255 131 255 131 240 131 c 0,48,49
 235 131 235 131 230 135 c 0,50,51
 226 140 226 140 226 145 c 2,52,-1
 226 169 l 2,53,54
 226 172 226 172 223 176 c 2,55,-1
 217 183 l 1,56,-1
 201 194 l 2,57,58
 197 194 197 194 197 196 c 1,59,60
 195 196 195 196 192 194 c 0,61,62
 189 191 189 191 189 188 c 2,63,-1
 189 145 l 2,64,65
 189 140 189 140 184 135 c 0,66,67
 179 131 179 131 174 131 c 0,68,69
 168 131 168 131 164 135 c 0,70,71
 160 140 160 140 160 145 c 2,72,-1
 160 206 l 2,73,74
 160 210 160 210 153 217 c 0,75,76
 149 223 149 223 143 227 c 0,77,78
 115 243 115 243 94 258 c 0,79,80
 67 277 67 277 48 297 c 0,81,82
 1 346 1 346 1 404 c 0,83,84
 1 432 1 432 21 470 c 0,85,86
 27 483 27 483 36 497 c 2,87,-1
 45 512 l 2,88,89
 50 520 50 520 50 525 c 0,90,91
 50 532 50 532 42 541 c 0,92,93
 29 556 29 556 19 576 c 0,94,95
 4 606 4 606 4 636 c 0,96,97
 4 667 4 667 26 702 c 0,98,99
 44 730 44 730 60 740 c 0,100,101
 68 745 68 745 68 754 c 0,102,103
 68 760 68 760 60 771 c 2,104,-1
 48 785 l 2,105,106
 44 790 44 790 41 795 c 0,107,108
 37 801 37 801 34 807 c 0,109,110
 17 840 17 840 17 883 c 0,111,112
 17 940 17 940 63 983 c 0,113,114
 115 1031 115 1031 201 1031 c 2,115,-1
 206 1031 l 2,116,117
 254 1030 254 1030 304 1008 c 0,118,119
 368 980 368 980 368 936 c 0,120,121
 368 899 368 899 350 884 c 0,122,123
 337 873 337 873 313 873 c 0,124,125
 267 873 267 873 244 927 c 0,126,127
 234 951 234 951 204 967 c 0,128,129
 192 973 192 973 180 977 c 0,130,131
 169 980 169 980 163 980 c 0,132,133
 153 980 153 980 142 978 c 0,134,135
 128 975 128 975 117 969 c 0,136,137
 87 954 87 954 87 921 c 0,138,139
 87 903 87 903 106 882 c 0,140,141
 121 865 121 865 150 843 c 0,142,143
 152 841 152 841 155 841 c 0,144,145
 159 841 159 841 160 844 c 2,146,-1
 160 850 l 2,147,148
 160 865 160 865 174 865 c 0,149,150
 179 865 179 865 184 861 c 0,151,152
 189 856 189 856 189 850 c 2,153,-1
 189 826 l 2,154,155
 189 818 189 818 194 815 c 2,156,-1
 200 811 l 2,157,158
 204 807 204 807 207 806 c 0,159,160
 217 799 217 799 222 799 c 0,161,162
 224 799 224 799 225 803 c 0,163,164
 226 805 226 805 226 809 c 2,165,-1
 226 850 l 2,166,167
 226 856 226 856 230 861 c 0,168,169
 235 865 235 865 240 865 c 0,170,171
 255 865 255 865 255 850 c 2,172,-1
 255 792 l 2,173,174
 255 780 255 780 263 776 c 2,175,-1
 282 765 l 2,176,177
 295 758 295 758 305 751 c 0,178,179
 331 734 331 734 350 719 c 0,180,181
 402 674 402 674 402 631 c 0,182,183
 402 584 402 584 383 551 c 0,184,185
 377 540 377 540 367 528 c 2,186,-1
 361 522 l 2,187,188
 361 521 361 521 360 521 c 1,189,190
 360 520 360 520 359 520 c 2,191,-1
 353 512 l 2,192,193
 345 501 345 501 345 494 c 0,194,195
 345 486 345 486 353 478 c 2,196,-1
 357 474 l 2,197,198
 359 470 359 470 362 466 c 0,199,200
 366 461 366 461 369 456 c 0,201,202
 373 450 373 450 376 443 c 0,203,204
 395 407 395 407 395 371 c 0,205,0
 395 337 395 337 370 301 c 0,1,2
226 650 m 2,206,207
 226 657 226 657 224 660 c 256,208,209
 222 663 222 663 220 664 c 0,210,211
 217 665 217 665 212 668 c 0,212,213
 209 669 209 669 204 672 c 2,214,-1
 194 677 l 2,215,216
 189 677 189 677 189 672 c 0,217,218
 188 671 188 671 188 661 c 2,219,-1
 188 612 l 2,220,221
 188 597 188 597 189 589 c 0,222,223
 189 579 189 579 195 576 c 2,224,-1
 207 568 l 2,225,226
 216 563 216 563 222 563 c 0,227,228
 226 563 226 563 226 568 c 2,229,-1
 226 650 l 2,206,207
72 670 m 0,231,232
 72 655 72 655 88 639 c 2,233,-1
 125 612 l 1,234,-1
 148 600 l 1,235,-1
 152 600 l 2,236,237
 160 600 160 600 160 606 c 2,238,-1
 160 687 l 2,239,240
 160 690 160 690 157 694 c 0,241,242
 154 697 154 697 152 698 c 2,243,-1
 133 707 l 2,244,245
 129 710 129 710 118 710 c 256,246,247
 107 710 107 710 97 705 c 0,248,249
 85 699 85 699 76 685 c 0,250,230
 72 678 72 678 72 670 c 0,231,232
145 352 m 2,251,252
 149 350 149 350 153 350 c 0,253,254
 160 350 160 350 160 355 c 2,255,-1
 160 441 l 2,256,257
 160 447 160 447 156 452 c 2,258,-1
 149 458 l 2,259,260
 143 461 143 461 137 465 c 0,261,262
 131 467 131 467 127 470 c 2,263,-1
 116 475 l 2,264,265
 110 479 110 479 101 479 c 0,266,267
 74 479 74 479 58 450 c 0,268,269
 53 440 53 440 53 433 c 0,270,271
 53 416 53 416 72 397 c 0,272,273
 88 380 88 380 105 374 c 2,274,-1
 145 352 l 2,251,252
188 343 m 2,275,276
 188 331 188 331 194 326 c 2,277,-1
 216 315 l 2,278,279
 217 314 217 314 219 314 c 0,280,281
 226 314 226 314 226 322 c 2,282,-1
 226 405 l 2,283,284
 226 413 226 413 223 418 c 0,285,286
 220 422 220 422 217 424 c 2,287,-1
 207 430 l 2,288,289
 199 434 199 434 196 434 c 0,290,291
 189 434 189 434 189 425 c 2,292,-1
 188 414 l 1,293,-1
 188 343 l 2,275,276
331 332 m 0,295,296
 331 358 331 358 311 372 c 0,297,298
 309 374 309 374 296 381 c 2,299,-1
 268 396 l 2,300,301
 266 398 266 398 263 398 c 0,302,303
 255 398 255 398 255 391 c 2,304,-1
 255 311 l 2,305,306
 255 297 255 297 262 294 c 0,307,308
 265 292 265 292 269 291 c 2,309,-1
 273 289 l 2,310,311
 284 286 284 286 291 286 c 0,312,313
 311 286 311 286 326 312 c 0,314,294
 331 324 331 324 331 332 c 0,295,296
289 534 m 1,315,-1
 302 533 l 2,316,317
 324 533 324 533 335 557 c 0,318,319
 340 567 340 567 340 575 c 0,320,321
 340 597 340 597 321 612 c 0,322,323
 321 614 321 614 299 628 c 0,324,325
 275 643 275 643 262 643 c 0,326,327
 255 643 255 643 255 634 c 2,328,-1
 255 558 l 2,329,330
 255 546 255 546 263 543 c 2,331,-1
 289 534 l 1,315,-1
EndSplineSet
EndChar

StartChar: uniE04C
Encoding: 57420 57420 91
Width: 371
GlyphClass: 1
Flags: W
LayerCount: 2
Fore
SplineSet
192 870 m 1,0,-1
 228 870 l 1,1,-1
 228 125 l 1,2,-1
 192 125 l 1,3,-1
 192 870 l 1,0,-1
0 870 m 1,4,-1
 125 870 l 1,5,-1
 125 125 l 5,6,-1
 0 125 l 1,7,-1
 0 870 l 1,4,-1
266 370 m 256,9,10
 266 420 266 420 316 420 c 256,11,12
 366 420 366 420 366 370 c 256,13,14
 366 320 366 320 316 320 c 256,15,8
 266 320 266 320 266 370 c 256,9,10
266 622 m 256,17,18
 266 672 266 672 316 672 c 256,19,20
 366 672 366 672 366 622 c 256,21,22
 366 572 366 572 316 572 c 256,23,16
 266 572 266 572 266 622 c 256,17,18
EndSplineSet
EndChar

StartChar: uniE04D
Encoding: 57421 57421 92
Width: 371
GlyphClass: 1
Flags: W
LayerCount: 2
Fore
SplineSet
174 125 m 1,0,-1
 138 125 l 1,1,-1
 138 870 l 1,2,-1
 174 870 l 1,3,-1
 174 125 l 1,0,-1
366 125 m 1,4,-1
 241 125 l 1,5,-1
 241 870 l 1,6,-1
 366 870 l 1,7,-1
 366 125 l 1,4,-1
0 370 m 256,9,10
 0 420 0 420 50 420 c 256,11,12
 100 420 100 420 100 370 c 256,13,14
 100 320 100 320 50 320 c 256,15,8
 0 320 0 320 0 370 c 256,9,10
0 622 m 256,17,18
 0 672 0 672 50 672 c 256,19,20
 100 672 100 672 100 622 c 256,21,22
 100 572 100 572 50 572 c 256,23,16
 0 572 0 572 0 622 c 256,17,18
EndSplineSet
EndChar

StartChar: uniE050
Encoding: 57424 57424 93
Width: 646
GlyphClass: 1
Flags: W
LayerCount: 2
Fore
SplineSet
646 11 m 0,0,1
 646 -161 646 -161 478 -240 c 1,2,-1
 523 -428 l 1,3,-1
 524 -477 l 2,4,5
 524.064516129 -479.838709677 524.064516129 -479.838709677 524.064516129 -482.644120708 c 0,6,7
 524.064516129 -566.806451613 524.064516129 -566.806451613 469.032258065 -617.903225806 c 128,-1,9
 414 -669 414 -669 341.5 -669 c 128,-1,11
 269 -669 269 -669 214 -632 c 0,12,13
 146 -586 146 -586 145 -512 c 1,14,15
 145 -512 145 -512 145 -509 c 0,16,17
 145 -466 145 -466 170 -430 c 0,18,19
 201 -383 201 -383 253 -382 c 1,20,21
 253 -382 253 -382 256 -382 c 0,22,23
 298 -382 298 -382 327 -413 c 128,-1,25
 356 -444 356 -444 356 -485.5 c 128,-1,27
 356 -527 356 -527 329 -557 c 128,-1,29
 302 -587 302 -587 259 -587 c 1,30,-1
 248 -586 l 1,31,32
 248 -609 248 -609 282 -623 c 0,33,34
 304.5 -632 304.5 -632 324.75 -632 c 128,-1,36
 345 -632 345 -632 356 -631 c 0,37,38
 490 -618 490 -618 490 -469 c 0,39,40
 490 -431 490 -431 481 -396 c 2,41,-1
 445 -255 l 1,42,43
 391 -269 391 -269 343 -269 c 0,44,45
 212 -269 212 -269 106.5 -162.5 c 128,-1,47
 1 -56 1 -56 1 103 c 0,48,49
 1 239 1 239 81 352 c 0,50,51
 132 425 132 425 281 580 c 1,52,53
 249 705 249 705 249 805.5 c 128,-1,55
 249 906 249 906 275 977 c 128,-1,57
 301 1048 301 1048 335 1097.5 c 128,-1,59
 369 1147 369 1147 394 1147 c 0,60,61
 431 1147 431 1147 474 1035.5 c 128,-1,63
 517 924 517 924 517 824 c 128,-1,65
 517 724 517 724 470.5 621 c 128,-1,67
 424 518 424 518 344 438 c 1,68,-1
 379 259 l 1,69,-1
 421 261 l 2,70,71
 426.852272727 261.284090909 426.852272727 261.284090909 432.58509814 261.284090909 c 0,72,73
 527.75 261.284090909 527.75 261.284090909 586.875 186.142045455 c 128,-1,75
 646 111 646 111 646 11 c 0,0,1
473 904 m 0,76,77
 473 948 473 948 456.5 969.5 c 128,-1,79
 440 991 440 991 413 991 c 1,80,81
 355 979 355 979 316 878 c 0,82,83
 290 810 290 810 290 748 c 128,-1,85
 290 686 290 686 311 609 c 1,86,87
 384 670 384 670 428.5 751 c 128,-1,88
 473 832 473 832 473 904 c 0,76,77
579 -40 m 0,89,90
 579 41 579 41 526 89.5 c 128,-1,92
 473 138 473 138 401 138 c 1,93,-1
 473 -210 l 1,94,95
 579 -155 579 -155 579 -40 c 0,89,90
440 -222 m 1,96,-1
 369 135 l 1,97,98
 325 120 325 120 293 79 c 0,99,100
 261 36 261 36 261 -12 c 0,101,102
 261 -82 261 -82 324 -115 c 0,103,104
 350 -128 350 -128 350 -139.5 c 0,105,106
 350 -146.282051282 350 -146.282051282 342.333333333 -146.282051282 c 128,-1,108
 334.666666667 -146.282051282 334.666666667 -146.282051282 324 -143 c 0,109,110
 274 -128 274 -128 237 -73 c 128,-1,112
 200 -18 200 -18 200 48.5 c 128,-1,114
 200 115 200 115 241.5 172.5 c 128,-1,116
 283 230 283 230 346 252 c 1,117,-1
 315 410 l 1,118,119
 202 309 202 309 151 239 c 0,120,121
 77 137 77 137 77 21 c 128,-1,123
 77 -95 77 -95 165 -168 c 0,124,125
 243 -233 243 -233 355 -233 c 0,126,127
 401 -233 401 -233 440 -222 c 1,96,-1
EndSplineSet
EndChar

StartChar: uniE051
Encoding: 57425 57425 94
Width: 671
GlyphClass: 1
Flags: W
LayerCount: 2
Fore
SplineSet
668 15 m 2,0,1
 668 -156 668 -156 488 -225 c 1,2,3
 492 -256 492 -256 497 -286 c 2,4,-1
 513 -373 l 2,5,6
 519 -410 519 -410 519 -442 c 0,7,8
 519 -523 519 -523 481 -574 c 0,9,10
 449 -617 449 -617 397 -633 c 1,11,-1
 449 -633 l 2,12,13
 450 -634 450 -634 450 -636 c 0,14,15
 450 -640 450 -640 448 -645 c 256,16,17
 446 -650 446 -650 444 -650 c 0,18,19
 443 -653 443 -653 440 -655 c 2,20,-1
 428 -664 l 1,21,-1
 397 -674 l 1,22,-1
 353 -682 l 2,23,24
 344 -683 344 -683 338 -685 c 0,25,26
 336 -686 336 -686 330 -687 c 0,27,28
 325 -688 325 -688 324 -689 c 0,29,30
 319 -692 319 -692 318 -697 c 0,31,32
 317 -700 317 -700 317 -706 c 0,33,34
 315 -708 315 -708 315 -713 c 0,35,36
 315 -717 315 -717 317 -718 c 2,37,-1
 342 -714 l 1,38,-1
 351 -714 l 2,39,40
 372 -714 372 -714 395 -729 c 0,41,42
 408 -737 408 -737 415 -761 c 0,43,44
 416 -764 416 -764 416 -770 c 2,45,-1
 416 -794 l 2,46,47
 416 -801 416 -801 415 -804 c 0,48,49
 405 -839 405 -839 368 -860 c 0,50,51
 340 -876 340 -876 310 -876 c 0,52,53
 283 -876 283 -876 266 -863 c 0,54,55
 249 -851 249 -851 249 -821 c 0,56,57
 249 -799 249 -799 264 -791 c 0,58,59
 268 -791 268 -791 272 -789 c 0,60,61
 298 -789 298 -789 298 -816 c 0,62,63
 298 -823 298 -823 293 -831 c 2,64,-1
 286 -838 l 2,65,66
 282 -843 282 -843 282 -849 c 0,67,68
 282 -857 282 -857 292 -861 c 0,69,70
 300 -865 300 -865 308 -865 c 0,71,72
 324 -863 324 -863 337 -852 c 0,73,74
 355 -835 355 -835 366 -798 c 0,75,76
 373 -780 373 -780 373 -767 c 0,77,78
 373 -750 373 -750 362 -742 c 0,79,80
 357 -739 357 -739 351 -737 c 0,81,82
 347 -736 347 -736 342 -736 c 0,83,84
 331 -736 331 -736 315 -747 c 0,85,86
 312 -748 312 -748 309 -751 c 2,87,-1
 295 -761 l 1,88,-1
 288 -763 l 2,89,90
 280 -763 280 -763 280 -761 c 0,91,92
 278 -760 278 -760 278 -754 c 0,93,94
 278 -747 278 -747 280 -743 c 0,95,96
 285 -719 285 -719 298 -687 c 2,97,-1
 308 -654 l 2,98,99
 310 -653 310 -653 311 -650 c 2,100,-1
 312 -647 l 2,101,102
 312 -644 312 -644 313 -643 c 1,103,-1
 289 -643 l 1,104,-1
 244 -744 l 2,105,106
 227 -783 227 -783 218 -806 c 0,107,108
 206 -834 206 -834 206 -837 c 0,109,110
 206 -841 206 -841 210 -845 c 0,111,112
 214 -850 214 -850 219 -850 c 0,113,114
 223 -850 223 -850 226 -851 c 0,115,116
 230 -853 230 -853 230 -856 c 0,117,118
 230 -865 230 -865 219 -865 c 2,119,-1
 117 -865 l 2,120,121
 114 -865 114 -865 111 -863 c 0,122,123
 108 -862 108 -862 108 -859 c 0,124,125
 108 -857 108 -857 109 -856 c 0,126,127
 109 -850 109 -850 117 -850 c 0,128,129
 123 -850 123 -850 131 -847 c 2,130,-1
 138 -845 l 1,131,132
 138 -846 138 -846 142 -843 c 0,133,134
 147 -839 147 -839 153 -829 c 2,135,-1
 190 -734 l 1,136,-1
 191 -729 l 2,137,138
 191 -723 191 -723 185 -723 c 0,139,140
 177 -723 177 -723 174 -729 c 2,141,-1
 165 -736 l 2,142,143
 159 -741 159 -741 153 -741 c 0,144,145
 141 -741 141 -741 141 -731 c 0,146,147
 141 -728 141 -728 142 -727 c 2,148,-1
 224 -633 l 1,149,-1
 227 -631 l 2,150,151
 228 -630 228 -630 228 -629 c 0,152,153
 175 -609 175 -609 151 -563 c 0,154,155
 134 -530 134 -530 134 -487 c 0,156,157
 134 -473 134 -473 136 -462 c 0,158,159
 137 -452 137 -452 138 -452 c 0,160,161
 148 -376 148 -376 228 -369 c 1,162,-1
 235 -369 l 2,163,164
 325 -369 325 -369 336 -463 c 1,165,-1
 336 -467 l 2,166,167
 336 -541 336 -541 266 -563 c 1,168,-1
 242 -569 l 2,169,170
 233 -573 233 -573 233 -577 c 256,171,172
 233 -581 233 -581 242 -587 c 0,173,174
 270 -608 270 -608 320 -608 c 2,175,-1
 351 -607 l 2,176,177
 359 -606 359 -606 368 -604 c 0,178,179
 392 -599 392 -599 413 -586 c 0,180,181
 440 -568 440 -568 455 -537 c 0,182,183
 474 -499 474 -499 474 -443 c 0,184,185
 474 -414 474 -414 468 -377 c 2,186,-1
 446 -238 l 1,187,-1
 442 -238 l 1,188,189
 405 -243 405 -243 372 -243 c 0,190,191
 307 -243 307 -243 249 -227 c 0,192,193
 185 -210 185 -210 135 -175 c 0,194,195
 81 -136 81 -136 48 -78 c 0,196,197
 13 -13 13 -13 6 72 c 0,198,199
 5 81 5 81 5 100 c 0,200,201
 5 168 5 168 33 236 c 0,202,203
 58 295 58 295 105 356 c 0,204,205
 145 407 145 407 205 465 c 0,206,207
 228 487 228 487 259 515 c 2,208,-1
 313 563 l 1,209,-1
 302 624 l 2,210,211
 295 684 295 684 295 725 c 0,212,213
 295 860 295 860 339 961 c 0,214,215
 383 1063 383 1063 455 1094 c 0,216,217
 455 1095 455 1095 461 1092 c 2,218,-1
 468 1087 l 2,219,220
 473 1084 473 1084 477 1080 c 0,221,222
 489 1069 489 1069 501 1052 c 0,223,224
 515 1031 515 1031 528 1002 c 0,225,226
 572 905 572 905 572 813 c 0,227,228
 572 609 572 609 373 424 c 1,229,-1
 380 384 l 2,230,231
 382 369 382 369 387 344 c 2,232,-1
 396 302 l 1,233,-1
 404 256 l 1,234,-1
 411 258 l 1,235,-1
 430 258 l 2,236,237
 525 258 525 258 594 193 c 0,238,239
 663 127 663 127 668 31 c 1,240,-1
 668 15 l 2,0,1
459 937 m 2,241,242
 407 934 407 934 369 843 c 0,243,244
 336 761 336 761 336 675 c 0,245,246
 336 651 336 651 338 640 c 0,247,248
 338 635 338 635 341 622 c 0,249,250
 341 619 341 619 342 615 c 2,251,-1
 346 591 l 1,252,253
 506 711 506 711 526 838 c 0,254,255
 527 843 527 843 527 848 c 2,256,-1
 527 858 l 2,257,258
 527 937 527 937 464 937 c 2,259,-1
 459 937 l 2,241,242
85 14 m 2,260,261
 87 -47 87 -47 117 -94 c 0,262,263
 143 -134 143 -134 191 -161 c 0,264,265
 231 -185 231 -185 284 -197 c 0,266,267
 329 -207 329 -207 374 -207 c 0,268,269
 416 -207 416 -207 440 -199 c 1,270,-1
 386 116 l 1,271,272
 332 107 332 107 302 81 c 0,273,274
 268 52 268 52 268 2 c 2,275,-1
 268 -6 l 2,276,277
 269 -34 269 -34 295 -66 c 0,278,279
 318 -96 318 -96 336 -103 c 0,280,281
 350 -110 350 -110 350 -120 c 0,282,283
 350 -128 350 -128 338 -128 c 0,284,285
 329 -128 329 -128 317 -124 c 0,286,287
 234 -99 234 -99 211 8 c 0,288,289
 206 26 206 26 206 50 c 0,290,291
 206 116 206 116 251 173 c 0,292,293
 296 229 296 229 364 250 c 1,294,-1
 340 402 l 1,295,296
 286 363 286 363 246 326 c 0,297,298
 197 282 197 282 164 239 c 0,299,300
 126 189 126 189 107 139 c 0,301,302
 85 83 85 83 85 24 c 2,303,-1
 85 14 l 2,260,261
481 -188 m 1,304,305
 587 -145 587 -145 587 -37 c 2,306,-1
 587 -28 l 2,307,308
 584 34 584 34 538 78 c 0,309,310
 492 121 492 121 430 121 c 2,311,-1
 426 121 l 1,312,-1
 481 -188 l 1,304,305
EndSplineSet
EndChar

StartChar: uniE052
Encoding: 57426 57426 95
Width: 646
GlyphClass: 1
Flags: W
LayerCount: 2
Fore
SplineSet
646 6 m 0,0,1
 646 -161 646 -161 478 -240 c 1,2,-1
 523 -428 l 1,3,-1
 524 -477 l 2,4,5
 526 -565 526 -565 470 -617 c 128,-1,6
 414 -669 414 -669 325 -669 c 0,7,8
 269 -669 269 -669 216 -633 c 0,9,10
 146 -586 146 -586 146 -517 c 0,11,12
 145 -510 145 -510 145 -506 c 0,13,14
 145 -466 145 -466 170 -429 c 0,15,16
 201 -383 201 -383 249 -383 c 0,17,18
 255 -382 255 -382 259 -382 c 0,19,20
 298 -382 298 -382 327 -413 c 128,-1,21
 356 -444 356 -444 356 -484 c 0,22,23
 356 -527 356 -527 329 -557 c 128,-1,24
 302 -587 302 -587 259 -587 c 2,25,-1
 248 -586 l 1,26,27
 248 -609 248 -609 285 -624 c 0,28,29
 309 -634 309 -634 332 -634 c 0,30,31
 339 -633 339 -633 343 -633 c 0,32,33
 490 -618 490 -618 490 -474 c 0,34,35
 490 -431 490 -431 481 -396 c 2,36,-1
 445 -255 l 1,37,38
 391 -269 391 -269 347 -269 c 0,39,40
 212 -269 212 -269 111 -167 c 0,41,42
 1 -56 1 -56 1 86 c 0,43,44
 1 239 1 239 87 361 c 0,45,46
 132 425 132 425 281 580 c 1,47,48
 249 705 249 705 249 814 c 0,49,50
 249 906 249 906 284 1002 c 0,51,52
 301 1048 301 1048 329 1089 c 0,53,54
 369 1147 369 1147 403 1147 c 0,55,56
 431 1147 431 1147 472 1041 c 0,57,58
 517 924 517 924 517 832 c 0,59,60
 517 724 517 724 469 618 c 0,61,62
 424 518 424 518 344 438 c 1,63,-1
 379 259 l 1,64,-1
 421 261 l 2,65,66
 524 266 524 266 588 185 c 0,67,68
 646 111 646 111 646 6 c 0,0,1
506 -861 m 0,69,70
 506 -904 506 -904 471.5 -934 c 128,-1,71
 437 -964 437 -964 393 -964 c 0,72,73
 355 -964 355 -964 325.5 -937 c 128,-1,74
 296 -910 296 -910 296 -872 c 0,75,76
 296 -818 296 -818 353 -800 c 1,77,78
 306 -785 306 -785 306 -732 c 0,79,80
 306 -699 306 -699 338 -679 c 0,81,82
 365 -662 365 -662 401 -662 c 0,83,84
 436 -662 436 -662 462 -679 c 0,85,86
 492 -699 492 -699 492 -732 c 0,87,88
 492 -783 492 -783 440 -797 c 1,89,90
 465 -803 465 -803 484 -819 c 0,91,92
 506 -838 506 -838 506 -861 c 0,69,70
473 920 m 0,93,94
 473 948 473 948 456.5 969.5 c 128,-1,95
 440 991 440 991 413 991 c 1,96,97
 355 979 355 979 320 888 c 0,98,99
 290 810 290 810 290 741 c 0,100,101
 290 686 290 686 311 609 c 1,102,103
 384 670 384 670 426 747 c 0,104,105
 473 832 473 832 473 920 c 0,93,94
579 -30 m 0,106,107
 579 41 579 41 526 89.5 c 128,-1,108
 473 138 473 138 401 138 c 1,109,-1
 473 -210 l 1,110,111
 579 -155 579 -155 579 -30 c 0,106,107
440 -222 m 1,112,-1
 369 135 l 1,113,114
 325 120 325 120 293 78 c 128,-1,115
 261 36 261 36 261 -10 c 0,116,117
 261 -82 261 -82 344 -128 c 0,118,119
 350 -128 350 -128 350 -137 c 0,120,121
 350 -151 350 -151 335 -149 c 0,122,123
 274 -128 274 -128 237 -73 c 128,-1,124
 200 -18 200 -18 200 48 c 0,125,126
 200 115 200 115 241.5 172.5 c 128,-1,127
 283 230 283 230 346 252 c 1,128,-1
 315 410 l 1,129,130
 202 309 202 309 154 243 c 0,131,132
 77 137 77 137 77 28 c 0,133,134
 77 -95 77 -95 163 -166 c 0,135,136
 243 -233 243 -233 369 -233 c 0,137,138
 401 -233 401 -233 440 -222 c 1,112,-1
467 -734 m 0,139,140
 467 -708 467 -708 447.5 -694 c 128,-1,141
 428 -680 428 -680 401 -680 c 0,142,143
 378 -680 378 -680 354 -696 c 128,-1,144
 330 -712 330 -712 330 -734 c 0,145,146
 330 -747 330 -747 350 -761 c 0,147,148
 366 -772 366 -772 382 -776 c 2,149,-1
 416 -784 l 2,150,151
 428 -784 428 -784 447.5 -765 c 128,-1,152
 467 -746 467 -746 467 -734 c 0,139,140
471 -871 m 0,153,154
 471 -860 471 -860 451.5 -846 c 128,-1,155
 432 -832 432 -832 418 -827 c 2,156,-1
 383 -815 l 1,157,158
 366 -815 366 -815 343 -835 c 128,-1,159
 320 -855 320 -855 320 -871 c 0,160,161
 320 -902 320 -902 341 -923.5 c 128,-1,162
 362 -945 362 -945 393 -945 c 0,163,164
 421 -945 421 -945 446 -922 c 128,-1,165
 471 -899 471 -899 471 -871 c 0,153,154
EndSplineSet
EndChar

StartChar: uniE053
Encoding: 57427 57427 96
Width: 646
GlyphClass: 1
Flags: W
LayerCount: 2
Fore
SplineSet
514 1247 m 0,0,1
 514 1204 514 1204 479.5 1174 c 128,-1,2
 445 1144 445 1144 401 1144 c 0,3,4
 362 1144 362 1144 333 1170.5 c 128,-1,5
 304 1197 304 1197 304 1236 c 0,6,7
 304 1290 304 1290 361 1308 c 1,8,9
 314 1323 314 1323 314 1376 c 0,10,11
 314 1409 314 1409 346 1429 c 0,12,13
 373 1446 373 1446 409 1446 c 0,14,15
 444 1446 444 1446 470 1429 c 0,16,17
 500 1409 500 1409 500 1376 c 0,18,19
 500 1325 500 1325 448 1311 c 1,20,21
 473 1306 473 1306 493.5 1288 c 128,-1,22
 514 1270 514 1270 514 1247 c 0,0,1
646 6 m 0,23,24
 646 -161 646 -161 478 -240 c 1,25,-1
 523 -428 l 1,26,-1
 524 -477 l 2,27,28
 526 -565 526 -565 470 -617 c 128,-1,29
 414 -669 414 -669 325 -669 c 0,30,31
 269 -669 269 -669 216 -633 c 0,32,33
 146 -586 146 -586 146 -517 c 0,34,35
 145 -510 145 -510 145 -506 c 0,36,37
 145 -466 145 -466 170 -429 c 0,38,39
 201 -383 201 -383 249 -383 c 0,40,41
 255 -382 255 -382 259 -382 c 0,42,43
 298 -382 298 -382 327 -413 c 128,-1,44
 356 -444 356 -444 356 -484 c 0,45,46
 356 -527 356 -527 329 -557 c 128,-1,47
 302 -587 302 -587 259 -587 c 2,48,-1
 248 -586 l 1,49,50
 248 -609 248 -609 285 -624 c 0,51,52
 309 -634 309 -634 332 -634 c 0,53,54
 339 -633 339 -633 343 -633 c 0,55,56
 490 -618 490 -618 490 -474 c 0,57,58
 490 -431 490 -431 481 -396 c 2,59,-1
 445 -255 l 1,60,61
 391 -269 391 -269 347 -269 c 0,62,63
 212 -269 212 -269 111 -167 c 0,64,65
 1 -56 1 -56 1 86 c 0,66,67
 1 239 1 239 87 361 c 0,68,69
 132 425 132 425 281 580 c 1,70,71
 249 705 249 705 249 814 c 0,72,73
 249 906 249 906 284 1002 c 0,74,75
 301 1048 301 1048 329 1089 c 0,76,77
 369 1147 369 1147 403 1147 c 0,78,79
 431 1147 431 1147 472 1041 c 0,80,81
 517 924 517 924 517 832 c 0,82,83
 517 724 517 724 469 618 c 0,84,85
 424 518 424 518 344 438 c 1,86,-1
 379 259 l 1,87,-1
 421 261 l 2,88,89
 524 266 524 266 588 185 c 0,90,91
 646 111 646 111 646 6 c 0,23,24
475 1374 m 0,92,93
 475 1400 475 1400 455.5 1414 c 128,-1,94
 436 1428 436 1428 409 1428 c 0,95,96
 386 1428 386 1428 362 1412 c 128,-1,97
 338 1396 338 1396 338 1374 c 0,98,99
 338 1349 338 1349 390 1331 c 1,100,-1
 424 1324 l 2,101,102
 436 1324 436 1324 455.5 1343 c 128,-1,103
 475 1362 475 1362 475 1374 c 0,92,93
479 1237 m 0,104,105
 479 1248 479 1248 459.5 1262 c 128,-1,106
 440 1276 440 1276 426 1281 c 2,107,-1
 391 1293 l 1,108,109
 375 1293 375 1293 351.5 1273 c 128,-1,110
 328 1253 328 1253 328 1237 c 0,111,112
 328 1205 328 1205 348.5 1184 c 128,-1,113
 369 1163 369 1163 401 1163 c 0,114,115
 429 1163 429 1163 454 1186 c 128,-1,116
 479 1209 479 1209 479 1237 c 0,104,105
473 920 m 0,117,118
 473 948 473 948 456.5 969.5 c 128,-1,119
 440 991 440 991 413 991 c 1,120,121
 355 979 355 979 320 888 c 0,122,123
 290 810 290 810 290 741 c 0,124,125
 290 686 290 686 311 609 c 1,126,127
 384 670 384 670 426 747 c 0,128,129
 473 832 473 832 473 920 c 0,117,118
579 -30 m 0,130,131
 579 41 579 41 526 89.5 c 128,-1,132
 473 138 473 138 401 138 c 1,133,-1
 473 -210 l 1,134,135
 579 -155 579 -155 579 -30 c 0,130,131
440 -222 m 1,136,-1
 369 135 l 1,137,138
 325 120 325 120 293 78 c 128,-1,139
 261 36 261 36 261 -10 c 0,140,141
 261 -82 261 -82 344 -128 c 0,142,143
 350 -128 350 -128 350 -137 c 0,144,145
 350 -151 350 -151 335 -149 c 0,146,147
 274 -128 274 -128 237 -73 c 128,-1,148
 200 -18 200 -18 200 48 c 0,149,150
 200 115 200 115 241.5 172.5 c 128,-1,151
 283 230 283 230 346 252 c 1,152,-1
 315 410 l 1,153,154
 202 309 202 309 154 243 c 0,155,156
 77 137 77 137 77 28 c 0,157,158
 77 -95 77 -95 163 -166 c 0,159,160
 243 -233 243 -233 369 -233 c 0,161,162
 401 -233 401 -233 440 -222 c 1,136,-1
EndSplineSet
EndChar

StartChar: uniE054
Encoding: 57428 57428 97
Width: 670
GlyphClass: 1
Flags: W
LayerCount: 2
Fore
SplineSet
667 20 m 2,0,1
 667 -155 667 -155 487 -224 c 1,2,3
 491 -255 491 -255 496 -285 c 2,4,-1
 511 -371 l 2,5,6
 517 -410 517 -410 517 -441 c 0,7,8
 517 -496 517 -496 500 -537 c 0,9,10
 484 -573 484 -573 456 -598 c 0,11,12
 431 -619 431 -619 399 -631 c 0,13,14
 371 -640 371 -640 342 -642 c 2,15,-1
 319 -643 l 2,16,17
 262 -643 262 -643 221 -626 c 0,18,19
 186 -612 186 -612 164 -586 c 0,20,21
 146 -564 146 -564 138 -535 c 0,22,23
 132 -512 132 -512 132 -487 c 2,24,-1
 132 -473 l 1,25,-1
 134 -461 l 2,26,27
 135 -451 135 -451 136 -451 c 0,28,29
 146 -373 146 -373 227 -368 c 1,30,-1
 234 -368 l 2,31,32
 273 -368 273 -368 302 -395 c 0,33,34
 330 -423 330 -423 333 -462 c 2,35,-1
 333 -469 l 2,36,37
 333 -540 333 -540 265 -562 c 1,38,-1
 240 -568 l 2,39,40
 232 -571 232 -571 232 -576 c 256,41,42
 232 -581 232 -581 240 -586 c 0,43,44
 268 -606 268 -606 322 -606 c 2,45,-1
 349 -606 l 2,46,47
 357 -605 357 -605 366 -603 c 0,48,49
 391 -598 391 -598 411 -585 c 0,50,51
 438 -567 438 -567 454 -536 c 0,52,53
 473 -498 473 -498 473 -442 c 0,54,55
 473 -412 473 -412 467 -375 c 2,56,-1
 445 -237 l 1,57,-1
 440 -237 l 1,58,59
 411 -241 411 -241 372 -241 c 0,60,61
 307 -241 307 -241 249 -225 c 0,62,63
 184 -208 184 -208 135 -173 c 0,64,65
 80 -134 80 -134 48 -76 c 0,66,67
 12 -12 12 -12 5 74 c 0,68,69
 4 84 4 84 4 104 c 0,70,71
 4 172 4 172 32 239 c 0,72,73
 56 298 56 298 104 359 c 0,74,75
 143 409 143 409 202 466 c 0,76,77
 226 489 226 489 256 516 c 2,78,-1
 284 540 l 2,79,80
 294 550 294 550 311 564 c 1,81,-1
 300 627 l 2,82,83
 293 675 293 675 293 728 c 0,84,85
 293 977 293 977 416 1075 c 1,86,-1
 331 1075 l 2,87,88
 322 1075 322 1075 322 1084 c 0,89,90
 322 1091 322 1091 331 1091 c 0,91,92
 337 1091 337 1091 344 1093 c 2,93,-1
 351 1095 l 1,94,95
 351 1094 351 1094 356 1097 c 0,96,97
 361 1101 361 1101 367 1111 c 2,98,-1
 404 1212 l 2,99,100
 404 1217 404 1217 398 1217 c 0,101,102
 390 1217 390 1217 387 1211 c 2,103,-1
 379 1204 l 2,104,105
 373 1200 373 1200 367 1200 c 0,106,107
 354 1200 354 1200 354 1208 c 2,108,-1
 356 1213 l 1,109,-1
 424 1291 l 2,110,111
 436 1305 436 1305 438 1306 c 0,112,113
 447 1315 447 1315 453 1315 c 0,114,115
 456 1315 456 1315 461 1313 c 0,116,117
 465 1311 465 1311 469 1308 c 0,118,119
 474 1305 474 1305 478 1305 c 0,120,121
 480 1304 480 1304 485 1304 c 0,122,123
 489 1304 489 1304 493 1306 c 2,124,-1
 498 1308 l 2,125,126
 503 1308 503 1308 503 1304 c 0,127,128
 503 1302 503 1302 502 1300 c 0,129,130
 502 1298 502 1298 489 1268 c 2,131,-1
 433 1138 l 2,132,133
 420 1108 420 1108 420 1106 c 0,134,135
 420 1101 420 1101 424 1096 c 0,136,137
 427 1091 427 1091 433 1091 c 2,138,-1
 438 1091 l 1,139,-1
 453 1097 l 2,140,141
 453 1098 453 1098 458 1096 c 0,142,143
 464 1093 464 1093 471 1086 c 1,144,145
 462 1104 462 1104 462 1119 c 0,146,147
 462 1141 462 1141 478 1149 c 2,148,-1
 481 1150 l 2,149,150
 484 1151 484 1151 487 1151 c 0,151,152
 512 1151 512 1151 512 1124 c 0,153,154
 512 1116 512 1116 507 1109 c 2,155,-1
 500 1102 l 2,156,157
 496 1098 496 1098 496 1090 c 0,158,159
 496 1083 496 1083 506 1078 c 0,160,161
 514 1075 514 1075 522 1075 c 0,162,163
 538 1077 538 1077 550 1088 c 0,164,165
 568 1105 568 1105 580 1142 c 0,166,167
 587 1160 587 1160 587 1174 c 0,168,169
 587 1191 587 1191 576 1199 c 0,170,171
 571 1202 571 1202 565 1203 c 0,172,173
 561 1204 561 1204 556 1204 c 0,174,175
 545 1204 545 1204 529 1194 c 2,176,-1
 520 1187 l 2,177,178
 518 1186 518 1186 518 1185 c 0,179,180
 512 1181 512 1181 509 1180 c 0,181,182
 506 1178 506 1178 501 1178 c 0,183,184
 493 1178 493 1178 493 1180 c 0,185,186
 491 1181 491 1181 491 1186 c 0,187,188
 491 1193 491 1193 493 1197 c 0,189,190
 496 1209 496 1209 502 1226 c 2,191,-1
 523 1289 l 1,192,-1
 528 1299 l 2,193,194
 532 1306 532 1306 538 1306 c 2,195,-1
 649 1307 l 2,196,197
 659 1307 659 1307 662 1306 c 0,198,199
 664 1304 664 1304 664 1303 c 0,200,201
 664 1300 664 1300 661 1295 c 0,202,203
 659 1291 659 1291 658 1291 c 0,204,205
 657 1288 657 1288 654 1285 c 2,206,-1
 642 1276 l 1,207,-1
 636 1273 l 1,208,-1
 611 1266 l 2,209,210
 593 1262 593 1262 582 1262 c 0,211,212
 575 1259 575 1259 567 1257 c 2,213,-1
 559 1256 l 2,214,215
 554 1256 554 1256 551 1255 c 0,216,217
 549 1254 549 1254 544 1253 c 256,218,219
 539 1252 539 1252 538 1251 c 0,220,221
 533 1248 533 1248 532 1243 c 0,222,223
 531 1240 531 1240 531 1233 c 0,224,225
 529 1231 529 1231 529 1227 c 0,226,227
 529 1224 529 1224 531 1224 c 0,228,229
 532 1223 532 1223 534 1223 c 2,230,-1
 540 1224 l 2,231,232
 545 1224 545 1224 547 1226 c 2,233,-1
 564 1226 l 2,234,235
 588 1226 588 1226 609 1211 c 0,236,237
 620 1204 620 1204 629 1180 c 0,238,239
 630 1176 630 1176 630 1170 c 2,240,-1
 630 1147 l 2,241,242
 630 1140 630 1140 629 1135 c 0,243,244
 619 1102 619 1102 582 1080 c 0,245,246
 554 1064 554 1064 521 1064 c 0,247,248
 498 1064 498 1064 485 1073 c 1,249,250
 503 1055 503 1055 527 1004 c 0,251,252
 570 909 570 909 570 815 c 0,253,254
 570 612 570 612 371 427 c 1,255,-1
 402 258 l 1,256,-1
 409 260 l 1,257,-1
 429 260 l 2,258,259
 524 260 524 260 593 195 c 0,260,261
 662 129 662 129 667 34 c 1,262,-1
 667 20 l 2,0,1
368 845 m 0,264,265
 334 764 334 764 334 677 c 0,266,267
 334 653 334 653 336 642 c 0,268,269
 336 638 336 638 339 624 c 2,270,-1
 345 593 l 1,271,272
 503 712 503 712 525 840 c 0,273,274
 526 845 526 845 526 850 c 2,275,-1
 526 859 l 2,276,277
 526 940 526 940 461 940 c 0,278,263
 406 937 406 937 368 845 c 0,264,265
83 16 m 2,279,280
 85 -45 85 -45 115 -92 c 0,281,282
 141 -132 141 -132 188 -159 c 0,283,284
 229 -183 229 -183 281 -195 c 0,285,286
 326 -205 326 -205 371 -205 c 0,287,288
 414 -205 414 -205 438 -197 c 1,289,-1
 385 118 l 1,290,291
 331 109 331 109 301 83 c 0,292,293
 267 54 267 54 267 5 c 2,294,-1
 267 -4 l 2,295,296
 268 -31 268 -31 294 -65 c 0,297,298
 316 -94 316 -94 333 -102 c 0,299,300
 348 -109 348 -109 348 -120 c 0,301,302
 348 -128 348 -128 336 -128 c 0,303,304
 328 -128 328 -128 316 -124 c 0,305,306
 234 -98 234 -98 208 9 c 0,307,308
 204 28 204 28 204 51 c 0,309,310
 204 117 204 117 249 174 c 256,311,312
 294 231 294 231 362 251 c 1,313,-1
 338 404 l 1,314,315
 284 365 284 365 244 329 c 0,316,317
 195 285 195 285 162 241 c 0,318,319
 124 191 124 191 105 140 c 0,320,321
 83 84 83 84 83 25 c 2,322,-1
 83 16 l 2,279,280
480 -186 m 1,323,324
 586 -141 586 -141 586 -35 c 2,325,-1
 586 -26 l 2,326,327
 583 35 583 35 537 79 c 0,328,329
 492 122 492 122 430 122 c 2,330,-1
 425 122 l 1,331,-1
 480 -186 l 1,323,324
EndSplineSet
EndChar

StartChar: uniE055
Encoding: 57429 57429 98
Width: 1044
GlyphClass: 1
Flags: W
LayerCount: 2
Fore
SplineSet
1043 14 m 2,0,1
 1043 -160 1043 -160 862 -230 c 1,2,-1
 886 -377 l 2,3,4
 892 -416 892 -416 892 -448 c 0,5,6
 892 -503 892 -503 875 -544 c 0,7,8
 859 -580 859 -580 831 -605 c 0,9,10
 807 -626 807 -626 774 -638 c 0,11,12
 747 -647 747 -647 717 -649 c 0,13,14
 708 -650 708 -650 691 -650 c 0,15,16
 606 -650 606 -650 559 -612 c 0,17,18
 523 -584 523 -584 511 -536 c 1,19,20
 491 -594 491 -594 439 -624 c 0,21,22
 399 -647 399 -647 349 -649 c 2,23,-1
 326 -650 l 2,24,25
 268 -650 268 -650 227 -633 c 0,26,27
 192 -619 192 -619 170 -592 c 0,28,29
 152 -570 152 -570 143 -541 c 0,30,31
 137 -518 137 -518 137 -493 c 2,32,-1
 137 -479 l 1,33,-1
 139 -467 l 2,34,35
 140 -457 140 -457 141 -457 c 0,36,37
 153 -379 153 -379 232 -374 c 1,38,-1
 239 -374 l 2,39,40
 331 -374 331 -374 340 -469 c 1,41,-1
 340 -473 l 2,42,43
 340 -547 340 -547 270 -569 c 2,44,-1
 245 -576 l 2,45,46
 237 -578 237 -578 237 -583 c 0,47,48
 237 -589 237 -589 245 -594 c 0,49,50
 273 -614 273 -614 328 -614 c 2,51,-1
 356 -614 l 2,52,53
 364 -613 364 -613 373 -611 c 0,54,55
 398 -606 398 -606 418 -593 c 0,56,57
 446 -575 446 -575 462 -544 c 0,58,59
 481 -507 481 -507 481 -451 c 0,60,61
 481 -417 481 -417 474 -381 c 2,62,-1
 451 -243 l 1,63,-1
 447 -243 l 1,64,65
 419 -247 419 -247 381 -247 c 0,66,67
 315 -247 315 -247 256 -231 c 0,68,69
 191 -214 191 -214 141 -179 c 0,70,71
 85 -140 85 -140 52 -81 c 0,72,73
 16 -16 16 -16 9 70 c 0,74,75
 8 80 8 80 8 100 c 0,76,77
 8 169 8 169 36 236 c 0,78,79
 61 296 61 296 108 357 c 0,80,81
 147 407 147 407 208 465 c 0,82,83
 231 488 231 488 262 516 c 2,84,-1
 317 564 l 1,85,-1
 306 626 l 2,86,87
 299 686 299 686 299 726 c 0,88,89
 299 862 299 862 344 965 c 0,90,91
 388 1068 388 1068 460 1099 c 0,92,93
 460 1100 460 1100 466 1097 c 2,94,-1
 473 1093 l 1,95,-1
 482 1085 l 2,96,97
 494 1074 494 1074 506 1057 c 0,98,99
 521 1036 521 1036 534 1006 c 0,100,101
 577 911 577 911 577 816 c 0,102,103
 577 611 577 611 377 425 c 1,104,-1
 392 344 l 2,105,106
 394 338 394 338 394 334 c 2,107,-1
 409 255 l 2,108,109
 410 255 410 255 411 256 c 256,110,111
 412 257 412 257 414 257 c 0,112,113
 435 299 435 299 466 342 c 0,114,115
 495 380 495 380 533 421 c 0,116,117
 565 455 565 455 608 495 c 2,118,-1
 686 564 l 1,119,-1
 675 626 l 2,120,121
 668 675 668 675 668 729 c 0,122,123
 668 863 668 863 712 966 c 0,124,125
 757 1068 757 1068 828 1099 c 0,126,127
 828 1100 828 1100 834 1097 c 2,128,-1
 842 1093 l 1,129,-1
 851 1085 l 2,130,131
 864 1074 864 1074 875 1057 c 0,132,133
 890 1036 890 1036 903 1006 c 0,134,135
 946 906 946 906 946 814 c 0,136,137
 946 610 946 610 746 425 c 1,138,-1
 753 385 l 2,139,140
 755 369 755 369 760 344 c 2,141,-1
 777 255 l 1,142,-1
 784 257 l 1,143,-1
 804 257 l 2,144,145
 899 257 899 257 968 192 c 0,146,147
 1038 126 1038 126 1043 30 c 1,148,-1
 1043 14 l 2,0,1
759 114 m 1,149,150
 699 106 699 106 668 74 c 1,151,152
 675 52 675 52 675 30 c 2,153,-1
 675 13 l 2,154,155
 675 -26 675 -26 663 -62 c 1,156,157
 673 -78 673 -78 686 -90 c 0,158,159
 698 -101 698 -101 708 -106 c 0,160,161
 723 -113 723 -113 723 -124 c 0,162,163
 723 -133 723 -133 710 -133 c 0,164,165
 702 -133 702 -133 690 -129 c 0,166,167
 664 -117 664 -117 645 -102 c 1,168,169
 619 -149 619 -149 585 -176 c 1,170,171
 623 -194 623 -194 668 -203 c 0,172,173
 707 -211 707 -211 747 -211 c 0,174,175
 789 -211 789 -211 813 -203 c 1,176,-1
 759 114 l 1,149,150
483 -88 m 0,178,179
 505 -127 505 -127 545 -154 c 1,180,181
 594 -114 594 -114 594 -35 c 2,182,-1
 594 -29 l 1,183,184
 586 -11 586 -11 583 5 c 2,185,-1
 580 18 l 2,186,187
 578 25 578 25 578 30 c 0,188,189
 541 100 541 100 472 114 c 1,190,191
 456 73 456 73 456 12 c 0,192,177
 457 -44 457 -44 483 -88 c 0,178,179
743 845 m 0,194,195
 708 762 708 762 708 675 c 0,196,197
 708 651 708 651 710 641 c 0,198,199
 710 637 710 637 713 623 c 2,200,-1
 716 609 l 2,201,202
 718 600 718 600 719 592 c 1,203,204
 878 713 878 713 900 840 c 0,205,206
 901 845 901 845 901 850 c 2,207,-1
 901 860 l 2,208,209
 901 941 901 941 836 941 c 0,210,193
 782 938 782 938 743 845 c 0,194,195
712 403 m 1,211,212
 659 366 659 366 616 325 c 0,213,214
 568 281 568 281 534 234 c 1,215,216
 589 211 589 211 621 167 c 1,217,218
 665 227 665 227 737 248 c 1,219,-1
 712 403 l 1,211,212
374 846 m 0,221,222
 340 763 340 763 340 676 c 0,223,224
 340 652 340 652 342 641 c 0,225,226
 342 637 342 637 345 623 c 2,227,-1
 348 609 l 2,228,229
 350 600 350 600 351 592 c 1,230,231
 510 713 510 713 532 840 c 0,232,233
 533 845 533 845 533 850 c 2,234,-1
 533 860 l 2,235,236
 533 941 533 941 468 941 c 0,237,220
 413 938 413 938 374 846 c 0,221,222
88 12 m 2,238,239
 89 -50 89 -50 120 -96 c 0,240,241
 146 -137 146 -137 194 -165 c 0,242,243
 235 -189 235 -189 287 -201 c 0,244,245
 333 -211 333 -211 378 -211 c 0,246,247
 420 -211 420 -211 444 -203 c 1,248,-1
 424 -89 l 1,249,250
 384 -17 384 -17 377 70 c 0,251,252
 376 75 376 75 376 80 c 0,253,254
 375 86 375 86 375 91 c 256,255,256
 375 96 375 96 376 102 c 2,257,-1
 377 112 l 1,258,259
 273 92 273 92 273 2 c 2,260,-1
 273 -9 l 2,261,262
 274 -36 274 -36 299 -69 c 0,263,264
 322 -99 322 -99 340 -106 c 0,265,266
 354 -113 354 -113 354 -125 c 0,267,268
 354 -133 354 -133 342 -133 c 0,269,270
 334 -133 334 -133 322 -129 c 0,271,272
 238 -100 238 -100 215 5 c 0,273,274
 210 23 210 23 210 47 c 0,275,276
 210 113 210 113 255 170 c 0,277,278
 300 228 300 228 368 248 c 1,279,-1
 344 403 l 1,280,281
 290 363 290 363 250 326 c 0,282,283
 201 282 201 282 168 238 c 0,284,285
 130 188 130 188 110 137 c 0,286,287
 88 80 88 80 88 21 c 2,288,-1
 88 12 l 2,238,239
487 -192 m 1,289,290
 497 -183 497 -183 509 -180 c 1,291,-1
 481 -156 l 1,292,-1
 487 -192 l 1,289,290
724 -614 m 2,293,294
 732 -613 732 -613 741 -611 c 0,295,296
 766 -606 766 -606 786 -593 c 0,297,298
 813 -575 813 -575 829 -544 c 0,299,300
 848 -506 848 -506 848 -449 c 0,301,302
 848 -418 848 -418 842 -381 c 2,303,-1
 820 -243 l 1,304,-1
 816 -243 l 1,305,306
 788 -247 788 -247 750 -247 c 0,307,308
 637 -247 637 -247 550 -203 c 1,309,310
 521 -221 521 -221 493 -230 c 1,311,-1
 520 -388 l 1,312,-1
 521 -399 l 2,313,314
 523 -411 523 -411 523 -420 c 1,315,316
 551 -379 551 -379 601 -374 c 1,317,-1
 608 -374 l 2,318,319
 699 -374 699 -374 708 -469 c 1,320,-1
 708 -474 l 2,321,322
 708 -548 708 -548 639 -569 c 2,323,-1
 615 -576 l 2,324,325
 606 -578 606 -578 606 -583 c 256,326,327
 606 -588 606 -588 615 -594 c 0,328,329
 642 -614 642 -614 696 -614 c 2,330,-1
 724 -614 l 2,293,294
962 -40 m 2,332,-1
 962 -31 l 2,333,334
 959 32 959 32 913 76 c 0,335,336
 867 119 867 119 804 119 c 2,337,-1
 800 119 l 1,338,-1
 843 -121 l 2,339,340
 850 -160 850 -160 855 -192 c 1,341,331
 962 -147 962 -147 962 -40 c 2,332,-1
EndSplineSet
EndChar

StartChar: uniE056
Encoding: 57430 57430 99
Width: 844
GlyphClass: 1
Flags: W
LayerCount: 2
Fore
SplineSet
842 400 m 1,0,-1
 615 400 l 1,1,-1
 615 493 l 1,2,-1
 804 493 l 1,3,-1
 804 902 l 1,4,-1
 842 902 l 1,5,-1
 842 400 l 1,0,-1
804 -170 m 1,6,-1
 804 246 l 1,7,-1
 615 246 l 1,8,-1
 615 338 l 1,9,-1
 842 338 l 1,10,-1
 842 -170 l 1,11,-1
 804 -170 l 1,6,-1
670 7 m 2,12,13
 670 -166 670 -166 491 -235 c 1,14,15
 495 -265 495 -265 500 -295 c 2,16,-1
 516 -381 l 2,17,18
 522 -418 522 -418 522 -450 c 0,19,20
 522 -505 522 -505 504 -547 c 0,21,22
 489 -583 489 -583 461 -608 c 0,23,24
 436 -630 436 -630 403 -641 c 0,25,26
 376 -651 376 -651 346 -653 c 2,27,-1
 323 -654 l 2,28,29
 265 -654 265 -654 224 -637 c 0,30,31
 189 -622 189 -622 167 -596 c 0,32,33
 149 -573 149 -573 140 -544 c 0,34,35
 134 -521 134 -521 134 -496 c 0,36,37
 134 -483 134 -483 136 -471 c 0,38,39
 137 -462 137 -462 138 -462 c 0,40,41
 152 -383 152 -383 230 -378 c 1,42,-1
 235 -378 l 2,43,44
 275 -378 275 -378 305 -406 c 0,45,46
 334 -434 334 -434 337 -473 c 2,47,-1
 337 -479 l 2,48,49
 337 -551 337 -551 269 -572 c 0,50,51
 263 -575 263 -575 256 -577 c 2,52,-1
 243 -580 l 2,53,54
 235 -582 235 -582 235 -587 c 256,55,56
 235 -592 235 -592 243 -597 c 0,57,58
 272 -617 272 -617 325 -617 c 2,59,-1
 353 -617 l 2,60,61
 361 -616 361 -616 370 -614 c 0,62,63
 395 -609 395 -609 415 -596 c 0,64,65
 442 -578 442 -578 458 -547 c 0,66,67
 477 -510 477 -510 477 -454 c 0,68,69
 477 -423 477 -423 471 -386 c 2,70,-1
 448 -248 l 1,71,-1
 443 -248 l 1,72,73
 415 -252 415 -252 378 -252 c 0,74,75
 313 -252 313 -252 254 -236 c 0,76,77
 189 -219 189 -219 139 -184 c 0,78,79
 84 -145 84 -145 51 -87 c 0,80,81
 15 -22 15 -22 8 64 c 0,82,83
 7 74 7 74 7 94 c 0,84,85
 7 162 7 162 35 229 c 0,86,87
 59 288 59 288 107 349 c 0,88,89
 146 400 146 400 205 457 c 0,90,91
 229 480 229 480 259 507 c 2,92,-1
 314 555 l 1,93,-1
 304 617 l 2,94,95
 297 677 297 677 297 718 c 0,96,97
 297 853 297 853 341 956 c 0,98,99
 385 1058 385 1058 457 1089 c 0,100,101
 457 1090 457 1090 463 1087 c 2,102,-1
 470 1083 l 1,103,-1
 479 1075 l 2,104,105
 491 1064 491 1064 503 1047 c 0,106,107
 518 1026 518 1026 531 996 c 0,108,109
 574 901 574 901 574 806 c 0,110,111
 574 603 574 603 375 418 c 1,112,-1
 406 248 l 1,113,114
 409 250 409 250 413 251 c 2,115,-1
 431 251 l 2,116,117
 526 251 526 251 596 185 c 0,118,119
 666 118 666 118 670 23 c 1,120,-1
 670 7 l 2,12,13
372 837 m 0,122,123
 338 755 338 755 338 669 c 0,124,125
 338 644 338 644 340 633 c 0,126,127
 340 623 340 623 348 589 c 2,128,-1
 349 585 l 1,129,130
 509 703 509 703 528 831 c 0,131,132
 529 834 529 834 529 839 c 2,133,-1
 529 847 l 2,134,135
 529 881 529 881 514 904 c 0,136,137
 496 931 496 931 462 931 c 0,138,121
 409 928 409 928 372 837 c 0,122,123
86 5 m 2,139,140
 88 -57 88 -57 118 -103 c 0,141,142
 145 -144 145 -144 192 -171 c 0,143,144
 233 -194 233 -194 285 -206 c 0,145,146
 330 -216 330 -216 375 -216 c 0,147,148
 417 -216 417 -216 441 -208 c 1,149,-1
 389 109 l 1,150,151
 335 100 335 100 305 74 c 0,152,153
 271 44 271 44 271 -4 c 2,154,-1
 271 -14 l 2,155,156
 272 -42 272 -42 297 -75 c 0,157,158
 319 -104 319 -104 337 -112 c 0,159,160
 352 -119 352 -119 352 -130 c 0,161,162
 352 -137 352 -137 340 -137 c 0,163,164
 331 -137 331 -137 319 -133 c 0,165,166
 237 -108 237 -108 213 -1 c 0,167,168
 207 20 207 20 207 42 c 0,169,170
 207 108 207 108 253 165 c 0,171,172
 298 221 298 221 366 242 c 1,173,-1
 341 394 l 1,174,175
 287 355 287 355 247 318 c 0,176,177
 198 274 198 274 165 231 c 0,178,179
 127 181 127 181 108 129 c 0,180,181
 86 73 86 73 86 13 c 2,182,-1
 86 5 l 2,139,140
483 -196 m 1,183,184
 590 -151 590 -151 590 -46 c 2,185,-1
 590 -37 l 2,186,187
 588 26 588 26 541 70 c 0,188,189
 495 113 495 113 432 113 c 2,190,-1
 428 113 l 1,191,-1
 483 -196 l 1,183,184
EndSplineSet
EndChar

StartChar: uniE057
Encoding: 57431 57431 100
Width: 664
GlyphClass: 1
Flags: W
LayerCount: 2
Fore
SplineSet
584 -26 m 2,0,1
 581 36 581 36 535 79 c 256,2,3
 489 122 489 122 427 122 c 2,4,-1
 423 122 l 1,5,-1
 479 -187 l 1,6,7
 584 -142 584 -142 584 -37 c 2,8,-1
 584 -26 l 2,0,1
80 15 m 2,9,10
 82 -47 82 -47 112 -93 c 0,11,12
 139 -134 139 -134 186 -161 c 0,13,14
 227 -185 227 -185 279 -197 c 0,15,16
 325 -207 325 -207 370 -207 c 0,17,18
 412 -207 412 -207 436 -199 c 1,19,-1
 383 118 l 1,20,21
 329 109 329 109 299 83 c 0,22,23
 265 54 265 54 265 6 c 2,24,-1
 265 -4 l 2,25,26
 267 -32 267 -32 292 -65 c 0,27,28
 314 -95 314 -95 331 -102 c 0,29,30
 346 -109 346 -109 346 -120 c 0,31,32
 346 -128 346 -128 333 -128 c 0,33,34
 325 -128 325 -128 313 -125 c 0,35,36
 231 -96 231 -96 206 8 c 0,37,38
 201 31 201 31 201 50 c 0,39,40
 201 117 201 117 247 174 c 0,41,42
 292 231 292 231 360 251 c 1,43,-1
 335 406 l 1,44,45
 281 367 281 367 241 330 c 0,46,47
 192 286 192 286 159 242 c 0,48,49
 121 192 121 192 102 141 c 0,50,51
 80 84 80 84 80 25 c 2,52,-1
 80 15 l 2,9,10
366 846 m 0,54,55
 331 763 331 763 331 676 c 0,56,57
 331 664 331 664 333 644 c 0,58,59
 333 640 333 640 336 626 c 0,60,61
 338 614 338 614 343 595 c 1,62,63
 502 715 502 715 523 842 c 0,64,65
 524 847 524 847 524 853 c 2,66,-1
 524 863 l 2,67,68
 524 944 524 944 460 944 c 0,69,53
 405 941 405 941 366 846 c 0,54,55
383 -683 m 2,70,71
 383 -666 383 -666 374 -661 c 0,72,73
 358 -645 358 -645 335 -645 c 0,74,75
 307 -649 307 -649 304 -669 c 0,76,77
 304 -684 304 -684 322 -702 c 2,78,-1
 333 -713 l 2,79,80
 341 -720 341 -720 347 -724 c 0,81,82
 355 -729 355 -729 360 -729 c 0,83,84
 371 -729 371 -729 377 -715 c 2,85,-1
 381 -702 l 1,86,-1
 383 -683 l 2,70,71
343 -820 m 2,88,-1
 343 -813 l 1,89,-1
 341 -807 l 2,90,91
 332 -786 332 -786 316 -773 c 2,92,-1
 294 -755 l 2,93,94
 290 -752 290 -752 287 -752 c 0,95,96
 283 -752 283 -752 278 -755 c 0,97,98
 278 -756 278 -756 275 -758 c 2,99,-1
 272 -760 l 2,100,101
 268 -764 268 -764 268 -768 c 0,102,103
 257 -779 257 -779 257 -798 c 2,104,-1
 258 -805 l 2,105,106
 267 -854 267 -854 308 -854 c 0,107,87
 343 -854 343 -854 343 -820 c 2,88,-1
426 261 m 2,108,109
 521 261 521 261 591 195 c 256,110,111
 661 129 661 129 666 33 c 1,112,-1
 666 17 l 2,113,114
 666 -156 666 -156 486 -226 c 1,115,-1
 509 -372 l 2,116,117
 516 -408 516 -408 516 -444 c 0,118,119
 516 -516 516 -516 485 -565 c 0,120,121
 459 -606 459 -606 413 -627 c 1,122,123
 500 -675 500 -675 500 -763 c 0,124,125
 500 -852 500 -852 413 -899 c 0,126,127
 413 -900 413 -900 412 -900 c 2,128,-1
 411 -891 l 2,129,130
 411 -889 411 -889 413 -887 c 0,131,132
 462 -848 462 -848 462 -763 c 0,133,134
 462 -676 462 -676 413 -639 c 0,135,136
 411 -638 411 -638 411 -635 c 2,137,-1
 411 -628 l 1,138,139
 395 -635 395 -635 378 -640 c 1,140,141
 417 -653 417 -653 417 -688 c 0,142,143
 417 -708 417 -708 405 -720 c 0,144,145
 403 -723 403 -723 400 -725 c 2,146,-1
 387 -736 l 2,147,148
 379 -741 379 -741 379 -749 c 0,149,150
 379 -752 379 -752 380 -756 c 0,151,152
 381 -757 381 -757 382 -760 c 1,153,154
 381 -759 381 -759 382 -762 c 0,155,156
 383 -763 383 -763 383 -764 c 0,157,158
 392 -780 392 -780 392 -797 c 0,159,160
 392 -843 392 -843 349 -859 c 0,161,162
 340 -863 340 -863 329 -864 c 0,163,164
 324 -865 324 -865 318 -865 c 2,165,-1
 308 -865 l 2,166,167
 281 -865 281 -865 256 -850 c 0,168,169
 228 -834 228 -834 222 -809 c 0,170,171
 221 -806 221 -806 221 -800 c 0,172,173
 221 -750 221 -750 270 -736 c 0,174,175
 276 -734 276 -734 276 -731 c 256,176,177
 276 -728 276 -728 274 -726 c 0,178,179
 258 -709 258 -709 258 -688 c 0,180,181
 258 -662 258 -662 280 -645 c 1,182,183
 253 -642 253 -642 236 -635 c 1,184,-1
 235 -637 l 1,185,186
 186 -674 186 -674 186 -761 c 0,187,188
 186 -847 186 -847 235 -886 c 0,189,190
 237 -886 237 -886 237 -889 c 2,191,-1
 237 -897 l 1,192,-1
 235 -898 l 1,193,194
 148 -850 148 -850 148 -761 c 0,195,196
 148 -679 148 -679 224 -631 c 1,197,198
 170 -610 170 -610 146 -562 c 0,199,200
 129 -528 129 -528 129 -486 c 0,201,202
 129 -453 129 -453 133 -453 c 0,203,204
 145 -373 145 -373 225 -370 c 2,205,-1
 232 -370 l 2,206,207
 271 -370 271 -370 300 -398 c 0,208,209
 328 -425 328 -425 331 -464 c 2,210,-1
 331 -469 l 2,211,212
 331 -540 331 -540 262 -564 c 0,213,214
 257 -567 257 -567 250 -569 c 2,215,-1
 244 -570 l 2,216,217
 240 -570 240 -570 238 -571 c 0,218,219
 230 -573 230 -573 230 -578 c 0,220,221
 230 -582 230 -582 238 -589 c 0,222,223
 266 -609 266 -609 321 -609 c 2,224,-1
 346 -609 l 2,225,226
 355 -608 355 -608 363 -606 c 0,227,228
 388 -601 388 -601 409 -587 c 0,229,230
 437 -569 437 -569 453 -538 c 0,231,232
 472 -500 472 -500 472 -443 c 0,233,234
 472 -413 472 -413 466 -376 c 2,235,-1
 444 -240 l 1,236,-1
 438 -240 l 1,237,238
 398 -244 398 -244 376 -244 c 0,239,240
 310 -244 310 -244 251 -228 c 0,241,242
 185 -211 185 -211 135 -176 c 0,243,244
 79 -137 79 -137 46 -79 c 0,245,246
 9 -14 9 -14 2 73 c 0,247,248
 1 83 1 83 1 103 c 0,249,250
 1 172 1 172 29 239 c 0,251,252
 53 299 53 299 101 360 c 0,253,254
 140 411 140 411 199 468 c 0,255,256
 223 491 223 491 253 518 c 2,257,-1
 308 566 l 1,258,-1
 299 629 l 2,259,260
 292 678 292 678 292 732 c 0,261,262
 292 867 292 867 336 968 c 0,263,264
 380 1070 380 1070 452 1101 c 0,265,266
 452 1102 452 1102 458 1099 c 0,267,268
 462 1097 462 1097 466 1094 c 2,269,-1
 475 1087 l 2,270,271
 487 1076 487 1076 499 1059 c 0,272,273
 513 1038 513 1038 526 1008 c 0,274,275
 569 908 569 908 569 816 c 0,276,277
 569 615 569 615 370 428 c 1,278,-1
 401 259 l 1,279,280
 405 261 405 261 415 261 c 2,281,-1
 426 261 l 2,108,109
EndSplineSet
EndChar

StartChar: uniE058
Encoding: 57432 57432 101
Width: 692
GlyphClass: 1
Flags: W
LayerCount: 2
Fore
SplineSet
682 10 m 2,0,1
 682 -166 682 -166 499 -236 c 1,2,3
 503 -267 503 -267 508 -298 c 2,4,-1
 523 -385 l 2,5,6
 530 -420 530 -420 530 -455 c 0,7,8
 530 -510 530 -510 512 -552 c 0,9,10
 497 -589 497 -589 468 -615 c 0,11,12
 443 -637 443 -637 410 -649 c 0,13,14
 382 -659 382 -659 352 -661 c 2,15,-1
 155 -661 l 1,16,-1
 155 -647 l 1,17,-1
 349 -647 l 1,18,-1
 358 -646 l 1,19,-1
 375 -641 l 2,20,21
 401 -633 401 -633 422 -616 c 0,22,23
 450 -594 450 -594 465 -561 c 0,24,25
 485 -519 485 -519 485 -462 c 0,26,27
 485 -428 485 -428 478 -390 c 2,28,-1
 452 -252 l 2,29,30
 451 -250 451 -250 449 -250 c 2,31,-1
 411 -253 l 2,32,33
 396 -254 396 -254 383 -254 c 0,34,35
 317 -254 317 -254 258 -238 c 0,36,37
 192 -221 192 -221 142 -185 c 0,38,39
 85 -146 85 -146 52 -87 c 0,40,41
 16 -21 16 -21 8 66 c 2,42,-1
 6 96 l 1,43,44
 6 165 6 165 34 233 c 0,45,46
 59 294 59 294 108 356 c 0,47,48
 148 408 148 408 209 466 c 0,49,50
 233 490 233 490 264 517 c 2,51,-1
 320 566 l 1,52,-1
 309 629 l 2,53,54
 302 677 302 677 302 731 c 0,55,56
 302 868 302 868 347 972 c 256,57,58
 392 1076 392 1076 465 1108 c 0,59,60
 465 1109 465 1109 471 1106 c 0,61,62
 475 1104 475 1104 478 1101 c 0,63,64
 483 1098 483 1098 488 1094 c 0,65,66
 500 1082 500 1082 512 1065 c 0,67,68
 527 1043 527 1043 540 1013 c 0,69,70
 582 919 582 919 582 821 c 0,71,72
 582 613 582 613 381 426 c 1,73,-1
 413 254 l 1,74,-1
 420 256 l 1,75,-1
 438 256 l 2,76,77
 534 256 534 256 605 189 c 0,78,79
 677 122 677 122 682 26 c 1,80,-1
 682 10 l 2,0,1
378 851 m 0,82,83
 343 768 343 768 343 679 c 0,84,85
 343 656 343 656 345 645 c 0,86,87
 345 640 345 640 348 627 c 2,88,-1
 354 595 l 1,89,90
 515 716 515 716 537 846 c 1,91,-1
 539 866 l 1,92,93
 539 948 539 948 474 948 c 0,94,81
 417 945 417 945 378 851 c 0,82,83
87 8 m 2,95,96
 89 -54 89 -54 119 -102 c 0,97,98
 146 -143 146 -143 194 -171 c 0,99,100
 236 -195 236 -195 289 -207 c 0,101,102
 335 -218 335 -218 381 -218 c 0,103,104
 420 -218 420 -218 449 -209 c 1,105,-1
 395 112 l 1,106,107
 340 102 340 102 310 76 c 0,108,109
 275 46 275 46 275 -4 c 2,110,-1
 275 -13 l 2,111,112
 276 -41 276 -41 302 -74 c 0,113,114
 325 -104 325 -104 343 -112 c 1,115,-1
 352 -120 l 2,116,117
 356 -125 356 -125 356 -130 c 0,118,119
 356 -139 356 -139 345 -139 c 2,120,-1
 325 -135 l 1,121,122
 241 -107 241 -107 216 1 c 0,123,124
 213 10 213 10 213 23 c 0,125,126
 212 27 212 27 212 33 c 2,127,-1
 212 44 l 2,128,129
 212 112 212 112 257 169 c 0,130,131
 302 227 302 227 372 247 c 1,132,-1
 347 403 l 1,133,134
 292 363 292 363 251 326 c 0,135,136
 202 282 202 282 168 237 c 0,137,138
 129 186 129 186 109 134 c 0,139,140
 87 77 87 77 87 17 c 2,141,-1
 87 8 l 2,95,96
492 -198 m 1,142,143
 600 -150 600 -150 600 -35 c 0,144,145
 600 27 600 27 551 72 c 0,146,147
 501 116 501 116 435 116 c 1,148,-1
 492 -198 l 1,142,143
EndSplineSet
EndChar

StartChar: uniE059
Encoding: 57433 57433 102
Width: 685
GlyphClass: 1
Flags: W
LayerCount: 2
Fore
SplineSet
579 810 m 2,0,1
 579 750 579 750 561 693 c 0,2,3
 545 643 545 643 514 592 c 0,4,5
 489 551 489 551 449 504 c 2,6,-1
 414 463 l 2,7,8
 402 451 402 451 378 424 c 1,9,-1
 393 342 l 1,10,-1
 407 256 l 1,11,-1
 434 257 l 2,12,13
 531 257 531 257 601 190 c 0,14,15
 672 123 672 123 677 27 c 1,16,-1
 677 13 l 2,17,18
 677 -166 677 -166 494 -235 c 1,19,20
 500 -266 500 -266 505 -296 c 2,21,-1
 520 -382 l 2,22,23
 525 -412 525 -412 525 -432 c 2,24,-1
 526 -451 l 2,25,26
 526 -506 526 -506 508 -548 c 0,27,28
 493 -585 493 -585 464 -611 c 0,29,30
 440 -633 440 -633 407 -645 c 0,31,32
 379 -655 379 -655 350 -656 c 2,33,-1
 326 -657 l 2,34,35
 271 -657 271 -657 231 -642 c 0,36,37
 197 -628 197 -628 175 -604 c 0,38,39
 156 -583 156 -583 147 -555 c 0,40,41
 139 -533 139 -533 138 -508 c 2,42,-1
 137 -481 l 1,43,-1
 140 -463 l 2,44,45
 150 -385 150 -385 234 -380 c 1,46,-1
 239 -380 l 2,47,48
 278 -380 278 -380 308 -407 c 0,49,50
 338 -435 338 -435 340 -475 c 2,51,-1
 340 -482 l 2,52,53
 340 -554 340 -554 269 -575 c 0,54,55
 259 -579 259 -579 245 -581 c 0,56,57
 237 -583 237 -583 237 -589 c 0,58,59
 237 -593 237 -593 246 -599 c 0,60,61
 275 -621 275 -621 327 -621 c 0,62,63
 343 -621 343 -621 351 -620 c 0,64,65
 357 -620 357 -620 363 -619 c 0,66,67
 372 -618 372 -618 381 -615 c 0,68,69
 405 -609 405 -609 424 -595 c 0,70,71
 449 -576 449 -576 463 -546 c 0,72,73
 480 -508 480 -508 480 -455 c 2,74,-1
 479 -434 l 2,75,76
 479 -414 479 -414 474 -386 c 2,77,-1
 453 -248 l 1,78,-1
 385 -253 l 1,79,80
 319 -253 319 -253 259 -237 c 0,81,82
 193 -220 193 -220 142 -185 c 0,83,84
 86 -146 86 -146 53 -87 c 0,85,86
 16 -21 16 -21 9 66 c 2,87,-1
 7 97 l 1,88,89
 7 166 7 166 35 234 c 0,90,91
 60 293 60 293 108 355 c 0,92,93
 148 405 148 405 208 463 c 0,94,95
 232 486 232 486 263 514 c 2,96,-1
 318 563 l 1,97,-1
 308 625 l 1,98,-1
 301 691 l 2,99,100
 300 700 300 700 300 711 c 2,101,-1
 300 730 l 2,102,103
 300 865 300 865 345 968 c 0,104,105
 389 1070 389 1070 462 1103 c 1,106,-1
 475 1104 l 2,107,108
 492 1104 492 1104 495 1091 c 2,109,-1
 495 1077 l 2,110,111
 495 1028 495 1028 485 978 c 0,112,113
 481 960 481 960 476 951 c 0,114,115
 471 944 471 944 466 944 c 0,116,117
 413 940 413 940 375 847 c 0,118,119
 340 763 340 763 340 677 c 2,120,-1
 340 663 l 2,121,122
 340 658 340 658 341 653 c 2,123,-1
 345 619 l 1,124,-1
 350 590 l 1,125,126
 513 717 513 717 533 841 c 0,127,128
 534 856 534 856 556 858 c 0,129,130
 578 858 578 858 578 833 c 2,131,-1
 579 810 l 2,0,1
88 1 m 2,132,133
 91 -59 91 -59 122 -105 c 0,134,135
 150 -145 150 -145 197 -172 c 0,136,137
 238 -195 238 -195 291 -207 c 0,138,139
 336 -217 336 -217 381 -217 c 2,140,-1
 400 -216 l 2,141,142
 425 -215 425 -215 446 -209 c 1,143,-1
 393 112 l 1,144,145
 337 102 337 102 308 76 c 0,146,147
 274 46 274 46 274 -2 c 2,148,-1
 274 -10 l 2,149,150
 277 -68 277 -68 339 -111 c 1,151,152
 339 -110 339 -110 344 -117 c 0,153,154
 348 -125 348 -125 348 -129 c 0,155,156
 348 -135 348 -135 341 -135 c 2,157,-1
 333 -135 l 1,158,-1
 322 -132 l 2,159,160
 240 -106 240 -106 214 2 c 0,161,162
 210 24 210 24 209 35 c 2,163,-1
 209 43 l 2,164,165
 209 111 209 111 254 168 c 0,166,167
 300 226 300 226 370 247 c 1,168,-1
 343 403 l 1,169,170
 289 363 289 363 249 326 c 0,171,172
 200 282 200 282 167 237 c 0,173,174
 129 187 129 187 110 135 c 0,175,176
 88 78 88 78 88 18 c 2,177,-1
 88 1 l 2,132,133
596 -46 m 2,179,-1
 596 -35 l 1,180,181
 592 28 592 28 545 73 c 0,182,183
 498 117 498 117 434 117 c 1,184,185
 446 39 446 39 461 -47 c 0,186,187
 474 -121 474 -121 488 -195 c 1,188,178
 596 -150 596 -150 596 -46 c 2,179,-1
EndSplineSet
EndChar

StartChar: uniE05A
Encoding: 57434 57434 103
Width: 669
GlyphClass: 1
Flags: W
LayerCount: 2
Fore
SplineSet
588 -34 m 2,0,1
 585 29 585 29 538 73 c 0,2,3
 492 117 492 117 430 117 c 2,4,-1
 426 117 l 1,5,6
 432 77 432 77 440 34 c 0,7,8
 446 -5 446 -5 454 -47 c 2,9,-1
 480 -195 l 1,10,11
 588 -149 588 -149 588 -45 c 2,12,-1
 588 -34 l 2,0,1
80 8 m 2,13,14
 82 -54 82 -54 113 -101 c 0,15,16
 140 -142 140 -142 188 -170 c 0,17,18
 229 -194 229 -194 283 -206 c 0,19,20
 329 -216 329 -216 374 -216 c 0,21,22
 414 -216 414 -216 438 -208 c 1,23,-1
 385 112 l 1,24,25
 330 101 330 101 300 76 c 0,26,27
 266 47 266 47 266 -2 c 2,28,-1
 266 -10 l 2,29,30
 269 -69 269 -69 332 -111 c 1,31,32
 332 -110 332 -110 337 -117 c 0,33,34
 341 -125 341 -125 341 -129 c 0,35,36
 341 -135 341 -135 333 -135 c 0,37,38
 326 -135 326 -135 315 -131 c 0,39,40
 231 -105 231 -105 207 3 c 0,41,42
 202 21 202 21 202 46 c 0,43,44
 202 113 202 113 248 169 c 0,45,46
 293 226 293 226 362 247 c 1,47,-1
 336 403 l 1,48,49
 282 364 282 364 241 326 c 0,50,51
 193 282 193 282 159 237 c 0,52,53
 121 187 121 187 102 135 c 0,54,55
 80 78 80 78 80 18 c 2,56,-1
 80 8 l 2,13,14
427 257 m 2,57,58
 523 257 523 257 593 190 c 0,59,60
 664 123 664 123 669 27 c 1,61,-1
 669 13 l 2,62,63
 669 -166 669 -166 486 -235 c 1,64,65
 492 -266 492 -266 497 -296 c 2,66,-1
 512 -382 l 2,67,68
 518 -419 518 -419 518 -451 c 0,69,70
 518 -506 518 -506 500 -548 c 0,71,72
 485 -585 485 -585 457 -610 c 0,73,74
 432 -632 432 -632 399 -644 c 0,75,76
 372 -654 372 -654 342 -656 c 2,77,-1
 319 -657 l 2,78,79
 260 -657 260 -657 219 -640 c 0,80,81
 184 -625 184 -625 162 -598 c 0,82,83
 144 -576 144 -576 136 -546 c 0,84,85
 130 -523 130 -523 130 -497 c 2,86,-1
 130 -483 l 1,87,-1
 133 -463 l 2,88,89
 142 -383 142 -383 227 -380 c 2,90,-1
 233 -380 l 2,91,92
 272 -380 272 -380 301 -407 c 0,93,94
 331 -434 331 -434 333 -474 c 2,95,-1
 333 -479 l 2,96,97
 333 -552 333 -552 261 -575 c 0,98,99
 249 -580 249 -580 237 -580 c 0,100,101
 230 -583 230 -583 230 -588 c 256,102,103
 230 -593 230 -593 238 -598 c 0,104,105
 265 -620 265 -620 321 -620 c 2,106,-1
 347 -620 l 2,107,108
 350 -619 350 -619 353 -619 c 0,109,110
 362 -618 362 -618 370 -616 c 0,111,112
 394 -610 394 -610 414 -596 c 0,113,114
 439 -577 439 -577 454 -546 c 0,115,116
 471 -507 471 -507 471 -452 c 0,117,118
 471 -417 471 -417 466 -386 c 2,119,-1
 445 -248 l 1,120,-1
 440 -248 l 1,121,122
 412 -252 412 -252 374 -252 c 0,123,124
 308 -252 308 -252 249 -236 c 0,125,126
 183 -219 183 -219 133 -184 c 0,127,128
 77 -145 77 -145 44 -86 c 0,129,130
 7 -21 7 -21 1 66 c 0,131,132
 0 76 0 76 0 96 c 0,133,134
 0 165 0 165 28 233 c 0,135,136
 53 293 53 293 100 354 c 0,137,138
 140 405 140 405 200 463 c 0,139,140
 224 486 224 486 255 514 c 2,141,-1
 310 563 l 1,142,-1
 258 915 l 1,143,-1
 160 903 l 1,144,-1
 239 1259 l 1,145,-1
 393 931 l 1,146,-1
 297 920 l 1,147,148
 298 902 298 902 304 854 c 0,149,150
 309 814 309 814 318 755 c 0,151,152
 324 708 324 708 332 657 c 2,153,-1
 342 591 l 1,154,155
 400 636 400 636 438 689 c 0,156,157
 470 733 470 733 479 766 c 0,158,159
 496 834 496 834 496 876 c 0,160,161
 496 901 496 901 491 922 c 2,162,-1
 485 939 l 2,163,164
 484 943 484 943 482 947 c 2,165,-1
 475 966 l 1,166,167
 548 914 548 914 548 786 c 0,168,169
 548 748 548 748 539 704 c 0,170,171
 522 621 522 621 475 548 c 0,172,173
 454 515 454 515 427 483 c 0,174,175
 403 455 403 455 371 424 c 1,176,-1
 373 414 l 2,177,178
 376 400 376 400 380 376 c 2,179,-1
 400 256 l 1,180,-1
 427 257 l 2,57,58
EndSplineSet
EndChar

StartChar: uniE05B
Encoding: 57435 57435 104
Width: 673
GlyphClass: 1
Flags: W
LayerCount: 2
Fore
SplineSet
371 846 m 0,1,2
 336 763 336 763 336 677 c 0,3,4
 336 653 336 653 338 643 c 2,5,-1
 340 630 l 2,6,7
 341 627 341 627 341 624 c 0,8,9
 344 607 344 607 346 590 c 1,10,11
 511 717 511 717 529 841 c 1,12,-1
 531 863 l 1,13,14
 531 944 531 944 466 944 c 1,15,0
 410 939 410 939 371 846 c 0,1,2
84 8 m 2,16,17
 86 -54 86 -54 117 -101 c 0,18,19
 144 -143 144 -143 192 -170 c 0,20,21
 233 -194 233 -194 287 -207 c 0,22,23
 333 -217 333 -217 378 -217 c 0,24,25
 420 -217 420 -217 442 -209 c 1,26,-1
 389 112 l 1,27,28
 334 101 334 101 305 76 c 0,29,30
 271 46 271 46 271 -3 c 2,31,-1
 271 -11 l 2,32,33
 274 -70 274 -70 336 -111 c 1,34,35
 336 -110 336 -110 341 -118 c 0,36,37
 345 -126 345 -126 345 -130 c 0,38,39
 345 -136 345 -136 337 -136 c 0,40,41
 330 -136 330 -136 319 -132 c 0,42,43
 235 -106 235 -106 211 2 c 0,44,45
 206 20 206 20 206 45 c 0,46,47
 206 112 206 112 252 169 c 0,48,49
 296 225 296 225 366 247 c 1,50,-1
 340 403 l 1,51,52
 286 363 286 363 245 326 c 0,53,54
 197 281 197 281 163 237 c 0,55,56
 125 186 125 186 106 135 c 0,57,58
 84 78 84 78 84 18 c 2,59,-1
 84 8 l 2,16,17
484 -196 m 1,60,61
 592 -150 592 -150 592 -46 c 2,62,-1
 592 -35 l 2,63,64
 589 28 589 28 541 73 c 0,65,66
 494 117 494 117 430 117 c 1,67,68
 441 45 441 45 456 -40 c 2,69,-1
 484 -196 l 1,60,61
412 -252 m 2,70,71
 394 -253 394 -253 379 -253 c 0,72,73
 313 -253 313 -253 254 -237 c 0,74,75
 188 -220 188 -220 138 -185 c 0,76,77
 81 -146 81 -146 48 -87 c 0,78,79
 12 -21 12 -21 5 66 c 0,80,81
 4 76 4 76 4 96 c 0,82,83
 4 165 4 165 32 233 c 0,84,85
 57 292 57 292 104 354 c 0,86,87
 144 405 144 405 204 462 c 0,88,89
 228 486 228 486 259 513 c 2,90,-1
 315 562 l 1,91,-1
 304 625 l 2,92,93
 297 675 297 675 297 730 c 0,94,95
 297 865 297 865 342 968 c 0,96,97
 386 1071 386 1071 458 1103 c 0,98,99
 458 1104 458 1104 465 1100 c 2,100,-1
 483 1086 l 2,101,102
 496 1074 496 1074 507 1057 c 0,103,104
 522 1035 522 1035 534 1007 c 0,105,106
 576 905 576 905 576 812 c 0,107,108
 576 751 576 751 558 694 c 0,109,110
 542 643 542 643 511 593 c 0,111,112
 486 551 486 551 446 504 c 0,113,114
 431 485 431 485 411 463 c 0,115,116
 400 450 400 450 375 423 c 1,117,-1
 390 342 l 1,118,-1
 404 256 l 1,119,-1
 431 256 l 2,120,121
 527 256 527 256 597 189 c 0,122,123
 668 122 668 122 673 26 c 1,124,-1
 673 12 l 2,125,126
 673 -167 673 -167 491 -235 c 1,127,-1
 519 -398 l 1,128,-1
 612 -387 l 1,129,-1
 533 -743 l 1,130,-1
 379 -415 l 1,131,-1
 473 -404 l 1,132,133
 469 -372 469 -372 461 -326 c 2,134,-1
 449 -249 l 1,135,-1
 412 -252 l 2,70,71
EndSplineSet
EndChar

StartChar: uniE05C
Encoding: 57436 57436 105
Width: 674
GlyphClass: 1
Flags: W
LayerCount: 2
Fore
SplineSet
674 -271 m 0,0,1
 674 -374 674 -374 618 -439 c 0,2,3
 559 -509 559 -509 458 -509 c 0,4,5
 388 -509 388 -509 338 -483 c 0,6,7
 275 -451 275 -451 275 -387 c 0,8,9
 275 -357 275 -357 294.5 -334.5 c 128,-1,10
 314 -312 314 -312 343 -312 c 256,11,12
 372 -312 372 -312 392 -329 c 128,-1,13
 412 -346 412 -346 412 -375 c 0,14,15
 412 -398 412 -398 391 -424 c 2,16,-1
 370 -450 l 1,17,18
 370 -480 370 -480 429 -480 c 0,19,20
 542 -480 542 -480 542 -284 c 0,21,22
 542 -195 542 -195 531 -159 c 0,23,24
 511 -93 511 -93 455 -93 c 2,25,-1
 445 -93 l 2,26,27
 399 -93 399 -93 369 -143 c 0,28,29
 345 -182 345 -182 339 -235 c 1,30,31
 302 -64 302 -64 213 -8 c 1,32,-1
 213 -509 l 1,33,-1
 176 -509 l 1,34,-1
 176 509 l 1,35,-1
 213 509 l 1,36,-1
 213 9 l 1,37,38
 298 60 298 60 337 235 c 1,39,40
 352 145 352 145 404 108 c 0,41,42
 424 94 424 94 448 94 c 0,43,44
 514 94 514 94 532 163 c 0,45,46
 542 202 542 202 542 290 c 0,47,48
 542 377 542 377 526 415 c 0,49,50
 502 472 502 472 429 479 c 1,51,52
 370 479 370 479 370 450 c 1,53,54
 412 399 412 399 412 376 c 0,55,56
 412 347 412 347 392.5 330.5 c 128,-1,57
 373 314 373 314 343 314 c 256,58,59
 313 314 313 314 294 336 c 128,-1,60
 275 358 275 358 275 388 c 0,61,62
 275 452 275 452 338 484 c 0,63,64
 387 509 387 509 458 509 c 0,65,66
 560 509 560 509 618 440 c 0,67,68
 673 375 673 375 673 271 c 0,69,70
 673 186 673 186 623.5 125 c 128,-1,71
 574 64 574 64 490 55 c 1,72,73
 436 55 436 55 387 74 c 1,74,-1
 341 0 l 1,75,-1
 387 -73 l 1,76,77
 444 -52 444 -52 490 -54 c 0,78,79
 571 -58 571 -58 624 -125 c 0,80,81
 674 -188 674 -188 674 -271 c 0,0,1
117 -509 m 1,82,-1
 0 -509 l 1,83,-1
 0 509 l 1,84,-1
 117 509 l 1,85,-1
 117 -509 l 1,82,-1
EndSplineSet
EndChar

StartChar: uniE05D
Encoding: 57437 57437 106
Width: 699
GlyphClass: 1
Flags: W
LayerCount: 2
Fore
SplineSet
105 503 m 2,0,1
 128 503 128 503 128 480 c 2,2,-1
 128 -480 l 2,3,4
 128 -503 128 -503 105 -503 c 2,5,-1
 23 -503 l 2,6,7
 0 -503 0 -503 0 -480 c 2,8,-1
 0 480 l 2,9,10
 0 503 0 503 23 503 c 2,11,-1
 105 503 l 2,0,1
409 -517 m 0,13,14
 396 -502 396 -502 365 -502 c 0,15,16
 334 -504 334 -504 331 -531 c 0,17,18
 331 -540 331 -540 338 -550 c 0,19,20
 340 -554 340 -554 344 -559 c 2,21,-1
 355 -571 l 2,22,23
 356 -573 356 -573 357 -573 c 0,24,25
 361 -578 361 -578 364 -580 c 0,26,27
 373 -589 373 -589 379 -593 c 0,28,29
 389 -598 389 -598 394 -598 c 0,30,31
 406 -598 406 -598 413 -579 c 0,32,33
 418 -566 418 -566 419 -548 c 0,34,12
 419 -531 419 -531 409 -517 c 0,13,14
374 -700 m 0,36,37
 374 -692 374 -692 371 -686 c 0,38,39
 363 -665 363 -665 344 -648 c 2,40,-1
 317 -628 l 2,41,42
 313 -626 313 -626 309 -626 c 0,43,44
 300 -626 300 -626 293 -633 c 0,45,46
 290 -636 290 -636 286 -642 c 0,47,48
 276 -657 276 -657 276 -675 c 2,49,-1
 276 -683 l 1,50,51
 289 -740 289 -740 334 -740 c 0,52,35
 374 -738 374 -738 374 -700 c 0,36,37
375 -32 m 2,53,54
 385 -48 385 -48 392 -57 c 0,55,56
 404 -70 404 -70 414 -70 c 0,57,58
 418 -70 418 -70 425 -67 c 0,59,60
 427 -67 427 -67 432 -64 c 2,61,-1
 440 -61 l 2,62,63
 451 -57 451 -57 462 -55 c 0,64,65
 476 -52 476 -52 492 -52 c 0,66,67
 595 -52 595 -52 650 -118 c 0,68,69
 699 -177 699 -177 699 -271 c 0,70,71
 699 -363 699 -363 640 -430 c 0,72,73
 576 -503 576 -503 473 -503 c 0,74,75
 447 -503 447 -503 426 -500 c 1,76,77
 458 -518 458 -518 458 -549 c 0,78,79
 458 -572 458 -572 445 -587 c 2,80,-1
 424 -604 l 2,81,82
 414 -611 414 -611 414 -621 c 0,83,84
 414 -629 414 -629 420 -638 c 0,85,86
 429 -656 429 -656 429 -675 c 0,87,88
 429 -726 429 -726 380 -746 c 0,89,90
 360 -753 360 -753 335 -753 c 0,91,92
 303 -753 303 -753 275 -736 c 0,93,94
 242 -718 242 -718 236 -689 c 2,95,-1
 235 -683 l 2,96,97
 234 -680 234 -680 234 -677 c 0,98,99
 234 -622 234 -622 290 -605 c 0,100,101
 296 -603 296 -603 296 -599 c 0,102,103
 296 -596 296 -596 294 -595 c 0,104,105
 276 -575 276 -575 276 -550 c 0,106,107
 276 -506 276 -506 321 -489 c 0,108,109
 336 -483 336 -483 359 -483 c 1,110,111
 321 -467 321 -467 301 -439 c 0,112,113
 284 -416 284 -416 284 -392 c 0,114,115
 284 -360 284 -360 306 -333 c 0,116,117
 329 -305 329 -305 360 -305 c 0,118,119
 430 -305 430 -305 430 -367 c 0,120,121
 430 -392 430 -392 410 -415 c 0,122,123
 404 -422 404 -422 396 -429 c 2,124,-1
 378 -440 l 2,125,126
 372 -444 372 -444 372 -447 c 0,127,128
 372 -449 372 -449 376 -453 c 2,129,-1
 380 -457 l 2,130,131
 382 -459 382 -459 384 -460 c 0,132,133
 390 -465 390 -465 396 -468 c 0,134,135
 413 -476 413 -476 440 -476 c 0,136,137
 499 -476 499 -476 531 -426 c 0,138,139
 558 -384 558 -384 558 -328 c 2,140,-1
 558 -209 l 2,141,142
 558 -89 558 -89 476 -89 c 0,143,144
 431 -89 431 -89 404 -116 c 0,145,146
 383 -137 383 -137 369 -180 c 0,147,148
 359 -209 359 -209 347 -209 c 0,149,150
 331 -209 331 -209 325 -180 c 0,151,152
 307 -100 307 -100 278 -65 c 0,153,154
 267 -52 267 -52 253 -45 c 0,155,156
 243 -39 243 -39 230 -38 c 1,157,-1
 230 -482 l 2,158,159
 230 -503 230 -503 209 -503 c 0,160,161
 187 -503 187 -503 187 -482 c 2,162,-1
 187 481 l 2,163,164
 187 503 187 503 209 503 c 0,165,166
 230 503 230 503 230 481 c 2,167,-1
 230 37 l 1,168,-1
 241 39 l 2,169,170
 248 41 248 41 253 44 c 0,171,172
 267 51 267 51 278 65 c 0,173,174
 307 100 307 100 325 180 c 0,175,176
 331 209 331 209 347 209 c 0,177,178
 359 209 359 209 369 180 c 0,179,180
 383 137 383 137 404 116 c 0,181,182
 431 89 431 89 476 89 c 0,183,184
 558 89 558 89 558 208 c 2,185,-1
 558 328 l 2,186,187
 558 384 558 384 531 425 c 0,188,189
 499 476 499 476 440 476 c 0,190,191
 399 476 399 476 374 451 c 0,192,193
 372 450 372 450 372 447 c 0,194,195
 372 443 372 443 379 439 c 0,196,197
 381 439 381 439 382 438 c 2,198,-1
 399 426 l 2,199,200
 407 419 407 419 413 411 c 0,201,202
 430 390 430 390 430 367 c 0,203,204
 430 305 430 305 360 305 c 0,205,206
 329 305 329 305 306 333 c 0,207,208
 284 360 284 360 284 392 c 0,209,210
 284 432 284 432 324 463 c 0,211,212
 348 481 348 481 382 491 c 0,213,214
 422 503 422 503 473 503 c 0,215,216
 576 503 576 503 640 430 c 0,217,218
 699 362 699 362 699 269 c 256,219,220
 699 176 699 176 650 118 c 0,221,222
 595 52 595 52 492 52 c 0,223,224
 476 52 476 52 462 55 c 0,225,226
 451 56 451 56 440 60 c 2,227,-1
 425 66 l 2,228,229
 418 68 418 68 414 68 c 0,230,231
 404 68 404 68 391 53 c 0,232,233
 386 48 386 48 381 40 c 2,234,-1
 373 28 l 2,235,236
 362 6 362 6 362 0 c 256,237,238
 362 -6 362 -6 366 -15 c 2,239,-1
 375 -32 l 2,53,54
EndSplineSet
EndChar

StartChar: uniE05E
Encoding: 57438 57438 107
Width: 699
GlyphClass: 1
Flags: W
LayerCount: 2
Fore
SplineSet
77 560 m 1,0,-1
 77 506 l 1,1,-1
 105 506 l 2,2,3
 128 506 128 506 128 483 c 2,4,-1
 128 -477 l 2,5,6
 128 -500 128 -500 105 -500 c 2,7,-1
 23 -500 l 2,8,9
 0 -500 0 -500 0 -477 c 2,10,-1
 0 483 l 2,11,12
 0 506 0 506 23 506 c 2,13,-1
 45 506 l 1,14,-1
 45 560 l 1,15,-1
 -32 560 l 1,16,-1
 61 907 l 1,17,-1
 154 560 l 1,18,-1
 77 560 l 1,0,-1
650 -115 m 0,20,21
 699 -174 699 -174 699 -268 c 0,22,23
 699 -360 699 -360 640 -427 c 0,24,25
 576 -500 576 -500 473 -500 c 0,26,27
 422 -500 422 -500 382 -488 c 0,28,29
 348 -478 348 -478 324 -460 c 0,30,31
 284 -429 284 -429 284 -389 c 0,32,33
 284 -357 284 -357 306 -330 c 0,34,35
 329 -302 329 -302 360 -302 c 0,36,37
 430 -302 430 -302 430 -364 c 0,38,39
 430 -389 430 -389 410 -412 c 0,40,41
 404 -419 404 -419 396 -426 c 2,42,-1
 378 -437 l 2,43,44
 372 -441 372 -441 372 -444 c 0,45,46
 372 -446 372 -446 376 -450 c 2,47,-1
 380 -454 l 2,48,49
 382 -456 382 -456 384 -457 c 0,50,51
 390 -462 390 -462 396 -465 c 0,52,53
 413 -473 413 -473 440 -473 c 0,54,55
 499 -473 499 -473 531 -423 c 0,56,57
 558 -381 558 -381 558 -325 c 2,58,-1
 558 -206 l 2,59,60
 558 -86 558 -86 476 -86 c 0,61,62
 431 -86 431 -86 404 -113 c 0,63,64
 383 -134 383 -134 369 -177 c 0,65,66
 359 -206 359 -206 347 -206 c 0,67,68
 331 -206 331 -206 325 -177 c 0,69,70
 307 -97 307 -97 278 -62 c 0,71,72
 267 -49 267 -49 253 -42 c 0,73,74
 243 -36 243 -36 230 -35 c 1,75,-1
 230 -479 l 2,76,77
 230 -500 230 -500 209 -500 c 0,78,79
 187 -500 187 -500 187 -479 c 2,80,-1
 187 484 l 2,81,82
 187 506 187 506 209 506 c 0,83,84
 230 506 230 506 230 484 c 2,85,-1
 230 40 l 1,86,-1
 241 42 l 2,87,88
 248 44 248 44 253 47 c 0,89,90
 267 54 267 54 278 68 c 0,91,92
 307 103 307 103 325 183 c 0,93,94
 331 212 331 212 347 212 c 0,95,96
 359 212 359 212 369 183 c 0,97,98
 383 140 383 140 404 119 c 0,99,100
 431 92 431 92 476 92 c 0,101,102
 558 92 558 92 558 211 c 2,103,-1
 558 331 l 2,104,105
 558 387 558 387 531 428 c 0,106,107
 499 479 499 479 440 479 c 0,108,109
 399 479 399 479 374 454 c 0,110,111
 372 453 372 453 372 450 c 0,112,113
 372 446 372 446 379 442 c 0,114,115
 381 442 381 442 382 441 c 2,116,-1
 399 429 l 2,117,118
 407 422 407 422 413 414 c 0,119,120
 430 393 430 393 430 370 c 0,121,122
 430 308 430 308 360 308 c 0,123,124
 329 308 329 308 306 336 c 0,125,126
 284 363 284 363 284 395 c 0,127,128
 284 435 284 435 324 466 c 0,129,130
 348 484 348 484 382 494 c 0,131,132
 422 506 422 506 473 506 c 0,133,134
 576 506 576 506 640 433 c 0,135,136
 699 365 699 365 699 272 c 256,137,138
 699 179 699 179 650 121 c 0,139,140
 595 55 595 55 492 55 c 0,141,142
 476 55 476 55 462 58 c 0,143,144
 451 59 451 59 440 63 c 2,145,-1
 425 69 l 2,146,147
 418 71 418 71 414 71 c 0,148,149
 404 71 404 71 391 56 c 0,150,151
 386 51 386 51 381 43 c 2,152,-1
 373 31 l 2,153,154
 362 9 362 9 362 3 c 256,155,156
 362 -3 362 -3 366 -12 c 2,157,-1
 375 -29 l 2,158,159
 385 -45 385 -45 392 -54 c 0,160,161
 404 -67 404 -67 414 -67 c 0,162,163
 418 -67 418 -67 425 -64 c 0,164,165
 427 -64 427 -64 432 -61 c 2,166,-1
 440 -58 l 2,167,168
 451 -54 451 -54 462 -52 c 0,169,170
 476 -49 476 -49 492 -49 c 0,171,19
 595 -49 595 -49 650 -115 c 0,20,21
EndSplineSet
EndChar

StartChar: uniE05F
Encoding: 57439 57439 108
Width: 700
GlyphClass: 1
Flags: W
LayerCount: 2
Fore
SplineSet
78 -556 m 1,0,-1
 155 -556 l 1,1,-1
 62 -903 l 1,2,-1
 -31 -556 l 1,3,-1
 46 -556 l 1,4,-1
 46 -500 l 1,5,-1
 23 -500 l 2,6,7
 0 -500 0 -500 0 -477 c 2,8,-1
 0 483 l 2,9,10
 0 506 0 506 23 506 c 2,11,-1
 105 506 l 2,12,13
 128 506 128 506 128 483 c 2,14,-1
 128 -477 l 2,15,16
 128 -500 128 -500 105 -500 c 2,17,-1
 78 -500 l 1,18,-1
 78 -556 l 1,0,-1
650 -115 m 0,20,21
 699 -174 699 -174 699 -268 c 0,22,23
 699 -360 699 -360 640 -427 c 0,24,25
 576 -500 576 -500 473 -500 c 0,26,27
 422 -500 422 -500 382 -488 c 0,28,29
 348 -478 348 -478 324 -460 c 0,30,31
 284 -429 284 -429 284 -389 c 0,32,33
 284 -357 284 -357 306 -330 c 0,34,35
 329 -302 329 -302 360 -302 c 0,36,37
 430 -302 430 -302 430 -364 c 0,38,39
 430 -389 430 -389 410 -412 c 0,40,41
 404 -419 404 -419 396 -426 c 2,42,-1
 378 -437 l 2,43,44
 372 -441 372 -441 372 -444 c 0,45,46
 372 -446 372 -446 376 -450 c 2,47,-1
 380 -454 l 2,48,49
 382 -456 382 -456 384 -457 c 0,50,51
 390 -462 390 -462 396 -465 c 0,52,53
 413 -473 413 -473 440 -473 c 0,54,55
 499 -473 499 -473 531 -423 c 0,56,57
 558 -381 558 -381 558 -325 c 2,58,-1
 558 -206 l 2,59,60
 558 -86 558 -86 476 -86 c 0,61,62
 431 -86 431 -86 404 -113 c 0,63,64
 383 -134 383 -134 369 -177 c 0,65,66
 359 -206 359 -206 347 -206 c 0,67,68
 331 -206 331 -206 325 -177 c 0,69,70
 307 -97 307 -97 278 -62 c 0,71,72
 267 -49 267 -49 253 -42 c 0,73,74
 243 -36 243 -36 230 -35 c 1,75,-1
 230 -479 l 2,76,77
 230 -500 230 -500 209 -500 c 0,78,79
 187 -500 187 -500 187 -479 c 2,80,-1
 187 484 l 2,81,82
 187 506 187 506 209 506 c 0,83,84
 230 506 230 506 230 484 c 2,85,-1
 230 40 l 1,86,-1
 241 42 l 2,87,88
 248 44 248 44 253 47 c 0,89,90
 267 54 267 54 278 68 c 0,91,92
 307 103 307 103 325 183 c 0,93,94
 331 212 331 212 347 212 c 0,95,96
 359 212 359 212 369 183 c 0,97,98
 383 140 383 140 404 119 c 0,99,100
 431 92 431 92 476 92 c 0,101,102
 558 92 558 92 558 211 c 2,103,-1
 558 331 l 2,104,105
 558 387 558 387 531 428 c 0,106,107
 499 479 499 479 440 479 c 0,108,109
 399 479 399 479 374 454 c 0,110,111
 372 453 372 453 372 450 c 0,112,113
 372 446 372 446 379 442 c 0,114,115
 381 442 381 442 382 441 c 2,116,-1
 399 429 l 2,117,118
 407 422 407 422 413 414 c 0,119,120
 430 393 430 393 430 370 c 0,121,122
 430 308 430 308 360 308 c 0,123,124
 329 308 329 308 306 336 c 0,125,126
 284 363 284 363 284 395 c 0,127,128
 284 435 284 435 324 466 c 0,129,130
 348 484 348 484 382 494 c 0,131,132
 422 506 422 506 473 506 c 0,133,134
 576 506 576 506 640 433 c 0,135,136
 699 365 699 365 699 272 c 256,137,138
 699 179 699 179 650 121 c 0,139,140
 595 55 595 55 492 55 c 0,141,142
 476 55 476 55 462 58 c 0,143,144
 451 59 451 59 440 63 c 2,145,-1
 425 69 l 2,146,147
 418 71 418 71 414 71 c 0,148,149
 404 71 404 71 391 56 c 0,150,151
 386 51 386 51 381 43 c 2,152,-1
 373 31 l 2,153,154
 362 9 362 9 362 3 c 256,155,156
 362 -3 362 -3 366 -12 c 2,157,-1
 375 -29 l 2,158,159
 385 -45 385 -45 392 -54 c 0,160,161
 404 -67 404 -67 414 -67 c 0,162,163
 418 -67 418 -67 425 -64 c 0,164,165
 427 -64 427 -64 432 -61 c 2,166,-1
 440 -58 l 2,167,168
 451 -54 451 -54 462 -52 c 0,169,170
 476 -49 476 -49 492 -49 c 0,171,19
 595 -49 595 -49 650 -115 c 0,20,21
EndSplineSet
EndChar

StartChar: uniE060
Encoding: 57440 57440 109
Width: 583
GlyphClass: 1
Flags: W
LayerCount: 2
Fore
SplineSet
40 479 m 2,1,-1
 40 -436 l 2,2,3
 40 -456 40 -456 20 -456 c 256,4,5
 0 -456 0 -456 0 -436 c 2,6,-1
 0 479 l 2,7,8
 0 499 0 499 20 499 c 256,9,0
 40 499 40 499 40 479 c 2,1,-1
476 436 m 2,11,-1
 476 -479 l 2,12,13
 476 -499 476 -499 456 -499 c 256,14,15
 436 -499 436 -499 436 -479 c 2,16,-1
 436 -197 l 1,17,-1
 152 -175 l 1,18,-1
 152 -436 l 2,19,20
 152 -456 152 -456 132 -456 c 256,21,22
 112 -456 112 -456 112 -436 c 2,23,-1
 112 479 l 2,24,25
 112 499 112 499 132 499 c 256,26,27
 152 499 152 499 152 479 c 2,28,-1
 152 190 l 1,29,-1
 436 168 l 1,30,-1
 436 436 l 2,31,32
 436 456 436 456 456 456 c 256,33,10
 476 456 476 456 476 436 c 2,11,-1
152 -50 m 1,34,-1
 436 -72 l 1,35,-1
 436 43 l 1,36,-1
 152 65 l 1,37,-1
 152 -50 l 1,34,-1
584 436 m 2,39,-1
 584 -479 l 2,40,41
 584 -499 584 -499 564 -499 c 256,42,43
 544 -499 544 -499 544 -479 c 2,44,-1
 544 436 l 2,45,46
 544 456 544 456 564 456 c 256,47,38
 584 456 584 456 584 436 c 2,39,-1
EndSplineSet
EndChar

StartChar: uniE061
Encoding: 57441 57441 110
Width: 233
GlyphClass: 1
Flags: W
LayerCount: 2
Fore
SplineSet
226 31 m 1,0,-1
 -1 31 l 1,1,-1
 -1 124 l 1,2,-1
 188 124 l 1,3,-1
 188 533 l 1,4,-1
 226 533 l 1,5,-1
 226 31 l 1,0,-1
188 -539 m 1,6,-1
 188 -123 l 1,7,-1
 -1 -123 l 1,8,-1
 -1 -31 l 1,9,-1
 226 -31 l 1,10,-1
 226 -539 l 1,11,-1
 188 -539 l 1,6,-1
EndSplineSet
EndChar

StartChar: uniE062
Encoding: 57442 57442 111
Width: 691
GlyphClass: 1
Flags: W
LayerCount: 2
Fore
SplineSet
675 110 m 0,0,1
 675 88 675 88 659 71.5 c 128,-1,2
 643 55 643 55 621 55 c 0,3,4
 598 55 598 55 582 71 c 128,-1,5
 566 87 566 87 566 110 c 0,6,7
 566 132 566 132 582.5 148 c 128,-1,8
 599 164 599 164 621 164 c 0,9,10
 645 164 645 164 660 149 c 128,-1,11
 675 134 675 134 675 110 c 0,0,1
675 -109 m 0,12,13
 675 -131 675 -131 659 -147.5 c 128,-1,14
 643 -164 643 -164 621 -164 c 0,15,16
 597 -164 597 -164 581.5 -148.5 c 128,-1,17
 566 -133 566 -133 566 -109 c 0,18,19
 566 -87 566 -87 582.5 -71 c 128,-1,20
 599 -55 599 -55 621 -55 c 0,21,22
 644 -55 644 -55 659.5 -70.5 c 128,-1,23
 675 -86 675 -86 675 -109 c 0,12,13
524 5 m 0,24,25
 524 -93 524 -93 457 -209 c 0,26,27
 407 -296 407 -296 342 -349 c 0,28,29
 232 -439 232 -439 -10 -558 c 1,30,-1
 -16 -537 l 1,31,-1
 84 -471 l 2,32,33
 248 -363 248 -363 325 -222 c 0,34,35
 386 -111 386 -111 386 -1 c 0,36,37
 386 147 386 147 307 192 c 0,38,39
 269 214 269 214 221 211 c 256,40,41
 173 208 173 208 127 184 c 0,42,43
 70 154 70 154 70 111 c 0,44,45
 70 87 70 87 96 87 c 1,46,-1
 116 91 l 1,47,-1
 136 96 l 1,48,49
 176 96 176 96 203.5 75 c 128,-1,50
 231 54 231 54 231 15 c 0,51,52
 231 -18 231 -18 204 -47 c 1,53,54
 172 -75 172 -75 130 -75 c 0,55,56
 82 -75 82 -75 46 -45 c 128,-1,57
 10 -15 10 -15 10 32 c 0,58,59
 10 138 10 138 114 201 c 0,60,61
 138 215 138 215 182.5 228 c 128,-1,62
 227 241 227 241 254 241 c 0,63,64
 360 241 360 241 435 180 c 0,65,66
 524 108 524 108 524 5 c 0,24,25
EndSplineSet
EndChar

StartChar: uniE063
Encoding: 57443 57443 112
Width: 724
GlyphClass: 1
Flags: W
LayerCount: 2
Fore
SplineSet
278 259 m 2,0,1
 287 258 287 258 296 256 c 0,2,3
 318 251 318 251 340 244 c 0,4,5
 367 235 367 235 391 222 c 0,6,7
 451 190 451 190 486 138 c 0,8,9
 530 72 530 72 531 -21 c 2,10,-1
 531 -28 l 2,11,12
 531 -199 531 -199 379 -383 c 0,13,14
 304 -474 304 -474 210 -535 c 0,15,16
 107 -601 107 -601 -3 -621 c 0,17,18
 -8 -622 -8 -622 -14 -619 c 0,19,20
 -21 -616 -21 -616 -21 -611 c 0,21,22
 -21 -603 -21 -603 -1 -591 c 2,23,-1
 66 -554 l 2,24,25
 72 -552 72 -552 76 -549 c 0,26,27
 122 -524 122 -524 150 -503 c 0,28,29
 222 -448 222 -448 268 -394 c 0,30,31
 323 -328 323 -328 347 -258 c 0,32,33
 382 -151 382 -151 382 -37 c 0,34,35
 382 1 382 1 380 19 c 0,36,37
 375 71 375 71 363 109 c 0,38,39
 348 159 348 159 321 190 c 0,40,41
 285 229 285 229 227 229 c 1,42,43
 227 230 227 230 209 227 c 0,44,45
 187 223 187 223 167 215 c 0,46,47
 138 203 138 203 116 183 c 0,48,49
 88 158 88 158 72 123 c 1,50,-1
 71 116 l 2,51,52
 71 95 71 95 95 95 c 2,53,-1
 124 96 l 2,54,55
 167 96 167 96 194 77 c 0,56,57
 231 50 231 50 231 -9 c 0,58,59
 231 -108 231 -108 135 -110 c 2,60,-1
 130 -110 l 2,61,62
 84 -110 84 -110 49 -74 c 0,63,64
 11 -36 11 -36 3 29 c 0,65,66
 2 32 2 32 2 36 c 2,67,-1
 2 43 l 2,68,69
 2 119 2 119 69 187 c 0,70,71
 103 221 103 221 146 241 c 0,72,73
 194 262 194 262 248 262 c 1,74,-1
 278 259 l 2,0,1
680 -123 m 256,76,77
 680 -179 680 -179 624 -179 c 0,78,79
 569 -179 569 -179 569 -123 c 256,80,81
 569 -67 569 -67 624 -67 c 0,82,75
 680 -67 680 -67 680 -123 c 256,76,77
680 122 m 0,84,85
 680 66 680 66 624 66 c 0,86,87
 569 66 569 66 569 122 c 0,88,89
 569 177 569 177 624 177 c 0,90,83
 680 177 680 177 680 122 c 0,84,85
195 -752 m 2,91,92
 184 -752 184 -752 184 -743 c 0,93,94
 186 -738 186 -738 187 -737 c 0,95,96
 190 -735 190 -735 195 -735 c 256,97,98
 200 -735 200 -735 207 -733 c 2,99,-1
 213 -732 l 1,100,101
 213 -733 213 -733 219 -729 c 2,102,-1
 224 -724 l 1,103,-1
 230 -714 l 1,104,-1
 262 -633 l 1,105,-1
 268 -612 l 2,106,107
 268 -606 268 -606 262 -606 c 256,108,109
 256 -606 256 -606 250 -614 c 0,110,111
 247 -618 247 -618 242 -621 c 0,112,113
 236 -624 236 -624 230 -624 c 0,114,115
 218 -624 218 -624 218 -616 c 0,116,117
 218 -613 218 -613 220 -611 c 2,118,-1
 303 -516 l 2,119,120
 313 -506 313 -506 319 -506 c 256,121,122
 325 -506 325 -506 335 -514 c 0,123,124
 342 -518 342 -518 351 -518 c 0,125,126
 354 -518 354 -518 358 -516 c 2,127,-1
 364 -514 l 2,128,129
 369 -514 369 -514 369 -518 c 2,130,-1
 369 -522 l 1,131,-1
 298 -688 l 2,132,133
 285 -719 285 -719 285 -722 c 0,134,135
 285 -727 285 -727 288 -731 c 0,136,137
 292 -736 292 -736 298 -736 c 0,138,139
 310 -736 310 -736 310 -743 c 0,140,141
 310 -752 310 -752 299 -752 c 2,142,-1
 195 -752 l 2,91,92
354 -669 m 2,143,144
 377 -669 377 -669 377 -694 c 0,145,146
 377 -702 377 -702 372 -709 c 2,147,-1
 365 -717 l 2,148,149
 361 -721 361 -721 360 -726 c 2,150,-1
 360 -728 l 2,151,152
 360 -735 360 -735 370 -739 c 0,153,154
 377 -742 377 -742 386 -742 c 2,155,-1
 388 -742 l 2,156,157
 394 -742 394 -742 401 -740 c 0,158,159
 408 -737 408 -737 415 -730 c 0,160,161
 433 -714 433 -714 446 -677 c 0,162,163
 452 -657 452 -657 452 -646 c 0,164,165
 452 -629 452 -629 441 -621 c 0,166,167
 436 -618 436 -618 430 -617 c 0,168,169
 425 -616 425 -616 420 -616 c 0,170,171
 409 -616 409 -616 393 -626 c 2,172,-1
 374 -640 l 2,173,174
 372 -642 372 -642 366 -642 c 0,175,176
 359 -642 359 -642 359 -641 c 0,177,178
 356 -639 356 -639 356 -634 c 2,179,-1
 358 -622 l 2,180,181
 360 -611 360 -611 367 -595 c 2,182,-1
 384 -550 l 2,183,184
 389 -538 389 -538 389 -534 c 2,185,-1
 391 -528 l 2,186,187
 392 -524 392 -524 394 -522 c 0,188,189
 397 -515 397 -515 402 -514 c 2,190,-1
 503 -514 l 2,191,192
 522 -514 522 -514 527 -515 c 0,193,194
 528 -515 528 -515 528 -517 c 0,195,196
 528 -520 528 -520 525 -525 c 2,197,-1
 522 -530 l 2,198,199
 521 -533 521 -533 518 -535 c 2,200,-1
 507 -543 l 2,201,202
 503 -546 503 -546 500 -547 c 0,203,204
 491 -551 491 -551 475 -554 c 0,205,206
 466 -555 466 -555 448 -559 c 2,207,-1
 412 -567 l 2,208,209
 410 -567 410 -567 409 -568 c 2,210,-1
 402 -570 l 2,211,212
 399 -572 399 -572 397 -577 c 2,213,-1
 395 -593 l 2,214,215
 395 -596 395 -596 397 -597 c 2,216,-1
 398 -598 l 1,217,-1
 402 -597 l 2,218,219
 404 -596 404 -596 406 -596 c 0,220,221
 408 -595 408 -595 412 -595 c 0,222,223
 416 -594 416 -594 421 -594 c 2,224,-1
 429 -594 l 2,225,226
 444 -594 444 -594 454 -597 c 2,227,-1
 472 -608 l 2,228,229
 485 -618 485 -618 492 -640 c 0,230,231
 495 -649 495 -649 495 -662 c 0,232,233
 495 -667 495 -667 494 -674 c 0,234,235
 494 -679 494 -679 493 -684 c 0,236,237
 486 -715 486 -715 447 -738 c 0,238,239
 415 -755 415 -755 388 -755 c 0,240,241
 363 -755 363 -755 347 -742 c 0,242,243
 328 -726 328 -726 328 -699 c 0,244,245
 328 -678 328 -678 344 -671 c 0,246,247
 345 -670 345 -670 347 -670 c 2,248,-1
 354 -669 l 2,143,144
EndSplineSet
EndChar

StartChar: uniE064
Encoding: 57444 57444 113
Width: 691
GlyphClass: 1
Flags: W
LayerCount: 2
Fore
SplineSet
691 110 m 0,0,1
 691 88 691 88 675 71.5 c 128,-1,2
 659 55 659 55 637 55 c 0,3,4
 614 55 614 55 598 71 c 128,-1,5
 582 87 582 87 582 110 c 0,6,7
 582 132 582 132 598.5 148 c 128,-1,8
 615 164 615 164 637 164 c 0,9,10
 661 164 661 164 676 149 c 128,-1,11
 691 134 691 134 691 110 c 0,0,1
691 -109 m 0,12,13
 691 -131 691 -131 675 -147.5 c 128,-1,14
 659 -164 659 -164 637 -164 c 0,15,16
 613 -164 613 -164 597.5 -148.5 c 128,-1,17
 582 -133 582 -133 582 -109 c 0,18,19
 582 -87 582 -87 598.5 -71 c 128,-1,20
 615 -55 615 -55 637 -55 c 0,21,22
 660 -55 660 -55 675.5 -70.5 c 128,-1,23
 691 -86 691 -86 691 -109 c 0,12,13
541 -17 m 0,24,25
 541 -100 541 -100 482 -200 c 0,26,27
 429 -291 429 -291 358 -349 c 0,28,29
 247 -440 247 -440 6 -558 c 1,30,-1
 0 -537 l 1,31,-1
 100 -471 l 2,32,33
 264 -363 264 -363 341 -222 c 0,34,35
 402 -111 402 -111 402 -1 c 0,36,37
 402 147 402 147 323 192 c 0,38,39
 285 214 285 214 237 211 c 256,40,41
 189 208 189 208 143 184 c 0,42,43
 86 154 86 154 86 111 c 0,44,45
 86 87 86 87 112 87 c 1,46,-1
 132 91 l 1,47,-1
 152 96 l 1,48,49
 192 96 192 96 219.5 75 c 128,-1,50
 247 54 247 54 247 15 c 0,51,52
 247 -18 247 -18 220 -47 c 1,53,54
 188 -75 188 -75 146 -75 c 0,55,56
 98 -75 98 -75 62 -45 c 128,-1,57
 26 -15 26 -15 26 32 c 0,58,59
 26 138 26 138 130 201 c 0,60,61
 154 215 154 215 198.5 228 c 128,-1,62
 243 241 243 241 270 241 c 0,63,64
 378 241 378 241 451 180 c 0,65,66
 541 105 541 105 541 -17 c 0,24,25
391 -649 m 0,67,68
 391 -692 391 -692 356.5 -722 c 128,-1,69
 322 -752 322 -752 278 -752 c 0,70,71
 240 -752 240 -752 210.5 -725 c 128,-1,72
 181 -698 181 -698 181 -660 c 0,73,74
 181 -606 181 -606 238 -588 c 1,75,76
 191 -573 191 -573 191 -520 c 0,77,78
 191 -487 191 -487 223 -467 c 0,79,80
 250 -450 250 -450 286 -450 c 0,81,82
 321 -450 321 -450 347 -467 c 0,83,84
 377 -487 377 -487 377 -520 c 0,85,86
 377 -571 377 -571 325 -585 c 1,87,88
 350 -591 350 -591 369 -607 c 0,89,90
 391 -626 391 -626 391 -649 c 0,67,68
352 -522 m 0,91,92
 352 -496 352 -496 332.5 -482 c 128,-1,93
 313 -468 313 -468 286 -468 c 0,94,95
 263 -468 263 -468 239 -484 c 128,-1,96
 215 -500 215 -500 215 -522 c 0,97,98
 215 -535 215 -535 235 -549 c 0,99,100
 251 -560 251 -560 267 -564 c 2,101,-1
 301 -572 l 2,102,103
 313 -572 313 -572 332.5 -553 c 128,-1,104
 352 -534 352 -534 352 -522 c 0,91,92
356 -659 m 0,105,106
 356 -648 356 -648 336.5 -634 c 128,-1,107
 317 -620 317 -620 303 -615 c 2,108,-1
 268 -603 l 1,109,110
 251 -603 251 -603 228 -623 c 128,-1,111
 205 -643 205 -643 205 -659 c 0,112,113
 205 -690 205 -690 226 -711.5 c 128,-1,114
 247 -733 247 -733 278 -733 c 0,115,116
 306 -733 306 -733 331 -710 c 128,-1,117
 356 -687 356 -687 356 -659 c 0,105,106
EndSplineSet
EndChar

StartChar: uniE065
Encoding: 57445 57445 114
Width: 691
GlyphClass: 1
Flags: W
LayerCount: 2
Fore
SplineSet
691 110 m 0,0,1
 691 88 691 88 675 71.5 c 128,-1,2
 659 55 659 55 637 55 c 0,3,4
 614 55 614 55 598 71 c 128,-1,5
 582 87 582 87 582 110 c 0,6,7
 582 132 582 132 598.5 148 c 128,-1,8
 615 164 615 164 637 164 c 0,9,10
 661 164 661 164 676 149 c 128,-1,11
 691 134 691 134 691 110 c 0,0,1
691 -109 m 0,12,13
 691 -131 691 -131 675 -147.5 c 128,-1,14
 659 -164 659 -164 637 -164 c 0,15,16
 613 -164 613 -164 597.5 -148.5 c 128,-1,17
 582 -133 582 -133 582 -109 c 0,18,19
 582 -87 582 -87 598.5 -71 c 128,-1,20
 615 -55 615 -55 637 -55 c 0,21,22
 660 -55 660 -55 675.5 -70.5 c 128,-1,23
 691 -86 691 -86 691 -109 c 0,12,13
541 -17 m 0,24,25
 541 -100 541 -100 482 -200 c 0,26,27
 429 -291 429 -291 358 -349 c 0,28,29
 247 -440 247 -440 6 -558 c 1,30,-1
 0 -537 l 1,31,-1
 100 -471 l 2,32,33
 264 -363 264 -363 341 -222 c 0,34,35
 402 -111 402 -111 402 -1 c 0,36,37
 402 147 402 147 323 192 c 0,38,39
 285 214 285 214 237 211 c 256,40,41
 189 208 189 208 143 184 c 0,42,43
 86 154 86 154 86 111 c 0,44,45
 86 87 86 87 112 87 c 1,46,-1
 132 91 l 1,47,-1
 152 96 l 1,48,49
 192 96 192 96 219.5 75 c 128,-1,50
 247 54 247 54 247 15 c 0,51,52
 247 -18 247 -18 220 -47 c 1,53,54
 188 -75 188 -75 146 -75 c 0,55,56
 98 -75 98 -75 62 -45 c 128,-1,57
 26 -15 26 -15 26 32 c 0,58,59
 26 138 26 138 130 201 c 0,60,61
 154 215 154 215 198.5 228 c 128,-1,62
 243 241 243 241 270 241 c 0,63,64
 378 241 378 241 451 180 c 0,65,66
 541 105 541 105 541 -17 c 0,24,25
372 383 m 0,67,68
 372 340 372 340 337.5 310 c 128,-1,69
 303 280 303 280 259 280 c 0,70,71
 220 280 220 280 191 306.5 c 128,-1,72
 162 333 162 333 162 372 c 0,73,74
 162 426 162 426 219 444 c 1,75,76
 172 459 172 459 172 512 c 0,77,78
 172 545 172 545 204 565 c 0,79,80
 231 582 231 582 267 582 c 0,81,82
 302 582 302 582 328 565 c 0,83,84
 358 545 358 545 358 512 c 0,85,86
 358 461 358 461 306 447 c 1,87,88
 331 442 331 442 351.5 424 c 128,-1,89
 372 406 372 406 372 383 c 0,67,68
333 510 m 0,90,91
 333 536 333 536 313.5 550 c 128,-1,92
 294 564 294 564 267 564 c 0,93,94
 244 564 244 564 220 548 c 128,-1,95
 196 532 196 532 196 510 c 0,96,97
 196 485 196 485 248 467 c 1,98,-1
 282 460 l 2,99,100
 294 460 294 460 313.5 479 c 128,-1,101
 333 498 333 498 333 510 c 0,90,91
337 373 m 0,102,103
 337 384 337 384 317.5 398 c 128,-1,104
 298 412 298 412 284 417 c 2,105,-1
 249 429 l 1,106,107
 233 429 233 429 209.5 409 c 128,-1,108
 186 389 186 389 186 373 c 0,109,110
 186 341 186 341 206.5 320 c 128,-1,111
 227 299 227 299 259 299 c 0,112,113
 287 299 287 299 312 322 c 128,-1,114
 337 345 337 345 337 373 c 0,102,103
EndSplineSet
EndChar

StartChar: uniE066
Encoding: 57446 57446 115
Width: 681
GlyphClass: 1
Flags: W
LayerCount: 2
Fore
SplineSet
568 122 m 0,1,2
 568 177 568 177 623 177 c 0,3,4
 679 177 679 177 679 122 c 0,5,6
 679 66 679 66 623 66 c 0,7,0
 568 66 568 66 568 122 c 0,1,2
303 275 m 2,8,9
 305 262 305 262 330 262 c 0,10,11
 336 262 336 262 345 265 c 0,12,13
 357 269 357 269 367 275 c 0,14,15
 396 294 396 294 405 330 c 0,16,17
 409 342 409 342 409 353 c 0,18,19
 409 376 409 376 393 388 c 0,20,21
 387 393 387 393 379 395 c 0,22,23
 373 397 373 397 367 397 c 0,24,25
 355 397 355 397 337 392 c 0,26,27
 318 387 318 387 315 382 c 0,28,29
 308 378 308 378 304 378 c 0,30,31
 301 378 301 378 299 379 c 0,32,33
 296 381 296 381 296 386 c 2,34,-1
 329 488 l 2,35,36
 331 496 331 496 343 496 c 2,37,-1
 408 492 l 1,38,-1
 471 496 l 2,39,40
 476 496 476 496 476 491 c 2,41,-1
 476 485 l 1,42,-1
 472 477 l 2,43,44
 467 471 467 471 460 466 c 0,45,46
 450 460 450 460 436 456 c 0,47,48
 418 452 418 452 395 452 c 0,49,50
 388 452 388 452 381 453 c 0,51,52
 374 453 374 453 368 454 c 2,53,-1
 351 457 l 2,54,55
 345 457 345 457 341 450 c 2,56,-1
 329 416 l 2,57,58
 328 415 328 415 328 413 c 0,59,60
 328 410 328 410 329 410 c 0,61,62
 331 410 331 410 332 411 c 0,63,64
 347 418 347 418 371 418 c 2,65,-1
 383 418 l 1,66,-1
 394 416 l 2,67,68
 457 402 457 402 457 351 c 0,69,70
 457 343 457 343 454 331 c 0,71,72
 432 250 432 250 339 250 c 0,73,74
 297 250 297 250 278 273 c 0,75,76
 271 281 271 281 268 292 c 2,77,-1
 266 301 l 2,78,79
 265 304 265 304 265 307 c 0,80,81
 265 337 265 337 298 337 c 0,82,83
 316 337 316 337 316 316 c 2,84,-1
 316 311 l 2,85,86
 316 308 316 308 315 305 c 0,87,88
 314 301 314 301 312 297 c 2,89,-1
 308 292 l 2,90,91
 303 285 303 285 303 279 c 2,92,-1
 303 275 l 2,8,9
277 259 m 2,93,94
 286 258 286 258 295 256 c 0,95,96
 317 251 317 251 339 244 c 0,97,98
 366 235 366 235 390 222 c 0,99,100
 450 190 450 190 485 138 c 0,101,102
 529 72 529 72 530 -21 c 2,103,-1
 530 -28 l 2,104,105
 530 -210 530 -210 362 -399 c 0,106,107
 289 -481 289 -481 199 -538 c 0,108,109
 101 -599 101 -599 -4 -621 c 1,110,-1
 -6 -621 l 2,111,112
 -11 -621 -11 -621 -16 -618 c 0,113,114
 -22 -615 -22 -615 -22 -611 c 0,115,116
 -22 -603 -22 -603 -2 -591 c 2,117,-1
 65 -554 l 2,118,119
 71 -552 71 -552 75 -549 c 0,120,121
 121 -524 121 -524 149 -503 c 0,122,123
 221 -448 221 -448 267 -394 c 0,124,125
 322 -328 322 -328 346 -258 c 0,126,127
 381 -151 381 -151 381 -37 c 0,128,129
 381 1 381 1 379 19 c 0,130,131
 374 71 374 71 362 109 c 0,132,133
 347 159 347 159 320 190 c 0,134,135
 284 229 284 229 226 229 c 1,136,137
 226 230 226 230 208 227 c 0,138,139
 186 223 186 223 166 215 c 0,140,141
 137 203 137 203 115 183 c 0,142,143
 87 158 87 158 71 123 c 1,144,-1
 70 116 l 2,145,146
 70 95 70 95 94 95 c 2,147,-1
 123 96 l 2,148,149
 166 96 166 96 193 77 c 0,150,151
 230 50 230 50 230 -9 c 0,152,153
 230 -108 230 -108 134 -110 c 2,154,-1
 129 -110 l 2,155,156
 83 -110 83 -110 48 -74 c 0,157,158
 10 -36 10 -36 2 29 c 0,159,160
 1 32 1 32 1 36 c 2,161,-1
 1 43 l 2,162,163
 1 106 1 106 50 167 c 0,164,165
 103 233 103 233 183 254 c 1,166,-1
 134 254 l 2,167,168
 126 254 126 254 126 258 c 0,169,170
 126 260 126 260 127 261 c 0,171,172
 128 265 128 265 132 267 c 0,173,174
 134 268 134 268 137 268 c 0,175,176
 162 268 162 268 169 288 c 2,177,-1
 217 419 l 2,178,179
 217 424 217 424 212 424 c 0,180,181
 210 424 210 424 205 419 c 2,182,-1
 181 393 l 2,183,184
 181 392 181 392 179 391 c 0,185,186
 177 389 177 389 174 389 c 0,187,188
 170 389 170 389 169 390 c 0,189,190
 166 392 166 392 166 394 c 0,191,192
 166 397 166 397 169 401 c 0,193,194
 171 405 171 405 171 404 c 1,195,-1
 233 496 l 1,196,-1
 238 501 l 2,197,198
 241 503 241 503 246 503 c 0,199,200
 250 502 250 502 256 502 c 2,201,-1
 294 503 l 2,202,203
 301 503 301 503 301 498 c 0,204,205
 301 496 301 496 299 492 c 2,206,-1
 287 457 l 2,207,208
 279 430 279 430 264 387 c 2,209,-1
 230 287 l 2,210,211
 229 285 229 285 229 281 c 0,212,213
 229 276 229 276 232 272 c 256,214,215
 235 268 235 268 239 268 c 0,216,217
 244 268 244 268 244 264 c 2,218,-1
 247 262 l 1,219,-1
 277 259 l 2,93,94
679 -123 m 256,221,222
 679 -179 679 -179 623 -179 c 0,223,224
 568 -179 568 -179 568 -123 c 256,225,226
 568 -67 568 -67 623 -67 c 0,227,220
 679 -67 679 -67 679 -123 c 256,221,222
EndSplineSet
EndChar

StartChar: uniE067
Encoding: 57447 57447 116
Width: 681
GlyphClass: 1
Flags: W
LayerCount: 2
Fore
SplineSet
680 122 m 0,1,2
 680 66 680 66 624 66 c 0,3,4
 569 66 569 66 569 122 c 0,5,6
 569 177 569 177 624 177 c 0,7,0
 680 177 680 177 680 122 c 0,1,2
680 -123 m 256,9,10
 680 -179 680 -179 624 -179 c 0,11,12
 569 -179 569 -179 569 -123 c 256,13,14
 569 -67 569 -67 624 -67 c 0,15,8
 680 -67 680 -67 680 -123 c 256,9,10
254 262 m 1,16,-1
 260 262 l 1,17,-1
 271 260 l 2,18,19
 288 258 288 258 305 254 c 0,20,21
 328 249 328 249 349 241 c 0,22,23
 376 231 376 231 399 218 c 0,24,25
 456 185 456 185 489 133 c 0,26,27
 530 69 530 69 531 -21 c 2,28,-1
 531 -25 l 2,29,30
 531 -198 531 -198 380 -383 c 0,31,32
 304 -475 304 -475 210 -535 c 0,33,34
 108 -602 108 -602 -3 -621 c 0,35,36
 -8 -622 -8 -622 -14 -619 c 0,37,38
 -21 -616 -21 -616 -21 -611 c 0,39,40
 -21 -603 -21 -603 -1 -591 c 2,41,-1
 66 -554 l 2,42,43
 72 -552 72 -552 76 -549 c 0,44,45
 122 -524 122 -524 150 -503 c 0,46,47
 222 -448 222 -448 268 -394 c 0,48,49
 323 -328 323 -328 346 -258 c 0,50,51
 382 -150 382 -150 382 -41 c 0,52,53
 382 -11 382 -11 379 19 c 0,54,55
 375 70 375 70 363 109 c 0,56,57
 348 159 348 159 321 190 c 0,58,59
 285 229 285 229 227 229 c 1,60,61
 227 230 227 230 209 227 c 0,62,63
 187 223 187 223 167 215 c 0,64,65
 138 203 138 203 116 183 c 0,66,67
 88 158 88 158 72 123 c 1,68,-1
 72 122 l 2,69,70
 71 120 71 120 71 117 c 0,71,72
 71 95 71 95 96 95 c 2,73,-1
 124 96 l 2,74,75
 167 96 167 96 194 77 c 0,76,77
 231 50 231 50 231 -9 c 0,78,79
 231 -108 231 -108 135 -110 c 2,80,-1
 130 -110 l 2,81,82
 84 -110 84 -110 49 -74 c 0,83,84
 11 -36 11 -36 3 29 c 0,85,86
 2 32 2 32 2 36 c 2,87,-1
 2 43 l 2,88,89
 2 115 2 115 63 181 c 0,90,91
 130 254 130 254 227 261 c 1,92,-1
 227 329 l 1,93,-1
 148 329 l 1,94,-1
 245 672 l 1,95,-1
 336 329 l 1,96,-1
 254 329 l 1,97,-1
 254 262 l 1,16,-1
EndSplineSet
EndChar

StartChar: uniE068
Encoding: 57448 57448 117
Width: 680
GlyphClass: 1
Flags: W
LayerCount: 2
Fore
SplineSet
680 122 m 0,1,2
 680 66 680 66 624 66 c 0,3,4
 569 66 569 66 569 122 c 0,5,6
 569 177 569 177 624 177 c 0,7,0
 680 177 680 177 680 122 c 0,1,2
680 -123 m 256,9,10
 680 -179 680 -179 624 -179 c 0,11,12
 569 -179 569 -179 569 -123 c 256,13,14
 569 -67 569 -67 624 -67 c 0,15,8
 680 -67 680 -67 680 -123 c 256,9,10
278 259 m 2,16,17
 287 258 287 258 296 256 c 0,18,19
 318 251 318 251 340 244 c 0,20,21
 367 235 367 235 391 222 c 0,22,23
 451 190 451 190 486 138 c 0,24,25
 530 72 530 72 531 -21 c 2,26,-1
 531 -29 l 2,27,28
 531 -162 531 -162 458 -287 c 0,29,30
 388 -408 388 -408 265 -496 c 1,31,-1
 265 -688 l 1,32,-1
 339 -688 l 1,33,-1
 242 -1031 l 1,34,-1
 151 -688 l 1,35,-1
 229 -688 l 1,36,-1
 229 -520 l 1,37,38
 189 -546 189 -546 116 -581 c 0,39,40
 77 -599 77 -599 48 -609 c 0,41,42
 14 -621 14 -621 -3 -621 c 0,43,44
 -9 -621 -9 -621 -14 -619 c 0,45,46
 -21 -616 -21 -616 -21 -611 c 0,47,48
 -21 -603 -21 -603 -1 -591 c 2,49,-1
 66 -554 l 2,50,51
 72 -552 72 -552 76 -549 c 0,52,53
 122 -524 122 -524 150 -503 c 0,54,55
 222 -448 222 -448 268 -394 c 0,56,57
 323 -328 323 -328 346 -258 c 0,58,59
 382 -150 382 -150 382 -41 c 0,60,61
 382 -11 382 -11 379 19 c 0,62,63
 375 70 375 70 363 109 c 0,64,65
 348 159 348 159 321 190 c 0,66,67
 285 229 285 229 227 229 c 1,68,69
 227 230 227 230 209 227 c 0,70,71
 187 223 187 223 167 215 c 0,72,73
 138 203 138 203 116 183 c 0,74,75
 88 158 88 158 72 123 c 1,76,-1
 72 122 l 2,77,78
 71 120 71 120 71 117 c 0,79,80
 71 95 71 95 96 95 c 2,81,-1
 124 96 l 2,82,83
 167 96 167 96 194 77 c 0,84,85
 231 50 231 50 231 -9 c 0,86,87
 231 -108 231 -108 135 -110 c 2,88,-1
 130 -110 l 2,89,90
 84 -110 84 -110 49 -74 c 0,91,92
 11 -36 11 -36 3 29 c 0,93,94
 2 32 2 32 2 36 c 2,95,-1
 2 43 l 2,96,97
 2 119 2 119 69 187 c 0,98,99
 103 221 103 221 146 241 c 0,100,101
 194 262 194 262 248 262 c 1,102,-1
 278 259 l 2,16,17
EndSplineSet
EndChar

StartChar: uniE069
Encoding: 57449 57449 118
Width: 174
GlyphClass: 1
Flags: W
LayerCount: 2
Fore
SplineSet
174 -259 m 1,0,-1
 116 -259 l 1,1,-1
 116 241 l 1,2,-1
 174 241 l 1,3,-1
 174 -259 l 1,0,-1
58 -259 m 1,4,-1
 0 -259 l 1,5,-1
 0 241 l 1,6,-1
 58 241 l 1,7,-1
 58 -259 l 1,4,-1
EndSplineSet
EndChar

StartChar: uniE06A
Encoding: 57450 57450 119
Width: 280
GlyphClass: 1
Flags: W
LayerCount: 2
Fore
SplineSet
280 -439 m 1,0,-1
 0 -439 l 1,1,-1
 0 421 l 1,2,-1
 280 421 l 1,3,-1
 280 -439 l 1,0,-1
235 -349 m 1,4,-1
 235 331 l 1,5,-1
 45 331 l 1,6,-1
 45 -349 l 1,7,-1
 235 -349 l 1,4,-1
EndSplineSet
EndChar

StartChar: uniE06B
Encoding: 57451 57451 120
Width: 251
GlyphClass: 1
Flags: W
LayerCount: 2
Fore
SplineSet
210 -626 m 2,1,-1
 14 -521 l 2,2,3
 1 -514 1 -514 1 -500 c 2,4,-1
 1 500 l 2,5,6
 1 515 1 515 14 521 c 2,7,-1
 210 626 l 2,8,9
 215 629 215 629 221 629 c 0,10,11
 236 629 236 629 242 616 c 0,12,13
 245 612 245 612 245 605 c 0,14,15
 245 591 245 591 232 584 c 2,16,-1
 49 486 l 1,17,-1
 49 145 l 1,18,-1
 221 145 l 2,19,20
 245 145 245 145 245 121 c 256,21,22
 245 97 245 97 221 97 c 2,23,-1
 49 97 l 1,24,-1
 49 -105 l 1,25,-1
 221 -105 l 2,26,27
 245 -105 245 -105 245 -129 c 256,28,29
 245 -153 245 -153 221 -153 c 2,30,-1
 49 -153 l 1,31,-1
 49 -486 l 1,32,-1
 232 -584 l 2,33,34
 245 -590 245 -590 245 -605 c 0,35,36
 245 -611 245 -611 242 -616 c 0,37,38
 236 -629 236 -629 221 -629 c 0,39,0
 215 -629 215 -629 210 -626 c 2,1,-1
EndSplineSet
EndChar

StartChar: uniE06C
Encoding: 57452 57452 121
Width: 463
GlyphClass: 1
Flags: W
LayerCount: 2
Fore
SplineSet
459 11 m 1,0,-1
 255 -68 l 1,1,-1
 255 -178 l 2,2,3
 255 -202 255 -202 231 -202 c 256,4,5
 207 -202 207 -202 207 -178 c 2,6,-1
 207 -86 l 1,7,-1
 2 -165 l 1,8,-1
 2 -4 l 1,9,-1
 207 74 l 1,10,-1
 207 182 l 2,11,12
 207 206 207 206 231 206 c 256,13,14
 255 206 255 206 255 182 c 2,15,-1
 255 93 l 1,16,-1
 459 171 l 1,17,-1
 459 11 l 1,0,-1
EndSplineSet
EndChar

StartChar: uniE06D
Encoding: 57453 57453 122
Width: 409
GlyphClass: 1
Flags: W
LayerCount: 2
Fore
SplineSet
233 711 m 1,0,-1
 233 293 l 1,1,-1
 173 293 l 1,2,-1
 173 711 l 1,3,-1
 18 711 l 1,4,-1
 18 764 l 1,5,-1
 387 764 l 1,6,-1
 387 711 l 1,7,-1
 233 711 l 1,0,-1
341 -228 m 1,8,-1
 292 -87 l 1,9,-1
 111 -87 l 1,10,-1
 61 -228 l 1,11,-1
 -3 -228 l 1,12,-1
 165 242 l 1,13,-1
 243 242 l 1,14,-1
 408 -228 l 1,15,-1
 341 -228 l 1,8,-1
203 178 m 1,16,-1
 126 -36 l 1,17,-1
 276 -36 l 1,18,-1
 203 178 l 1,16,-1
340 -710 m 256,20,21
 302 -748 302 -748 239 -748 c 2,22,-1
 27 -748 l 1,23,-1
 27 -277 l 1,24,-1
 218 -277 l 2,25,26
 357 -277 357 -277 357 -397 c 0,27,28
 357 -469 357 -469 292 -499 c 1,29,30
 378 -532 378 -532 378 -613 c 0,31,19
 378 -672 378 -672 340 -710 c 256,20,21
203 -330 m 2,33,-1
 87 -330 l 1,34,-1
 87 -480 l 1,35,-1
 203 -480 l 2,36,37
 297 -480 297 -480 297 -405 c 256,38,32
 297 -330 297 -330 203 -330 c 2,33,-1
234 -533 m 2,40,-1
 87 -533 l 1,41,-1
 87 -695 l 1,42,-1
 234 -695 l 2,43,44
 318 -695 318 -695 318 -614 c 256,45,39
 318 -533 318 -533 234 -533 c 2,40,-1
EndSplineSet
EndChar

StartChar: uniE06E
Encoding: 57454 57454 123
Width: 271
GlyphClass: 1
Flags: W
LayerCount: 2
Fore
SplineSet
155 469 m 1,0,-1
 155 189 l 1,1,-1
 115 189 l 1,2,-1
 115 469 l 1,3,-1
 11 469 l 1,4,-1
 11 504 l 1,5,-1
 258 504 l 1,6,-1
 258 469 l 1,7,-1
 155 469 l 1,0,-1
227 -160 m 1,8,-1
 195 -65 l 1,9,-1
 73 -65 l 1,10,-1
 40 -160 l 1,11,-1
 -3 -160 l 1,12,-1
 110 155 l 1,13,-1
 162 155 l 1,14,-1
 272 -160 l 1,15,-1
 227 -160 l 1,8,-1
135 112 m 1,16,-1
 83 -32 l 1,17,-1
 184 -32 l 1,18,-1
 135 112 l 1,16,-1
159 -508 m 2,20,-1
 17 -508 l 1,21,-1
 17 -193 l 1,22,-1
 145 -193 l 2,23,24
 238 -193 238 -193 238 -273 c 0,25,26
 238 -320 238 -320 195 -342 c 1,27,28
 252 -363 252 -363 252 -418 c 0,29,19
 252 -508 252 -508 159 -508 c 2,20,-1
135 -228 m 2,31,-1
 57 -228 l 1,32,-1
 57 -329 l 1,33,-1
 135 -329 l 2,34,35
 198 -329 198 -329 198 -279 c 0,36,30
 198 -228 198 -228 135 -228 c 2,31,-1
156 -364 m 2,38,-1
 57 -364 l 1,39,-1
 57 -472 l 1,40,-1
 156 -472 l 2,41,42
 212 -472 212 -472 212 -418 c 256,43,37
 212 -364 212 -364 156 -364 c 2,38,-1
EndSplineSet
EndChar

StartChar: uniE06F
Encoding: 57455 57455 124
Width: 463
GlyphClass: 1
Flags: W
LayerCount: 2
Fore
SplineSet
464 0 m 1,0,-1
 0 -375 l 1,1,-1
 0 375 l 1,2,-1
 464 0 l 1,0,-1
EndSplineSet
EndChar

StartChar: uniE070
Encoding: 57456 57456 125
Width: 316
GlyphClass: 1
Flags: W
LayerCount: 2
Fore
SplineSet
316 1 m 1,0,-1
 0 -249 l 1,1,-1
 0 251 l 1,2,-1
 316 1 l 1,0,-1
EndSplineSet
EndChar

StartChar: uniE071
Encoding: 57457 57457 126
Width: 607
GlyphClass: 1
Flags: W
LayerCount: 2
Fore
SplineSet
408 309 m 1,0,-1
 408 -386 l 1,1,-1
 -4 -2 l 1,2,-1
 408 309 l 1,0,-1
604 458 m 1,3,-1
 408 310 l 1,4,-1
 408 615 l 1,5,-1
 604 458 l 1,3,-1
EndSplineSet
EndChar

StartChar: uniE072
Encoding: 57458 57458 127
Width: 607
GlyphClass: 1
Flags: W
LayerCount: 2
Fore
SplineSet
195 624 m 1,0,-1
 195 319 l 1,1,-1
 -1 467 l 1,2,-1
 195 624 l 1,0,-1
195 -377 m 1,3,-1
 195 318 l 1,4,-1
 607 7 l 1,5,-1
 195 -377 l 1,3,-1
EndSplineSet
EndChar

StartChar: uniE073
Encoding: 57459 57459 128
Width: 674
GlyphClass: 1
Flags: W
LayerCount: 2
Fore
SplineSet
-5 25 m 1,0,1
 1 122 1 122 72 188 c 0,2,3
 143 255 143 255 239 255 c 2,4,-1
 257 255 l 1,5,-1
 263 253 l 1,6,-1
 295 424 l 1,7,8
 93 611 93 611 93 815 c 0,9,10
 93 907 93 907 136 1007 c 0,11,12
 149 1038 149 1038 164 1059 c 0,13,14
 176 1077 176 1077 188 1088 c 0,15,16
 193 1092 193 1092 198 1095 c 0,17,18
 201 1098 201 1098 205 1100 c 0,19,20
 211 1103 211 1103 211 1102 c 0,21,22
 283 1070 283 1070 328 967 c 256,23,24
 373 864 373 864 373 728 c 0,25,26
 373 675 373 675 366 626 c 2,27,-1
 354 563 l 1,28,-1
 410 515 l 2,29,30
 440 488 440 488 465 464 c 0,31,32
 525 407 525 407 565 355 c 0,33,34
 613 294 613 294 638 234 c 0,35,36
 666 166 666 166 666 97 c 0,37,38
 666 77 666 77 665 67 c 0,39,40
 658 -20 658 -20 622 -85 c 0,41,42
 589 -144 589 -144 533 -183 c 0,43,44
 483 -219 483 -219 418 -236 c 0,45,46
 359 -252 359 -252 293 -252 c 0,47,48
 254 -252 254 -252 225 -248 c 1,49,-1
 220 -248 l 1,50,-1
 197 -388 l 2,51,52
 191 -425 191 -425 191 -456 c 0,53,54
 191 -512 191 -512 210 -551 c 0,55,56
 226 -582 226 -582 254 -600 c 0,57,58
 274 -613 274 -613 299 -618 c 0,59,60
 307 -620 307 -620 316 -621 c 2,61,-1
 344 -621 l 2,62,63
 399 -621 399 -621 427 -601 c 0,64,65
 436 -595 436 -595 436 -590 c 0,66,67
 436 -586 436 -586 427 -582 c 2,68,-1
 415 -580 l 2,69,70
 407 -578 407 -578 402 -576 c 0,71,72
 332 -554 332 -554 332 -482 c 2,73,-1
 332 -475 l 1,74,75
 341 -380 341 -380 434 -380 c 2,76,-1
 441 -380 l 1,77,78
 522 -385 522 -385 532 -464 c 0,79,80
 533 -464 533 -464 534 -474 c 2,81,-1
 536 -486 l 1,82,-1
 536 -500 l 2,83,84
 536 -525 536 -525 530 -548 c 0,85,86
 521 -577 521 -577 503 -600 c 0,87,88
 481 -626 481 -626 445 -641 c 0,89,90
 404 -658 404 -658 346 -658 c 2,91,-1
 323 -657 l 2,92,93
 293 -655 293 -655 265 -645 c 0,94,95
 233 -634 233 -634 208 -612 c 0,96,97
 179 -587 179 -587 164 -550 c 0,98,99
 146 -508 146 -508 146 -452 c 0,100,101
 146 -420 146 -420 152 -383 c 2,102,-1
 168 -295 l 2,103,104
 173 -265 173 -265 177 -234 c 1,105,106
 -5 -166 -5 -166 -5 11 c 2,107,-1
 -5 25 l 1,0,1
138 863 m 1,109,-1
 140 841 l 1,110,111
 158 715 158 715 321 592 c 1,112,-1
 325 616 l 2,113,114
 326 621 326 621 327 623 c 0,115,116
 329 637 329 637 329 641 c 0,117,118
 331 652 331 652 331 677 c 0,119,120
 331 765 331 765 297 847 c 0,121,122
 259 940 259 940 204 943 c 0,123,108
 138 943 138 943 138 863 c 1,109,-1
586 16 m 2,124,125
 586 76 586 76 564 133 c 0,126,127
 544 185 544 185 506 235 c 0,128,129
 473 280 473 280 424 324 c 0,130,131
 383 361 383 361 328 402 c 1,132,-1
 303 246 l 1,133,134
 371 226 371 226 417 169 c 0,135,136
 464 111 464 111 464 44 c 0,137,138
 464 21 464 21 458 0 c 0,139,140
 433 -107 433 -107 350 -133 c 0,141,142
 338 -137 338 -137 329 -137 c 0,143,144
 317 -137 317 -137 317 -129 c 0,145,146
 317 -118 317 -118 332 -111 c 0,147,148
 350 -103 350 -103 372 -73 c 0,149,150
 398 -40 398 -40 399 -12 c 2,151,-1
 399 -2 l 2,152,153
 399 48 399 48 365 77 c 0,154,155
 335 103 335 103 281 112 c 1,156,-1
 227 -208 l 1,157,158
 251 -216 251 -216 293 -216 c 0,159,160
 338 -216 338 -216 384 -206 c 0,161,162
 437 -194 437 -194 478 -170 c 0,163,164
 526 -142 526 -142 553 -101 c 0,165,166
 584 -54 584 -54 586 8 c 2,167,-1
 586 16 l 2,124,125
211 -49 m 2,169,-1
 241 116 l 1,170,-1
 237 116 l 2,171,172
 174 116 174 116 127 72 c 256,173,174
 80 28 80 28 77 -35 c 2,175,-1
 77 -46 l 2,176,177
 77 -151 77 -151 184 -197 c 1,178,168
 195 -133 195 -133 211 -49 c 2,169,-1
EndSplineSet
EndChar

StartChar: uniE074
Encoding: 57460 57460 129
Width: 674
GlyphClass: 1
Flags: W
LayerCount: 2
Fore
SplineSet
-5 485 m 2,0,1
 -5 662 -5 662 177 730 c 1,2,3
 173 761 173 761 168 791 c 2,4,-1
 152 879 l 2,5,6
 146 917 146 917 146 948 c 0,7,8
 146 1004 146 1004 164 1046 c 0,9,10
 179 1083 179 1083 208 1108 c 0,11,12
 233 1130 233 1130 265 1141 c 0,13,14
 293 1151 293 1151 323 1153 c 2,15,-1
 346 1154 l 2,16,17
 404 1154 404 1154 445 1137 c 0,18,19
 481 1122 481 1122 503 1096 c 0,20,21
 521 1073 521 1073 530 1044 c 0,22,23
 536 1021 536 1021 536 996 c 2,24,-1
 536 982 l 1,25,-1
 534 970 l 2,26,27
 533 960 533 960 532 960 c 0,28,29
 522 881 522 881 441 876 c 1,30,-1
 434 876 l 2,31,32
 341 876 341 876 332 971 c 1,33,-1
 332 978 l 2,34,35
 332 1050 332 1050 402 1072 c 0,36,37
 407 1074 407 1074 415 1076 c 2,38,-1
 427 1078 l 2,39,40
 436 1082 436 1082 436 1086 c 0,41,42
 436 1091 436 1091 427 1097 c 0,43,44
 399 1117 399 1117 344 1117 c 2,45,-1
 316 1117 l 2,46,47
 307 1116 307 1116 299 1114 c 0,48,49
 274 1109 274 1109 254 1096 c 0,50,51
 226 1078 226 1078 210 1047 c 0,52,53
 191 1008 191 1008 191 952 c 0,54,55
 191 922 191 922 197 884 c 2,56,-1
 220 744 l 1,57,-1
 225 744 l 1,58,59
 254 748 254 748 293 748 c 0,60,61
 359 748 359 748 418 732 c 0,62,63
 483 715 483 715 533 679 c 0,64,65
 589 640 589 640 622 581 c 0,66,67
 658 516 658 516 665 429 c 0,68,69
 666 419 666 419 666 399 c 0,70,71
 666 330 666 330 638 262 c 0,72,73
 613 202 613 202 565 141 c 0,74,75
 525 89 525 89 465 32 c 0,76,77
 440 8 440 8 410 -19 c 2,78,-1
 354 -67 l 1,79,-1
 366 -130 l 2,80,81
 373 -179 373 -179 373 -232 c 0,82,83
 373 -368 373 -368 328 -471 c 256,84,85
 283 -574 283 -574 211 -606 c 0,86,87
 211 -607 211 -607 205 -604 c 0,88,89
 201 -602 201 -602 198 -599 c 0,90,91
 193 -596 193 -596 188 -592 c 0,92,93
 176 -581 176 -581 164 -563 c 0,94,95
 149 -542 149 -542 136 -511 c 0,96,97
 93 -411 93 -411 93 -319 c 0,98,99
 93 -115 93 -115 295 72 c 1,100,-1
 279 153 l 1,101,-1
 263 243 l 1,102,-1
 257 241 l 1,103,-1
 239 241 l 2,104,105
 143 241 143 241 72 308 c 0,106,107
 1 374 1 374 -5 471 c 1,108,-1
 -5 485 l 2,0,1
297 -351 m 0,110,111
 331 -269 331 -269 331 -181 c 0,112,113
 331 -156 331 -156 329 -145 c 0,114,115
 329 -141 329 -141 327 -127 c 0,116,117
 326 -125 326 -125 325 -120 c 2,118,-1
 321 -96 l 1,119,120
 158 -219 158 -219 140 -345 c 1,121,-1
 138 -367 l 1,122,123
 138 -447 138 -447 204 -447 c 0,124,109
 259 -444 259 -444 297 -351 c 0,110,111
586 488 m 2,125,126
 584 550 584 550 553 597 c 0,127,128
 526 638 526 638 478 666 c 0,129,130
 437 690 437 690 384 702 c 0,131,132
 338 712 338 712 293 712 c 0,133,134
 251 712 251 712 227 704 c 1,135,-1
 281 384 l 1,136,137
 335 393 335 393 365 419 c 0,138,139
 399 448 399 448 399 498 c 2,140,-1
 399 508 l 2,141,142
 398 536 398 536 372 570 c 0,143,144
 350 599 350 599 332 607 c 0,145,146
 317 615 317 615 317 625 c 0,147,148
 317 633 317 633 329 633 c 0,149,150
 338 633 338 633 350 629 c 0,151,152
 433 603 433 603 458 496 c 0,153,154
 464 475 464 475 464 452 c 0,155,156
 464 385 464 385 417 327 c 0,157,158
 371 270 371 270 303 250 c 1,159,-1
 328 94 l 1,160,161
 383 135 383 135 424 172 c 0,162,163
 473 216 473 216 506 261 c 0,164,165
 544 311 544 311 564 363 c 0,166,167
 586 420 586 420 586 480 c 2,168,-1
 586 488 l 2,125,126
77 542 m 2,170,-1
 77 531 l 2,171,172
 80 468 80 468 127 424 c 256,173,174
 174 380 174 380 237 380 c 2,175,-1
 241 380 l 1,176,-1
 211 545 l 2,177,178
 195 629 195 629 184 693 c 1,179,169
 77 647 77 647 77 542 c 2,170,-1
EndSplineSet
EndChar

StartChar: uniE075
Encoding: 57461 57461 130
Width: 699
GlyphClass: 1
Flags: W
LayerCount: 2
Fore
SplineSet
49 -118 m 0,1,2
 104 -52 104 -52 207 -52 c 0,3,4
 223 -52 223 -52 237 -55 c 0,5,6
 248 -57 248 -57 259 -61 c 2,7,-1
 267 -64 l 2,8,9
 272 -67 272 -67 274 -67 c 0,10,11
 281 -70 281 -70 285 -70 c 0,12,13
 295 -70 295 -70 307 -57 c 0,14,15
 314 -48 314 -48 324 -32 c 2,16,-1
 333 -15 l 2,17,18
 337 -6 337 -6 337 0 c 256,19,20
 337 6 337 6 326 28 c 2,21,-1
 318 40 l 2,22,23
 313 48 313 48 308 53 c 0,24,25
 295 68 295 68 285 68 c 0,26,27
 281 68 281 68 274 66 c 2,28,-1
 259 60 l 2,29,30
 248 56 248 56 237 55 c 0,31,32
 223 52 223 52 207 52 c 0,33,34
 104 52 104 52 49 118 c 0,35,36
 0 176 0 176 0 269 c 256,37,38
 0 362 0 362 59 430 c 0,39,40
 123 503 123 503 226 503 c 0,41,42
 277 503 277 503 317 491 c 0,43,44
 351 481 351 481 375 463 c 0,45,46
 415 432 415 432 415 392 c 0,47,48
 415 360 415 360 393 333 c 0,49,50
 370 305 370 305 339 305 c 0,51,52
 269 305 269 305 269 367 c 0,53,54
 269 390 269 390 286 411 c 0,55,56
 292 419 292 419 300 426 c 2,57,-1
 317 438 l 2,58,59
 318 439 318 439 320 439 c 0,60,61
 327 443 327 443 327 447 c 0,62,63
 327 450 327 450 325 451 c 0,64,65
 300 476 300 476 259 476 c 0,66,67
 200 476 200 476 168 425 c 0,68,69
 141 384 141 384 141 328 c 2,70,-1
 141 208 l 2,71,72
 141 89 141 89 223 89 c 0,73,74
 269 89 269 89 295 116 c 0,75,76
 316 137 316 137 330 180 c 0,77,78
 340 209 340 209 352 209 c 0,79,80
 368 209 368 209 374 180 c 0,81,82
 392 100 392 100 421 65 c 0,83,84
 432 51 432 51 446 44 c 0,85,86
 451 41 451 41 458 39 c 2,87,-1
 469 37 l 1,88,-1
 469 481 l 2,89,90
 469 503 469 503 490 503 c 0,91,92
 512 503 512 503 512 481 c 2,93,-1
 512 -482 l 2,94,95
 512 -503 512 -503 490 -503 c 0,96,97
 469 -503 469 -503 469 -482 c 2,98,-1
 469 -38 l 1,99,100
 456 -39 456 -39 446 -45 c 0,101,102
 432 -52 432 -52 421 -65 c 0,103,104
 392 -100 392 -100 374 -180 c 0,105,106
 368 -209 368 -209 352 -209 c 0,107,108
 340 -209 340 -209 330 -180 c 0,109,110
 316 -137 316 -137 295 -116 c 0,111,112
 269 -89 269 -89 223 -89 c 0,113,114
 141 -89 141 -89 141 -209 c 2,115,-1
 141 -328 l 2,116,117
 141 -384 141 -384 168 -426 c 0,118,119
 200 -476 200 -476 259 -476 c 0,120,121
 286 -476 286 -476 303 -468 c 0,122,123
 309 -465 309 -465 315 -460 c 0,124,125
 317 -459 317 -459 319 -457 c 2,126,-1
 323 -453 l 2,127,128
 327 -449 327 -449 327 -447 c 0,129,130
 327 -444 327 -444 321 -440 c 2,131,-1
 303 -429 l 2,132,133
 295 -422 295 -422 289 -415 c 0,134,135
 269 -392 269 -392 269 -367 c 0,136,137
 269 -305 269 -305 339 -305 c 0,138,139
 370 -305 370 -305 393 -333 c 0,140,141
 415 -360 415 -360 415 -392 c 0,142,143
 415 -432 415 -432 375 -463 c 0,144,145
 351 -481 351 -481 317 -491 c 0,146,147
 277 -503 277 -503 226 -503 c 0,148,149
 123 -503 123 -503 59 -430 c 0,150,151
 0 -363 0 -363 0 -271 c 0,152,0
 0 -177 0 -177 49 -118 c 0,1,2
571 480 m 2,153,154
 571 503 571 503 594 503 c 2,155,-1
 676 503 l 2,156,157
 699 503 699 503 699 480 c 2,158,-1
 699 -480 l 2,159,160
 699 -503 699 -503 676 -503 c 2,161,-1
 594 -503 l 2,162,163
 571 -503 571 -503 571 -480 c 2,164,-1
 571 480 l 2,153,154
EndSplineSet
EndChar

StartChar: uniE076
Encoding: 57462 57462 131
Width: 724
GlyphClass: 1
Flags: W
LayerCount: 2
Fore
SplineSet
431 262 m 1,0,1
 485 262 485 262 533 241 c 0,2,3
 576 221 576 221 610 187 c 0,4,5
 677 119 677 119 677 43 c 2,6,-1
 677 36 l 2,7,8
 677 32 677 32 676 29 c 0,9,10
 668 -36 668 -36 630 -74 c 0,11,12
 595 -110 595 -110 549 -110 c 2,13,-1
 544 -110 l 2,14,15
 448 -108 448 -108 448 -9 c 0,16,17
 448 50 448 50 485 77 c 0,18,19
 512 96 512 96 555 96 c 2,20,-1
 584 95 l 2,21,22
 608 95 608 95 608 116 c 2,23,-1
 608 121 l 2,24,25
 607 124 607 124 607 123 c 1,26,27
 591 158 591 158 563 183 c 0,28,29
 541 203 541 203 512 215 c 0,30,31
 492 223 492 223 470 227 c 0,32,33
 452 230 452 230 452 229 c 1,34,35
 394 229 394 229 358 190 c 0,36,37
 331 159 331 159 316 109 c 0,38,39
 304 71 304 71 299 19 c 0,40,41
 297 1 297 1 297 -37 c 0,42,43
 297 -151 297 -151 332 -258 c 0,44,45
 356 -328 356 -328 411 -394 c 0,46,47
 457 -448 457 -448 529 -503 c 0,48,49
 557 -524 557 -524 603 -549 c 0,50,51
 607 -552 607 -552 613 -554 c 2,52,-1
 680 -591 l 2,53,54
 700 -603 700 -603 700 -611 c 0,55,56
 700 -616 700 -616 693 -619 c 0,57,58
 687 -622 687 -622 682 -621 c 0,59,60
 572 -601 572 -601 469 -535 c 0,61,62
 375 -474 375 -474 300 -383 c 0,63,64
 148 -199 148 -199 148 -28 c 2,65,-1
 148 -21 l 2,66,67
 149 72 149 72 193 138 c 0,68,69
 228 190 228 190 289 222 c 0,70,71
 312 235 312 235 339 244 c 0,72,73
 361 251 361 251 383 256 c 0,74,75
 392 258 392 258 401 259 c 2,76,-1
 431 262 l 1,0,1
110 -123 m 256,78,79
 110 -179 110 -179 55 -179 c 0,80,81
 -1 -179 -1 -179 -1 -123 c 256,82,83
 -1 -67 -1 -67 55 -67 c 0,84,77
 110 -67 110 -67 110 -123 c 256,78,79
110 122 m 0,86,87
 110 66 110 66 55 66 c 0,88,89
 -1 66 -1 66 -1 122 c 0,90,91
 -1 177 -1 177 55 177 c 0,92,85
 110 177 110 177 110 122 c 0,86,87
EndSplineSet
EndChar

StartChar: uniE077
Encoding: 57463 57463 132
Width: 724
GlyphClass: 1
Flags: W
LayerCount: 2
Fore
SplineSet
381 -261 m 2,0,1
 372 -260 372 -260 363 -258 c 0,2,3
 341 -253 341 -253 319 -246 c 0,4,5
 292 -237 292 -237 269 -224 c 0,6,7
 208 -192 208 -192 173 -140 c 0,8,9
 129 -74 129 -74 128 19 c 2,10,-1
 128 26 l 2,11,12
 128 197 128 197 280 381 c 0,13,14
 355 472 355 472 449 533 c 0,15,16
 552 599 552 599 662 619 c 0,17,18
 667 620 667 620 673 617 c 0,19,20
 680 614 680 614 680 609 c 0,21,22
 680 601 680 601 660 589 c 2,23,-1
 593 552 l 2,24,25
 587 550 587 550 583 547 c 0,26,27
 537 522 537 522 509 501 c 0,28,29
 437 446 437 446 391 392 c 0,30,31
 336 326 336 326 312 256 c 0,32,33
 277 149 277 149 277 35 c 0,34,35
 277 -3 277 -3 279 -21 c 0,36,37
 284 -73 284 -73 296 -111 c 0,38,39
 311 -161 311 -161 338 -192 c 0,40,41
 374 -231 374 -231 432 -231 c 1,42,43
 432 -232 432 -232 450 -229 c 0,44,45
 472 -225 472 -225 492 -217 c 0,46,47
 521 -205 521 -205 543 -185 c 0,48,49
 571 -160 571 -160 587 -125 c 1,50,-1
 588 -118 l 2,51,52
 588 -97 588 -97 564 -97 c 2,53,-1
 535 -98 l 2,54,55
 492 -98 492 -98 465 -79 c 0,56,57
 428 -52 428 -52 428 7 c 0,58,59
 428 106 428 106 524 108 c 2,60,-1
 529 108 l 2,61,62
 575 108 575 108 610 72 c 0,63,64
 648 34 648 34 656 -31 c 0,65,66
 657 -34 657 -34 657 -38 c 2,67,-1
 657 -45 l 2,68,69
 657 -121 657 -121 590 -189 c 0,70,71
 556 -223 556 -223 513 -243 c 0,72,73
 465 -264 465 -264 411 -264 c 1,74,-1
 381 -261 l 2,0,1
-21 121 m 256,76,77
 -21 177 -21 177 35 177 c 0,78,79
 90 177 90 177 90 121 c 256,80,81
 90 65 90 65 35 65 c 0,82,75
 -21 65 -21 65 -21 121 c 256,76,77
-21 -124 m 0,84,85
 -21 -68 -21 -68 35 -68 c 0,86,87
 90 -68 90 -68 90 -124 c 0,88,89
 90 -179 90 -179 35 -179 c 0,90,83
 -21 -179 -21 -179 -21 -124 c 0,84,85
EndSplineSet
EndChar

StartChar: uniE078
Encoding: 57464 57464 133
Width: 862
GlyphClass: 1
Flags: W
LayerCount: 2
Fore
SplineSet
82 707 m 1,0,-1
 188 707 l 1,1,-1
 188 815 l 1,2,-1
 220 815 l 1,3,-1
 220 707 l 1,4,-1
 343 707 l 1,5,-1
 343 815 l 1,6,-1
 375 815 l 1,7,-1
 375 707 l 1,8,-1
 498 707 l 1,9,-1
 498 815 l 1,10,-1
 530 815 l 1,11,-1
 530 707 l 1,12,-1
 653 707 l 1,13,-1
 653 815 l 1,14,-1
 685 815 l 1,15,-1
 685 707 l 1,16,-1
 786 707 l 1,17,-1
 862 631 l 1,18,-1
 839 608 l 1,19,-1
 772 675 l 1,20,-1
 685 675 l 1,21,-1
 685 519 l 1,22,-1
 862 519 l 1,23,-1
 685 -816 l 1,24,-1
 653 -814 l 1,25,-1
 653 442 l 1,26,-1
 530 442 l 1,27,-1
 530 -814 l 1,28,-1
 498 -814 l 1,29,-1
 498 442 l 1,30,-1
 375 442 l 1,31,-1
 375 -814 l 1,32,-1
 343 -814 l 1,33,-1
 343 442 l 1,34,-1
 220 442 l 1,35,-1
 220 -814 l 1,36,-1
 188 -816 l 1,37,-1
 6 519 l 1,38,-1
 188 519 l 1,39,-1
 188 675 l 1,40,-1
 96 675 l 1,41,-1
 22 602 l 1,42,-1
 0 624 l 1,43,-1
 82 707 l 1,0,-1
47 442 m 1,44,-1
 188 -579 l 1,45,-1
 188 442 l 1,46,-1
 47 442 l 1,44,-1
685 442 m 1,47,-1
 685 -572 l 1,48,-1
 820 442 l 1,49,-1
 685 442 l 1,47,-1
375 519 m 1,50,-1
 498 519 l 1,51,-1
 498 675 l 1,52,-1
 375 675 l 1,53,-1
 375 519 l 1,50,-1
653 519 m 1,54,-1
 653 675 l 1,55,-1
 530 675 l 1,56,-1
 530 519 l 1,57,-1
 653 519 l 1,54,-1
220 675 m 1,58,-1
 220 519 l 1,59,-1
 343 519 l 1,60,-1
 343 675 l 1,61,-1
 220 675 l 1,58,-1
EndSplineSet
EndChar

StartChar: uniE079
Encoding: 57465 57465 134
Width: 284
GlyphClass: 1
Flags: W
LayerCount: 2
Fore
SplineSet
0 453 m 2,0,1
 1 458 1 458 3 461 c 0,2,3
 5 465 5 465 8 465 c 2,4,-1
 13 463 l 2,5,6
 17 460 17 460 27 456 c 0,7,8
 40 451 40 451 54 447 c 0,9,10
 92 435 92 435 123 435 c 256,11,12
 154 435 154 435 185 446 c 2,13,-1
 207 454 l 2,14,15
 216 459 216 459 220 462 c 0,16,17
 225 466 225 466 230 466 c 0,18,19
 237 466 237 466 237 453 c 0,20,21
 229 387 229 387 182 362 c 0,22,23
 165 353 165 353 143 350 c 2,24,-1
 127 348 l 1,25,-1
 108 348 l 2,26,27
 90 348 90 348 81 349 c 0,28,29
 66 349 66 349 58 352 c 0,30,31
 52 354 52 354 50 354 c 0,32,33
 39 354 39 354 39 339 c 2,34,-1
 39 20 l 2,35,36
 39 11 39 11 40 11 c 0,37,38
 42 11 42 11 45 18 c 2,39,-1
 48 25 l 2,40,41
 57 47 57 47 63 59 c 0,42,43
 71 78 71 78 80 92 c 0,44,45
 103 128 103 128 133 143 c 0,46,47
 153 153 153 153 174 153 c 0,48,49
 224 153 224 153 251 106 c 0,50,51
 269 77 269 77 277 34 c 0,52,53
 284 -3 284 -3 284 -48 c 0,54,55
 284 -86 284 -86 279 -128 c 0,56,57
 277 -144 277 -144 274 -161 c 0,58,59
 272 -174 272 -174 269 -186 c 0,60,61
 261 -221 261 -221 243 -269 c 2,62,-1
 227 -311 l 2,63,64
 221 -327 221 -327 211 -350 c 0,65,66
 194 -388 194 -388 174 -417 c 2,67,-1
 140 -456 l 2,68,69
 133 -463 133 -463 132 -463 c 1,70,71
 132 -459 132 -459 135 -449 c 2,72,-1
 138 -440 l 1,73,74
 167 -388 167 -388 189 -324 c 0,75,76
 206 -271 206 -271 218 -212 c 0,77,78
 227 -167 227 -167 231 -123 c 0,79,80
 233 -107 233 -107 233 -92 c 2,81,-1
 234 -74 l 2,82,83
 234 -36 234 -36 220 -1 c 0,84,85
 204 42 204 42 178 42 c 0,86,87
 147 42 147 42 114 1 c 0,88,89
 89 -31 89 -31 62 -88 c 2,90,-1
 24 -178 l 1,91,-1
 13 -208 l 2,92,93
 8 -219 8 -219 7 -219 c 0,94,95
 2 -219 2 -219 1 -211 c 0,96,97
 0 -208 0 -208 0 -204 c 2,98,-1
 0 453 l 2,0,1
EndSplineSet
EndChar

StartChar: uniE07A
Encoding: 57466 57466 135
Width: 440
GlyphClass: 1
Flags: W
LayerCount: 2
Fore
SplineSet
440 -9 m 2,0,1
 440 -126 440 -126 324 -169 c 1,2,-1
 337 -239 l 2,3,4
 345 -282 345 -282 345 -312 c 0,5,6
 345 -381 345 -381 302 -420 c 0,7,8
 269 -451 269 -451 225 -454 c 2,9,-1
 210 -455 l 1,10,11
 139 -455 139 -455 107 -413 c 0,12,13
 85 -384 85 -384 85 -343 c 0,14,15
 85 -320 85 -320 88 -320 c 0,16,17
 97 -248 97 -248 168 -248 c 0,18,19
 183 -248 183 -248 197 -255 c 0,20,21
 236 -271 236 -271 236 -320 c 2,22,-1
 236 -325 l 2,23,24
 236 -351 236 -351 215 -371 c 0,25,26
 198 -386 198 -386 173 -393 c 0,27,28
 169 -395 169 -395 165 -396 c 2,29,-1
 156 -397 l 2,30,31
 150 -401 150 -401 150 -403 c 256,32,33
 150 -405 150 -405 156 -410 c 0,34,35
 174 -423 174 -423 211 -423 c 2,36,-1
 230 -423 l 1,37,-1
 241 -421 l 2,38,39
 258 -418 258 -418 271 -409 c 0,40,41
 289 -397 289 -397 299 -377 c 0,42,43
 312 -352 312 -352 312 -315 c 0,44,45
 312 -286 312 -286 305 -249 c 2,46,-1
 292 -178 l 1,47,-1
 270 -179 l 1,48,-1
 258 -181 l 1,49,-1
 244 -181 l 2,50,51
 150 -181 150 -181 87 -136 c 0,52,53
 9 -81 9 -81 1 28 c 0,54,55
 0 33 0 33 0 38 c 2,56,-1
 0 48 l 2,57,58
 0 93 0 93 18 137 c 0,59,60
 35 177 35 177 66 217 c 0,61,62
 92 251 92 251 132 288 c 0,63,64
 148 304 148 304 168 322 c 2,65,-1
 205 353 l 1,66,-1
 197 395 l 2,67,68
 192 424 192 424 192 461 c 0,69,70
 192 659 192 659 298 707 c 1,71,-1
 302 705 l 2,72,73
 307 703 307 703 313 698 c 0,74,75
 321 690 321 690 329 679 c 0,76,77
 338 664 338 664 347 644 c 0,78,79
 376 580 376 580 376 519 c 0,80,81
 376 349 376 349 256 239 c 1,82,-1
 262 211 l 2,83,84
 262 207 262 207 263 206 c 2,85,-1
 265 197 l 2,86,87
 269 176 269 176 273 150 c 1,88,89
 274 151 274 151 277 151 c 2,90,-1
 288 151 l 2,91,92
 350 151 350 151 393 108 c 0,93,94
 435 65 435 65 440 1 c 1,95,-1
 440 -9 l 2,0,1
245 531 m 0,97,98
 226 490 226 490 226 434 c 2,99,-1
 226 422 l 2,100,101
 226 416 226 416 227 411 c 2,102,-1
 232 378 l 1,103,104
 329 453 329 453 338 511 c 0,105,106
 339 514 339 514 339 518 c 2,107,-1
 339 525 l 2,108,109
 339 578 339 578 303 578 c 0,110,96
 266 577 266 577 245 531 c 0,97,98
61 -11 m 2,111,112
 64 -87 64 -87 127 -123 c 0,113,114
 153 -137 153 -137 186 -143 c 0,115,116
 214 -149 214 -149 244 -149 c 0,117,118
 272 -149 272 -149 287 -143 c 1,119,-1
 253 45 l 1,120,121
 221 39 221 39 204 25 c 0,122,123
 182 7 182 7 182 -24 c 2,124,-1
 182 -30 l 2,125,126
 183 -49 183 -49 196 -67 c 0,127,128
 208 -84 208 -84 219 -88 c 0,129,130
 229 -94 229 -94 229 -100 c 256,131,132
 229 -106 229 -106 221 -106 c 0,133,134
 216 -106 216 -106 207 -103 c 0,135,136
 153 -86 153 -86 137 -16 c 0,137,138
 133 -4 133 -4 133 13 c 0,139,140
 133 115 133 115 238 145 c 1,141,-1
 226 224 l 1,142,-1
 164 177 l 2,143,144
 131 150 131 150 111 126 c 0,145,146
 61 68 61 68 61 -5 c 2,147,-1
 61 -11 l 2,111,112
319 -136 m 1,148,149
 386 -107 386 -107 386 -46 c 2,150,-1
 386 -39 l 1,151,152
 381 48 381 48 291 48 c 1,153,154
 296 23 296 23 300 -4 c 2,155,-1
 319 -136 l 1,148,149
EndSplineSet
EndChar

StartChar: uniE07B
Encoding: 57467 57467 136
Width: 506
GlyphClass: 1
Flags: W
LayerCount: 2
Fore
SplineSet
462 -284 m 0,1,2
 415 -332 415 -332 347 -332 c 0,3,4
 284 -332 284 -332 249 -297 c 0,5,6
 222 -270 222 -270 222 -241 c 0,7,8
 222 -183 222 -183 273 -183 c 0,9,10
 328 -183 328 -183 328 -233 c 0,11,12
 328 -250 328 -250 312 -263 c 2,13,-1
 299 -272 l 2,14,15
 292 -276 292 -276 290 -278 c 2,16,-1
 288 -280 l 1,17,-1
 284 -281 l 2,18,19
 280 -284 280 -284 280 -286 c 0,20,21
 280 -287 280 -287 283 -290 c 2,22,-1
 288 -295 l 2,23,24
 292 -298 292 -298 296 -300 c 0,25,26
 301 -302 301 -302 308 -303 c 0,27,28
 315 -305 315 -305 325 -305 c 0,29,30
 364 -305 364 -305 381 -276 c 0,31,32
 395 -254 395 -254 395 -216 c 2,33,-1
 395 -138 l 2,34,35
 395 -95 395 -95 389 -83 c 0,36,37
 380 -67 380 -67 349 -67 c 0,38,39
 295 -67 295 -67 279 -119 c 0,40,41
 272 -138 272 -138 264 -138 c 0,42,43
 259 -138 259 -138 255 -132 c 256,44,45
 251 -126 251 -126 249 -119 c 0,46,47
 238 -67 238 -67 219 -48 c 0,48,49
 211 -40 211 -40 202 -37 c 2,50,-1
 194 -35 l 2,51,52
 192 -34 192 -34 187 -34 c 1,53,-1
 187 -318 l 2,54,55
 187 -332 187 -332 164 -332 c 0,56,57
 150 -332 150 -332 150 -318 c 2,58,-1
 150 317 l 2,59,60
 150 332 150 332 164 332 c 0,61,62
 187 332 187 332 187 317 c 2,63,-1
 187 34 l 1,64,65
 192 34 192 34 194 35 c 2,66,-1
 202 37 l 2,67,68
 211 40 211 40 219 48 c 0,69,70
 238 67 238 67 249 119 c 0,71,72
 251 126 251 126 255 132 c 256,73,74
 259 138 259 138 264 138 c 0,75,76
 272 138 272 138 279 119 c 0,77,78
 294 68 294 68 349 68 c 0,79,80
 380 68 380 68 389 83 c 0,81,82
 395 95 395 95 395 137 c 2,83,-1
 395 216 l 2,84,85
 395 254 395 254 381 276 c 0,86,87
 364 306 364 306 325 306 c 0,88,89
 299 306 299 306 282 289 c 0,90,91
 280 288 280 288 280 286 c 256,92,93
 280 284 280 284 285 281 c 2,94,-1
 289 280 l 1,95,-1
 312 263 l 2,96,97
 328 248 328 248 328 234 c 0,98,99
 328 184 328 184 273 184 c 0,100,101
 222 184 222 184 222 242 c 0,102,103
 222 271 222 271 249 297 c 0,104,105
 284 332 284 332 347 332 c 0,106,107
 416 332 416 332 462 284 c 0,108,109
 506 238 506 238 506 178 c 0,110,111
 506 117 506 117 469 74 c 0,112,113
 428 26 428 26 360 26 c 0,114,115
 341 26 341 26 325 36 c 2,116,-1
 320 39 l 2,117,118
 316 42 316 42 315 42 c 0,119,120
 311 45 311 45 308 45 c 0,121,122
 303 45 303 45 295 37 c 0,123,124
 292 34 292 34 289 29 c 2,125,-1
 276 8 l 2,126,127
 274 4 274 4 274 0 c 256,128,129
 274 -4 274 -4 277 -10 c 2,130,-1
 287 -29 l 2,131,132
 290 -34 290 -34 294 -37 c 0,133,134
 301 -46 301 -46 308 -46 c 0,135,136
 311 -46 311 -46 315 -43 c 2,137,-1
 325 -35 l 2,138,139
 341 -25 341 -25 360 -25 c 0,140,141
 428 -25 428 -25 469 -73 c 0,142,143
 506 -117 506 -117 506 -179 c 0,144,0
 506 -238 506 -238 462 -284 c 0,1,2
102 -317 m 2,145,146
 102 -332 102 -332 87 -332 c 2,147,-1
 15 -332 l 2,148,149
 0 -332 0 -332 0 -317 c 2,150,-1
 0 317 l 2,151,152
 0 332 0 332 15 332 c 2,153,-1
 87 332 l 2,154,155
 102 332 102 332 102 317 c 2,156,-1
 102 -317 l 2,145,146
EndSplineSet
EndChar

StartChar: uniE07C
Encoding: 57468 57468 137
Width: 462
GlyphClass: 1
Flags: W
LayerCount: 2
Fore
SplineSet
177 169 m 1,0,-1
 207 163 l 2,1,2
 228 157 228 157 246 148 c 0,3,4
 269 137 269 137 288 122 c 0,5,6
 315 100 315 100 331 68 c 0,7,8
 349 31 349 31 350 -18 c 2,9,-1
 350 -22 l 2,10,11
 350 -75 350 -75 322 -139 c 0,12,13
 286 -224 286 -224 215 -295 c 0,14,15
 169 -341 169 -341 117 -373 c 0,16,17
 50 -414 50 -414 -2 -414 c 0,18,19
 -5 -414 -5 -414 -10 -410 c 0,20,21
 -15 -407 -15 -407 -15 -403 c 0,22,23
 -15 -400 -15 -400 -12 -395 c 0,24,25
 -9 -389 -9 -389 -2 -385 c 2,26,-1
 49 -358 l 2,27,28
 79 -342 79 -342 98 -327 c 0,29,30
 180 -264 180 -264 211 -174 c 0,31,32
 234 -103 234 -103 234 -28 c 2,33,-1
 234 -9 l 1,34,-1
 231 17 l 2,35,36
 227 51 227 51 223 66 c 0,37,38
 216 91 216 91 200 110 c 0,39,40
 177 135 177 135 147 135 c 1,41,42
 147 136 147 136 137 136 c 0,43,44
 128 136 128 136 120 134 c 0,45,46
 108 132 108 132 98 126 c 0,47,48
 70 112 70 112 55 77 c 1,49,-1
 54 73 l 2,50,51
 54 67 54 67 57 64 c 0,52,53
 61 59 61 59 70 59 c 2,54,-1
 89 59 l 2,55,56
 102 59 102 59 113 57 c 0,57,58
 128 53 128 53 140 47 c 0,59,60
 169 29 169 29 169 -10 c 0,61,62
 169 -40 169 -40 144 -67 c 0,63,64
 118 -94 118 -94 88 -94 c 2,65,-1
 84 -94 l 2,66,67
 12 -94 12 -94 1 -3 c 0,68,69
 0 0 0 0 0 6 c 0,70,71
 0 62 0 62 39 111 c 0,72,73
 86 170 86 170 162 170 c 1,74,-1
 177 169 l 1,0,-1
463 -85 m 256,76,77
 463 -129 463 -129 418 -129 c 0,78,79
 375 -129 375 -129 375 -85 c 256,80,81
 375 -41 375 -41 418 -41 c 0,82,75
 463 -41 463 -41 463 -85 c 256,76,77
462 84 m 0,84,85
 462 39 462 39 418 39 c 256,86,87
 374 39 374 39 374 84 c 0,88,89
 374 127 374 127 418 127 c 256,90,83
 462 127 462 127 462 84 c 0,84,85
EndSplineSet
EndChar

StartChar: uniE07D
Encoding: 57469 57469 138
Width: 205
GlyphClass: 1
Flags: W
LayerCount: 2
Fore
SplineSet
117 247 m 2,0,1
 125 247 125 247 138 245 c 0,2,3
 154 242 154 242 167 236 c 0,4,5
 205 219 205 219 205 187 c 0,6,7
 205 165 205 165 193 152 c 0,8,9
 189 147 189 147 183 143 c 2,10,-1
 174 137 l 2,11,12
 166 130 166 130 166 121 c 0,13,14
 166 115 166 115 167 113 c 0,15,16
 167 108 167 108 170 105 c 0,17,18
 179 89 179 89 179 71 c 0,19,20
 179 26 179 26 133 6 c 0,21,22
 117 0 117 0 92 0 c 0,23,24
 64 0 64 0 37 15 c 0,25,26
 8 32 8 32 2 58 c 2,27,-1
 0 70 l 1,28,29
 0 118 0 118 51 136 c 0,30,31
 57 138 57 138 57 141 c 256,32,33
 57 144 57 144 55 144 c 0,34,35
 39 163 39 163 39 185 c 0,36,37
 39 226 39 226 79 241 c 0,38,39
 91 247 91 247 113 247 c 2,40,-1
 117 247 l 2,0,1
95 186 m 0,42,43
 97 182 97 182 101 178 c 2,44,-1
 119 158 l 2,45,46
 127 150 127 150 133 146 c 2,47,-1
 140 143 l 1,48,-1
 146 142 l 2,49,50
 157 142 157 142 164 159 c 0,51,52
 168 172 168 172 169 190 c 0,53,54
 169 207 169 207 160 216 c 0,55,56
 148 230 148 230 120 230 c 0,57,58
 92 228 92 228 89 205 c 0,59,41
 89 196 89 196 95 186 c 0,42,43
48 101 m 0,61,62
 38 88 38 88 38 71 c 0,63,64
 38 67 38 67 39 64 c 0,65,66
 50 12 50 12 92 12 c 0,67,68
 129 12 129 12 129 48 c 0,69,70
 129 51 129 51 128 55 c 2,71,-1
 125 62 l 2,72,73
 118 79 118 79 100 96 c 2,74,-1
 92 103 l 2,75,76
 87 108 87 108 83 110 c 2,77,-1
 76 114 l 2,78,79
 72 116 72 116 69 116 c 0,80,81
 60 116 60 116 55 109 c 0,82,60
 49 105 49 105 48 101 c 0,61,62
EndSplineSet
EndChar

StartChar: uniE07E
Encoding: 57470 57470 139
Width: 359
GlyphClass: 1
Flags: W
LayerCount: 2
Fore
SplineSet
106 1 m 2,1,-1
 48 -1 l 2,2,3
 0 -2 0 -2 0 9 c 0,4,5
 3 16 3 16 20 17 c 256,6,7
 37 18 37 18 47 39 c 0,8,9
 53 50 53 50 70 94 c 0,10,11
 77 111 77 111 81 123 c 2,12,-1
 87 139 l 1,13,-1
 88 145 l 2,14,15
 88 152 88 152 81 152 c 0,16,17
 78 152 78 152 74 149 c 2,18,-1
 68 143 l 2,19,20
 63 138 63 138 59 136 c 0,21,22
 54 133 54 133 47 133 c 0,23,24
 36 133 36 133 36 141 c 0,25,26
 36 144 36 144 38 147 c 2,27,-1
 125 246 l 2,28,29
 136 255 136 255 141 255 c 0,30,31
 144 255 144 255 148 253 c 0,32,33
 150 253 150 253 152 252 c 0,34,35
 152 251 152 251 153 251 c 2,36,-1
 155 250 l 2,37,38
 160 247 160 247 164 246 c 0,39,40
 169 244 169 244 174 244 c 0,41,42
 177 244 177 244 182 246 c 2,43,-1
 188 248 l 2,44,45
 193 248 193 248 193 243 c 2,46,-1
 193 239 l 2,47,48
 193 237 193 237 179 205 c 0,49,50
 174 192 174 192 165 172 c 2,51,-1
 119 66 l 2,52,53
 105 34 105 34 105 31 c 0,54,55
 105 24 105 24 109 20 c 0,56,57
 112 18 112 18 119 16 c 2,58,-1
 123 15 l 2,59,60
 126 15 126 15 128 14 c 0,61,62
 132 13 132 13 132 9 c 0,63,64
 132 0 132 0 120 0 c 0,65,0
 115 1 115 1 106 1 c 2,1,-1
177 86 m 1,66,67
 201 86 201 86 201 60 c 0,68,69
 201 55 201 55 199 51 c 2,70,-1
 188 35 l 2,71,72
 185 30 185 30 184 24 c 0,73,74
 184 10 184 10 213 10 c 0,75,76
 220 10 220 10 226 13 c 0,77,78
 234 16 234 16 241 23 c 0,79,80
 260 39 260 39 273 77 c 0,81,82
 280 97 280 97 280 109 c 0,83,84
 280 127 280 127 268 136 c 0,85,86
 263 139 263 139 257 140 c 0,87,88
 252 141 252 141 247 141 c 0,89,90
 231 141 231 141 212 128 c 2,91,-1
 199 118 l 2,92,93
 193 114 193 114 190 114 c 0,94,95
 183 114 183 114 180 117 c 0,96,97
 179 118 179 118 179 123 c 0,98,99
 179 137 179 137 199 191 c 0,100,101
 207 215 207 215 214 230 c 0,102,103
 223 247 223 247 227 248 c 2,104,-1
 338 248 l 2,105,106
 359 247 359 247 359 244 c 0,107,108
 359 229 359 229 339 218 c 0,109,110
 325 210 325 210 304 206 c 2,111,-1
 275 200 l 2,112,113
 253 196 253 196 241 193 c 2,114,-1
 227 190 l 2,115,116
 224 187 224 187 222 178 c 0,117,118
 220 171 220 171 220 164 c 0,119,120
 220 161 220 161 224 161 c 2,121,-1
 255 164 l 2,122,123
 263 164 263 164 270 162 c 0,124,125
 275 161 275 161 281 158 c 2,126,-1
 290 154 l 2,127,128
 294 152 294 152 298 152 c 2,129,-1
 301 149 l 1,130,131
 324 132 324 132 324 94 c 0,132,133
 324 51 324 51 288 23 c 0,134,135
 255 -3 255 -3 212 -3 c 0,136,137
 150 -3 150 -3 150 55 c 0,138,139
 150 75 150 75 166 84 c 1,140,-1
 177 86 l 1,66,67
EndSplineSet
EndChar

StartChar: uniE080
Encoding: 57472 57472 141
Width: 429
GlyphClass: 1
Flags: W
LayerCount: 2
Fore
SplineSet
367 -177 m 256,1,2
 304 -250 304 -250 215 -250 c 256,3,4
 126 -250 126 -250 63 -177 c 256,5,6
 0 -104 0 -104 0 0 c 256,7,8
 0 104 0 104 63 178 c 0,9,10
 126 251 126 251 215 251 c 256,11,12
 304 251 304 251 367 178 c 0,13,14
 430 104 430 104 430 0 c 256,15,0
 430 -104 430 -104 367 -177 c 256,1,2
162 158 m 256,17,18
 140 96 140 96 140 7 c 0,19,20
 140 -81 140 -81 162 -143 c 256,21,22
 184 -205 184 -205 215 -205 c 256,23,24
 246 -205 246 -205 268 -143 c 256,25,26
 290 -81 290 -81 290 7 c 256,27,28
 290 95 290 95 268 158 c 0,29,30
 246 220 246 220 215 220 c 256,31,16
 184 220 184 220 162 158 c 256,17,18
EndSplineSet
EndChar

StartChar: uniE081
Encoding: 57473 57473 142
Width: 293
GlyphClass: 1
Flags: W
LayerCount: 2
Fore
SplineSet
99 232 m 2,0,1
 107 251 107 251 117 251 c 2,2,-1
 122 250 l 2,3,4
 145 247 145 247 174 247 c 2,5,-1
 226 251 l 2,6,7
 246 250 246 250 246 228 c 2,8,-1
 246 -184 l 2,9,10
 246 -196 246 -196 257 -208 c 0,11,12
 267 -219 267 -219 278 -219 c 0,13,14
 287 -219 287 -219 291 -226 c 2,15,-1
 293 -236 l 1,16,-1
 291 -242 l 2,17,18
 287 -250 287 -250 277 -250 c 2,19,-1
 64 -250 l 2,20,21
 42 -250 42 -250 42 -234 c 0,22,23
 42 -226 42 -226 48 -222 c 0,24,25
 52 -219 52 -219 59 -219 c 0,26,27
 103 -219 103 -219 103 -181 c 2,28,-1
 103 77 l 2,29,30
 103 82 103 82 102 86 c 0,31,32
 100 91 100 91 97 91 c 0,33,34
 93 91 93 91 87 81 c 2,35,-1
 33 -7 l 2,36,37
 33 -8 33 -8 30 -11 c 0,38,39
 25 -16 25 -16 19 -16 c 2,40,-1
 10 -14 l 2,41,42
 -1 -10 -1 -10 -1 0 c 0,43,44
 -1 4 -1 4 1 9 c 2,45,-1
 99 232 l 2,0,1
EndSplineSet
EndChar

StartChar: uniE082
Encoding: 57474 57474 143
Width: 416
GlyphClass: 1
Flags: W
LayerCount: 2
Fore
SplineSet
387 -181 m 0,1,2
 373 -212 373 -212 351 -229 c 0,3,4
 333 -242 333 -242 310 -247 c 0,5,6
 295 -250 295 -250 273 -250 c 0,7,8
 243 -250 243 -250 219 -242 c 0,9,10
 201 -235 201 -235 183 -223 c 0,11,12
 179 -221 179 -221 175 -218 c 2,13,-1
 156 -204 l 2,14,15
 142 -196 142 -196 129 -196 c 0,16,17
 95 -196 95 -196 69 -226 c 2,18,-1
 52 -247 l 2,19,20
 43 -257 43 -257 36 -257 c 0,21,22
 31 -257 31 -257 28 -255 c 0,23,24
 10 -244 10 -244 10 -224 c 2,25,-1
 11 -218 l 1,26,27
 36 -126 36 -126 122 -71 c 0,28,29
 189 -30 189 -30 235 31 c 0,30,31
 269 76 269 76 269 133 c 2,32,-1
 269 145 l 1,33,-1
 267 160 l 2,34,35
 265 179 265 179 257 192 c 0,36,37
 237 229 237 229 179 229 c 0,38,39
 140 229 140 229 118 215 c 0,40,41
 110 210 110 210 105 203 c 0,42,43
 101 197 101 197 100 191 c 0,44,45
 100 185 100 185 111 178 c 2,46,-1
 135 165 l 2,47,48
 169 143 169 143 169 108 c 0,49,50
 169 103 169 103 168 97 c 0,51,52
 168 90 168 90 167 84 c 0,53,54
 164 67 164 67 157 55 c 0,55,56
 139 20 139 20 99 20 c 0,57,58
 44 20 44 20 17 75 c 0,59,60
 8 98 8 98 8 118 c 0,61,62
 8 156 8 156 36 191 c 0,63,64
 74 236 74 236 130 247 c 0,65,66
 148 251 148 251 173 253 c 0,67,68
 192 254 192 254 217 254 c 2,69,-1
 228 254 l 1,70,-1
 243 252 l 2,71,72
 263 250 263 250 282 246 c 0,73,74
 335 233 335 233 368 205 c 0,75,76
 414 166 414 166 414 102 c 0,77,78
 414 44 414 44 371 10 c 0,79,80
 350 -7 350 -7 319 -18 c 2,81,-1
 307 -22 l 2,82,83
 302 -24 302 -24 297 -25 c 2,84,-1
 281 -29 l 2,85,86
 270 -32 270 -32 255 -38 c 0,87,88
 234 -45 234 -45 217 -54 c 0,89,90
 166 -78 166 -78 152 -101 c 1,91,92
 169 -95 169 -95 189 -95 c 0,93,94
 216 -95 216 -95 251 -104 c 0,95,96
 264 -107 264 -107 277 -112 c 0,97,98
 288 -115 288 -115 297 -119 c 2,99,-1
 327 -130 l 2,100,101
 338 -133 338 -133 344 -133 c 0,102,103
 365 -133 365 -133 383 -90 c 2,104,-1
 384 -87 l 2,105,106
 387 -77 387 -77 397 -77 c 0,107,108
 403 -77 403 -77 406 -79 c 0,109,110
 409 -83 409 -83 409 -91 c 0,111,0
 403 -146 403 -146 387 -181 c 0,1,2
EndSplineSet
EndChar

StartChar: uniE083
Encoding: 57475 57475 144
Width: 386
GlyphClass: 1
Flags: W
LayerCount: 2
Fore
SplineSet
197 248 m 2,0,1
 217 247 217 247 241 241 c 0,2,3
 272 233 272 233 296 220 c 0,4,5
 327 205 327 205 344 183 c 0,6,7
 364 158 364 158 364 126 c 0,8,9
 364 87 364 87 342 62 c 0,10,11
 330 47 330 47 303 35 c 0,12,13
 298 32 298 32 288 30 c 0,14,15
 287 29 287 29 284 29 c 2,16,-1
 272 26 l 2,17,18
 268 25 268 25 268 17 c 0,19,20
 268 14 268 14 269 12 c 0,21,22
 271 9 271 9 279 7 c 2,23,-1
 312 -2 l 1,24,-1
 333 -14 l 2,25,26
 348 -23 348 -23 357 -35 c 0,27,28
 370 -50 370 -50 376 -64 c 0,29,30
 383 -80 383 -80 385 -105 c 2,31,-1
 385 -112 l 2,32,33
 385 -175 385 -175 322 -214 c 0,34,35
 263 -251 263 -251 184 -251 c 2,36,-1
 175 -251 l 2,37,38
 97 -249 97 -249 54 -224 c 0,39,40
 5 -197 5 -197 4 -141 c 0,41,42
 4 -99 4 -99 26 -80 c 0,43,44
 45 -59 45 -59 74 -54 c 0,45,46
 78 -53 78 -53 85 -53 c 0,47,48
 134 -53 134 -53 152 -94 c 0,49,50
 157 -106 157 -106 157 -125 c 0,51,52
 157 -135 157 -135 153 -144 c 2,53,-1
 149 -153 l 2,54,55
 148 -156 148 -156 145 -161 c 0,56,57
 134 -181 134 -181 134 -191 c 2,58,-1
 134 -196 l 2,59,60
 135 -206 135 -206 145 -209 c 0,61,62
 149 -211 149 -211 154 -211 c 2,63,-1
 171 -213 l 2,64,65
 176 -213 176 -213 181 -212 c 0,66,67
 187 -211 187 -211 192 -209 c 0,68,69
 206 -205 206 -205 217 -194 c 0,70,71
 247 -164 247 -164 247 -95 c 1,72,-1
 246 -87 l 2,73,74
 246 -81 246 -81 244 -75 c 0,75,76
 239 -58 239 -58 228 -45 c 0,77,78
 214 -27 214 -27 191 -16 c 0,79,80
 163 -4 163 -4 123 -4 c 2,81,-1
 116 -4 l 1,82,-1
 108 -2 l 2,83,84
 98 0 98 0 98 8 c 0,85,86
 98 23 98 23 122 25 c 0,87,88
 175 28 175 28 207 51 c 0,89,90
 244 79 244 79 244 131 c 2,91,-1
 244 138 l 2,92,93
 244 143 244 143 243 148 c 0,94,95
 243 154 243 154 241 160 c 0,96,97
 238 175 238 175 229 186 c 0,98,99
 206 215 206 215 151 215 c 0,100,101
 141 215 141 215 127 209 c 0,102,103
 110 201 110 201 109 190 c 2,104,-1
 109 186 l 2,105,106
 109 177 109 177 117 175 c 0,107,108
 119 174 119 174 124 173 c 2,109,-1
 136 170 l 2,110,111
 142 168 142 168 146 165 c 0,112,113
 160 154 160 154 162 131 c 2,114,-1
 162 123 l 2,115,116
 162 58 162 58 96 58 c 2,117,-1
 91 58 l 2,118,119
 49 61 49 61 27 88 c 0,120,121
 10 109 10 109 10 139 c 0,122,123
 10 179 10 179 64 214 c 256,124,125
 118 249 118 249 182 249 c 1,126,-1
 197 248 l 2,0,1
EndSplineSet
EndChar

